SplineFontDB: 3.2
FontName: AtkinsonHyperPro-BoldItalic
FullName: Atkinson Hyperlegible Pro Bold Italic
FamilyName: Atkinson Hyperlegible Pro
Weight: Bold
Copyright: Copyright 2020 Braille Institute of America, Inc.
UComments: "Update by Jacob Perez+AAoA-https://jacobxperez.github.io/atkinson-hyperlegible-pro/"
Version: 1.3.2
ItalicAngle: -12
UnderlinePosition: -106
UnderlineWidth: 57
Ascent: 800
Descent: 200
InvalidEm: 0
sfntRevision: 0x00010000
LayerCount: 2
Layer: 0 0 "Back" 1
Layer: 1 0 "Fore" 0
XUID: [1021 466 782043844 14962]
StyleMap: 0x0021
FSType: 0
OS2Version: 4
OS2_WeightWidthSlopeOnly: 0
OS2_UseTypoMetrics: 1
CreationTime: 1618935638
ModificationTime: 1697742879
PfmFamily: 81
TTFWeight: 700
TTFWidth: 5
LineGap: 0
VLineGap: 0
Panose: 0 0 0 0 0 0 0 0 0 0
OS2TypoAscent: 950
OS2TypoAOffset: 0
OS2TypoDescent: -290
OS2TypoDOffset: 0
OS2TypoLinegap: 0
OS2WinAscent: 950
OS2WinAOffset: 0
OS2WinDescent: 290
OS2WinDOffset: 0
HheadAscent: 950
HheadAOffset: 0
HheadDescent: -290
HheadDOffset: 0
OS2SubXSize: 650
OS2SubYSize: 699
OS2SubXOff: 0
OS2SubYOff: 140
OS2SupXSize: 650
OS2SupYSize: 699
OS2SupXOff: 0
OS2SupYOff: 479
OS2StrikeYSize: 49
OS2StrikeYPos: 258
OS2CapHeight: 668
OS2XHeight: 496
OS2Vendor: 'NONE'
OS2CodePages: 20000003.00000000
OS2UnicodeRanges: 800000ef.0000204b.00000000.00000000
Lookup: 4 0 1 "'liga' Standard Ligatures lookup 0" { "'liga' Standard Ligatures lookup 0-1"  } ['liga' ('DFLT' <'dflt' > 'grek' <'dflt' > 'latn' <'MOL ' 'dflt' > ) ]
Lookup: 1 0 0 "'zero' Slashed Zero lookup 0" { "'zero' Slashed Zero lookup 0-1"  } ['zero' ('DFLT' <'dflt' > 'grek' <'dflt' > 'latn' <'MOL ' 'dflt' > ) ]
Lookup: 1 0 0 "'aalt' Access All Alternates lookup 0" { "'aalt' Access All Alternates lookup 0 subtable"  } ['aalt' ('DFLT' <'dflt' > 'grek' <'dflt' > 'latn' <'dflt' > ) ]
Lookup: 3 0 0 "'aalt' Access All Alternates lookup 1" { "'aalt' Access All Alternates lookup 1 subtable"  } ['aalt' ('DFLT' <'dflt' > 'grek' <'dflt' > 'latn' <'dflt' > ) ]

StartChar: .notdef
Encoding: 256 -1 0
Width: 676
GlyphClass: 1
Flags: W
HStem: 0 21<158 528> 680 20<157 528>
VStem: 129 21<49 650> 536 20<47 652>
DStem2: 157 680 150 650 0.513698 -0.857971<22.1432 360.147 396.696 737.787> 150 49 158 21 0.513896 0.857853<0 339.381 374.897 715.649>
LayerCount: 2
Fore
SplineSet
158 21 m 1
 528 21 l 1
 343 329 l 1
 158 21 l 1
150 49 m 1
 330 350 l 1
 150 650 l 1
 150 49 l 1
536 47 m 1
 536 652 l 1
 355 350 l 1
 536 47 l 1
342 371 m 1
 528 680 l 1
 157 680 l 1
 342 371 l 1
129 0 m 1
 129 700 l 1
 556 700 l 1
 556 0 l 1
 129 0 l 1
EndSplineSet
EndChar

StartChar: zero
Encoding: 48 48 5
Width: 659
GlyphClass: 1
Flags: W
HStem: -12 113<252.989 373.838> 567 113<297.34 421>
VStem: 47 155<159.126 425.389> 470 155<242.076 512.258>
DStem2: 291 544 230 450 0.433731 -0.901042<58.2403 351.991>
LayerCount: 2
Fore
SplineSet
202 276.238569121 m 0
 202 226.48105034 209.993058512 101 310.912758982 101 c 0
 337.940399562 101 363 110 385 128 c 1
 230 450 l 1
 225.401644793 436.204934379 202 361.376954768 202 276.238569121 c 0
470 398.90877876 m 0
 470 469.089743688 452.780109657 567 361.450379877 567 c 0
 335.893880271 567 312.333333333 559.333333333 291 544 c 1
 444 227 l 1
 463.538196662 283.172315404 470 355.917435729 470 398.90877876 c 0
625 394.645854421 m 0
 625 228.23472196 555.058950239 -12 304.101843963 -12 c 0
 206.487309439 -12 47 24.3467645016 47 265.901531452 c 0
 47 342.450455473 63.0167017206 680 367.990022191 680 c 0
 472.747827638 680 625 640.172172859 625 394.645854421 c 0
EndSplineSet
Substitution2: "'zero' Slashed Zero lookup 0-1" zero.alt1
Substitution2: "'aalt' Access All Alternates lookup 0 subtable" zero.alt1
Substitution2: "'tnum' Tabular Numbers lookup 14 subtable" zero.tf
EndChar

StartChar: one
Encoding: 49 49 6
Width: 455
GlyphClass: 1
Flags: W
HStem: 0 21G<132 291.222> 449 122<98 228> 648 20G<285.935 428>
VStem: 132 155<0 155>
DStem2: 132 0 287 0 0.207912 0.978148<32.2263 459.148>
LayerCount: 2
Fore
SplineSet
98 571 m 1
 210.128921047 571 261.869827249 590.991723599 310 668 c 1
 428 668 l 1
 287 0 l 1
 132 0 l 1
 228 449 l 1
 72 449 l 1
 98 571 l 1
EndSplineSet
Substitution2: "'tnum' Tabular Numbers lookup 14 subtable" one.tf
Substitution2: "'sups' Superscript lookup 9 subtable" uni00B9
AlternateSubs2: "'aalt' Access All Alternates lookup 1 subtable" uni00B9 one.tf
EndChar

StartChar: two
Encoding: 50 50 7
Width: 587
GlyphClass: 1
Flags: W
HStem: 0 125<204 478> 568 112<262.071 393.481>
VStem: 420 158<421.711 542.853>
LayerCount: 2
Fore
SplineSet
578 502.910493959 m 0
 578 392.815018409 485.668047384 264.005010397 204 125 c 1
 504 125 l 1
 478 0 l 1
 -35 0 l 1
 -9 125 l 1
 369.718037608 318.832066492 420 428.56282502 420 488.044868972 c 0
 420 541.395351458 379.550127728 568 333.495631383 568 c 0
 289.364974379 568 239.944377056 543.571644137 208 489 c 1
 81 539 l 1
 140.703989388 645.140425579 264.136147388 680 351.405972504 680 c 0
 457.045826402 680 578 628.920168821 578 502.910493959 c 0
EndSplineSet
Substitution2: "'tnum' Tabular Numbers lookup 14 subtable" two.tf
Substitution2: "'sups' Superscript lookup 9 subtable" uni00B2
AlternateSubs2: "'aalt' Access All Alternates lookup 1 subtable" uni00B2 two.tf
EndChar

StartChar: three
Encoding: 51 51 8
Width: 619
GlyphClass: 1
Flags: W
HStem: -12 113<193.132 339.956> 291 106<227 328.939> 567 113<246.753 393.789>
VStem: 419 160<439.704 538.936>
LayerCount: 2
Fore
SplineSet
579 507.612166423 m 0
 579 446.114255782 551.422301963 382.453794308 465 349 c 1
 606.042883262 269.87838256 555.231239505 -12 258.969765358 -12 c 0
 146.859809859 -12 49.518916663 28.3645181255 6 140 c 1
 155 190 l 1
 159.136434575 164.66433823 178.421088249 101 265.885840708 101 c 0
 326.197806853 101 381 131.271717333 381 193.514861533 c 0
 381 277.536491198 281.138727725 291 205 291 c 1
 227 397 l 1
 338.398288448 397 419 421.387947253 419 490.342663179 c 0
 419 538.606817901 379.511946553 567 321.9556094 567 c 0
 298.245333762 567 225.348107875 562.181620777 204 485 c 1
 77 535 l 1
 115.125153641 606.917903459 186.232067865 680 332.575586089 680 c 0
 386.758912971 680 579 669.981669628 579 507.612166423 c 0
EndSplineSet
Substitution2: "'tnum' Tabular Numbers lookup 14 subtable" three.tf
Substitution2: "'sups' Superscript lookup 9 subtable" uni00B3
AlternateSubs2: "'aalt' Access All Alternates lookup 1 subtable" uni00B3 three.tf
EndChar

StartChar: four
Encoding: 52 52 9
Width: 646
GlyphClass: 1
Flags: W
HStem: 0 21G<294 454.255> 141 134<193 324 508 572> 648 20G<401.096 592>
DStem2: 7 252 193 275 0.705401 0.708809<147.507 426.802> 294 0 450 0 0.207912 0.978148<32.4342 144.156 313.484 479.542>
LayerCount: 2
Fore
SplineSet
193 275 m 1
 352 275 l 1
 394 469 l 1
 193 275 l 1
294 0 m 1
 324 141 l 1
 -16 141 l 1
 7 252 l 1
 421 668 l 1
 592 668 l 1
 508 275 l 1
 600 275 l 1
 572 141 l 1
 480 141 l 1
 450 0 l 1
 294 0 l 1
EndSplineSet
Substitution2: "'tnum' Tabular Numbers lookup 14 subtable" four.tf
Substitution2: "'sups' Superscript lookup 9 subtable" uni2074
AlternateSubs2: "'aalt' Access All Alternates lookup 1 subtable" four.tf uni2074
EndChar

StartChar: five
Encoding: 53 53 10
Width: 616
GlyphClass: 1
Flags: W
HStem: -12 112<199.182 339.025> 337 111<231.031 345.936> 544 124<259 560>
VStem: 388 156<150.417 293.893>
LayerCount: 2
Fore
SplineSet
544 241.509537995 m 0
 544 79.8798264222 419.185892403 -12 270.174599765 -12 c 0
 164.19366535 -12 47.1064638833 34.4769147024 17 142 c 1
 156 189 l 1
 166.316647062 132.258441158 215.084006619 100 270.790148993 100 c 0
 339.063274229 100 388 148.454796505 388 223.353301871 c 0
 388 305.241024983 329.503996265 337 278.889790649 337 c 0
 262.350909431 337 198.724774622 333.608952417 168 276 c 1
 41 327 l 1
 156 668 l 1
 586 668 l 1
 560 544 l 1
 259 544 l 1
 217 419 l 1
 236.112479209 429.702988357 276.931298948 448 330.535906741 448 c 0
 406.787119835 448 544 410.977185285 544 241.509537995 c 0
EndSplineSet
Substitution2: "'tnum' Tabular Numbers lookup 14 subtable" five.tf
Substitution2: "'aalt' Access All Alternates lookup 0 subtable" five.tf
EndChar

StartChar: six
Encoding: 54 54 11
Width: 629
GlyphClass: 1
Flags: W
HStem: -12 113<230.158 354.804> 339 113<252.494 373.63> 570 110<292.985 448.632>
VStem: 43 149<140.149 288.607>
LayerCount: 2
Fore
SplineSet
192 212.959999684 m 0
 192 144.304450764 231.758525068 101 292.887196141 101 c 0
 408.533482901 101 434.499909752 255.99083266 378.326731349 313.204255107 c 0
 361.63927214 330.200741339 337.27893207 339 306.987516783 339 c 0
 226.563250015 339 192 276.972943186 192 212.959999684 c 0
562 243.603064389 m 0
 562 104.822554582 455.057666244 -12 286.176768412 -12 c 0
 186.94189116 -12 43 28.336137996 43 260.278868284 c 0
 43 443.80608875 133.12113415 680 369.001575782 680 c 0
 421.217886707 680 517.333933622 668.425634171 567 583 c 1
 429 535 l 1
 419.423414917 549.800176947 398.379390405 570 356.215300744 570 c 0
 282.079715226 570 233.500332696 507.552428684 220 409 c 1
 253.461238677 434.739414367 289.160504401 452 345.686632501 452 c 0
 463.87909238 452 562 376.536560978 562 243.603064389 c 0
EndSplineSet
Substitution2: "'tnum' Tabular Numbers lookup 14 subtable" six.tf
Substitution2: "'aalt' Access All Alternates lookup 0 subtable" six.tf
EndChar

StartChar: seven
Encoding: 55 55 12
Width: 561
GlyphClass: 1
Flags: W
HStem: 0 21G<13 207.738> 543 125<80 400>
VStem: 13 181<0 181>
LayerCount: 2
Fore
SplineSet
13 0 m 1
 400 543 l 1
 53 543 l 1
 80 668 l 1
 593 668 l 1
 567 543 l 1
 194 0 l 1
 13 0 l 1
EndSplineSet
Substitution2: "'tnum' Tabular Numbers lookup 14 subtable" seven.tf
Substitution2: "'aalt' Access All Alternates lookup 0 subtable" seven.tf
EndChar

StartChar: eight
Encoding: 56 56 13
Width: 623
GlyphClass: 1
Flags: W
HStem: -12 126<202.698 356.881> 294 123<260.437 357.945> 555 125<269.457 366.665>
VStem: 12 155<148.465 258.707> 121 125<431.452 530.51> 382 126<441.404 539.819> 402 154<154.844 264.804>
LayerCount: 2
Fore
SplineSet
167 203.933693889 m 0xf2
 167 147.630613183 212.678216871 114 278.893427515 114 c 0
 355.423411555 114 402 158.924422334 402 212.665477471 c 0
 402 265.990999414 356.140900043 294 295.953712205 294 c 0
 276.148154877 294 167 290.967061217 167 203.933693889 c 0xf2
246 479.61065286 m 0xec
 246 443.751505234 272.108943247 417 306.637831319 417 c 0
 346.478387392 417 382 452.615071485 382 493.82806258 c 0
 382 529.192170107 355.845296087 555 321.057676217 555 c 0
 281.313888523 555 246 521.314688771 246 479.61065286 c 0xec
556 214.626540414 m 0xe2
 556 82.7048417908 444.513297893 -12 271.936268157 -12 c 0
 117.93796338 -12 12 63.4115874857 12 189.042527058 c 0xf2
 12 274.368059074 60.8670827682 332.241887721 147 378 c 1
 132.333120606 404.889278889 121 437.563979004 121 476.048678599 c 0
 121 581.579477218 206.218082567 680 328.506867345 680 c 0
 445.31393848 680 508 590.205305389 508 512.216402827 c 0xec
 508 465.839047768 485.832469229 403.832469229 455 373 c 1
 510.226595421 344.131552394 556 299.156625917 556 214.626540414 c 0xe2
EndSplineSet
Substitution2: "'tnum' Tabular Numbers lookup 14 subtable" eight.tf
Substitution2: "'aalt' Access All Alternates lookup 0 subtable" eight.tf
EndChar

StartChar: nine
Encoding: 57 57 14
Width: 576
GlyphClass: 1
Flags: W
HStem: 0 21G<106 283.121> 546 135<255.883 386.624>
VStem: 62 140<364.767 491.598> 106 174<0 174> 417 139<386.18 517.792>
LayerCount: 2
Fore
SplineSet
202 424.480980057 m 0xe8
 202 365.762532163 245.134856929 336 296.62566811 336 c 0
 366.285903957 336 417 390.472874248 417 454.868980775 c 0
 417 505.026585346 386.233149374 546 325.535017901 546 c 0
 253.857739569 546 202 488.863382371 202 424.480980057 c 0xe8
331.793421304 681 m 0
 464.853683694 681 556 585.293831582 556 453.415663532 c 0
 556 395.71428571 538.551195483 370.787422115 538.547628379 370.782326252 c 0
 395.162019952 165.945742789 286.242529564 8.5834781505 280 0 c 1
 106 0 l 1xd8
 271 222 l 1
 254 222 l 1
 131.738124095 226.075395864 62 318.653267538 62 421.835306004 c 0
 62 555.843498844 179.631803358 681 331.793421304 681 c 0
EndSplineSet
Substitution2: "'tnum' Tabular Numbers lookup 14 subtable" nine.tf
Substitution2: "'aalt' Access All Alternates lookup 0 subtable" nine.tf
EndChar

StartChar: A
Encoding: 65 65 15
Width: 698
GlyphClass: 2
Flags: W
HStem: 0 21G<-65 132.092 455.311 623> 119 128<255 427> 648 20G<317.204 515.323>
DStem2: -65 0 121 0 0.508034 0.861337<94.4943 230.524 375.321 578.832> 512 668 395 501 0.16392 -0.986474<145.562 401.372> 623 0 442 119 0.16392 -0.986474<-480.395 -275.787 -147.06 -27.0468>
AnchorPoint: "Anchor-2" 623 0 basechar 0
AnchorPoint: "Anchor-1" 427 668 basechar 0
AnchorPoint: "Anchor-0" 296 0 basechar 0
LayerCount: 2
Fore
SplineSet
255 247 m 1
 427 247 l 1
 395 501 l 1
 255 247 l 1
-65 0 m 1
 329 668 l 1
 512 668 l 1
 623 0 l 1
 458 0 l 1
 442 119 l 1
 187 119 l 1
 121 0 l 1
 -65 0 l 1
EndSplineSet
Substitution2: "Single Substitution lookup 12 subtable" ordfeminine
Substitution2: "'aalt' Access All Alternates lookup 0 subtable" ordfeminine
EndChar

StartChar: B
Encoding: 66 66 16
Width: 643
GlyphClass: 1
Flags: W
HStem: 0 131<166 390.262> 282 122<224 416.089> 539 129<253 450.339>
VStem: 433 167<170.403 264.451> 464 169<437.037 549.515>
DStem2: -23 0 138.155 0 0.207912 0.978148<167.433 321.786 446.526 584.605>
AnchorPoint: "Anchor-1" 336 668 basechar 0
LayerCount: 2
Fore
SplineSet
433 225.8959163 m 0xf0
 433 230.975605362 432.563641309 282 339 282 c 2
 198 282 l 1
 166 131 l 1
 313 131 l 2
 386.824313157 131 433 173.641620913 433 225.8959163 c 0xf0
464 482.77516271 m 0xe8
 464 501.220261578 457.550646015 539 391 539 c 2
 253 539 l 1
 224 404 l 1
 363 404 l 2
 425.180367583 404 464 437.522036222 464 482.77516271 c 0xe8
600 225.992882354 m 0xf0
 600 70.4404175479 453.747649627 0 283 0 c 2
 -23 0 l 1
 119 668 l 1
 413 668 l 2
 624.588452596 668 633 568.520725268 633 530.508657253 c 0xe8
 633 488.295900869 622.626619121 400.113940734 523 355 c 1
 586.235235187 326.092463915 600 273.713918824 600 225.992882354 c 0xf0
EndSplineSet
EndChar

StartChar: C
Encoding: 67 67 17
Width: 673
GlyphClass: 2
Flags: W
HStem: 550 130<322.161 482.301>
VStem: 32 168<186.523 402.739>
AnchorPoint: "Anchor-1" 428 668 basechar 0
AnchorPoint: "Anchor-0" 311 0 basechar 0
LayerCount: 2
Fore
SplineSet
616 141 m 1
 571.049951874 71.6205778931 483.950663225 -12 326.392314982 -12 c 0
 233.898253101 -12 32 16.8176146682 32 274.023544414 c 0
 32 492.955326106 178.281104394 680 414.212649694 680 c 0
 494.379218323 680 627.298471256 658.404666693 671 525 c 1
 525 476 l 1
 512.520004915 505.119988531 483.588116311 550 405.992897986 550 c 0
 264.767038165 550 200 401.334055123 200 284.096636489 c 0
 200 116.223917815 332.79502031 100.797786805 408.130787093 134.280349819 c 0
 434.699360932 146.088604859 458.666666667 166 480 194 c 1
 616 141 l 1
EndSplineSet
EndChar

StartChar: D
Encoding: 68 68 18
Width: 690
GlyphClass: 2
Flags: W
HStem: 0 133<167 348.102> 537 131<253 430.51>
DStem2: -23 0 138.73 0 0.207912 0.978148<169.597 582.649>
AnchorPoint: "Anchor-1" 391 668 basechar 0
AnchorPoint: "Anchor-0" 292 0 basechar 0
LayerCount: 2
Fore
SplineSet
167 133 m 1
 230 133 l 2
 325.560152877 133 466.780766655 166.768803396 489.324478968 363.729658346 c 0
 503.533350738 487.870327498 454.591595335 537 311 537 c 2
 253 537 l 1
 167 133 l 1
-23 0 m 1
 119 668 l 1
 313 668 l 2
 438.333333333 668 530.640078012 638.359921988 589.130401208 579.869598792 c 0
 709.050511321 459.949488679 655.163868966 250.41379938 586.502617762 157.065356733 c 0
 550.167687801 107.666182291 442.905161825 0 200 0 c 2
 -23 0 l 1
EndSplineSet
EndChar

StartChar: E
Encoding: 69 69 19
Width: 582
GlyphClass: 2
Flags: W
HStem: 0 139<168 495> 274 139<226 414> 529 139<251 607>
DStem2: -23 0 138.455 0 0.207912 0.978148<175.674 313.753 455.745 574.408>
AnchorPoint: "Anchor-2" 463 0 basechar 0
AnchorPoint: "Anchor-1" 381 668 basechar 0
AnchorPoint: "Anchor-0" 238 0 basechar 0
LayerCount: 2
Fore
SplineSet
-23 0 m 1
 119 668 l 1
 637 668 l 1
 607 529 l 1
 251 529 l 1
 226 413 l 1
 443 413 l 1
 414 274 l 1
 197 274 l 1
 168 139 l 1
 524 139 l 1
 495 0 l 1
 -23 0 l 1
EndSplineSet
EndChar

StartChar: F
Encoding: 70 70 20
Width: 545
GlyphClass: 1
Flags: W
HStem: 0 21G<-23 142.307> 274 139<226 517> 529 139<251 571>
VStem: -23 161<0 161>
DStem2: -23 0 138 0 0.207912 0.978148<33.4738 313.753 455.745 574.408>
AnchorPoint: "Anchor-1" 350 668 basechar 0
LayerCount: 2
Fore
SplineSet
-23 0 m 1
 119 668 l 1
 600 668 l 1
 571 529 l 1
 251 529 l 1
 226 413 l 1
 546 413 l 1
 517 274 l 1
 197 274 l 1
 138 0 l 1
 -23 0 l 1
EndSplineSet
EndChar

StartChar: G
Encoding: 71 71 21
Width: 733
GlyphClass: 2
Flags: W
HStem: -12 129<260.102 409.243> 0 21G<508.378 621.286> 250 128<386 509> 550 130<321.655 482.979>
VStem: 31 168<185.217 403.297>
AnchorPoint: "Anchor-1" 440 668 basechar 0
AnchorPoint: "Anchor-0" 304 0 basechar 0
LayerCount: 2
Fore
SplineSet
199 284.716186282 m 0xb8
 199 229.096807987 213.792901453 117 338.547097783 117 c 0xb8
 403.12208112 117 487.776181715 147.033885861 505 231 c 2
 509 250 l 1
 359 250 l 1
 386 378 l 1
 698 378 l 1
 617 0 l 1
 510 0 l 1x78
 504 74 l 1
 448.666666667 16.6666666667 378.093723941 -12 293.977953123 -12 c 0
 144.190532194 -12 31 78.9019133443 31 269.014213214 c 0
 31 479.351224745 169.554638243 680 422.56793627 680 c 0
 519.37622249 680 628.9479678 650.62520248 677 535 c 1
 529 478 l 1
 515.596142292 512.850030041 469.235659711 550 400.580199343 550 c 0
 262.674454688 550 199 400.109877339 199 284.716186282 c 0xb8
EndSplineSet
EndChar

StartChar: H
Encoding: 72 72 22
Width: 695
GlyphClass: 1
Flags: W
HStem: 0 21G<-23 142.307 414 579.251> 274 139<226 472> 648 20G<114.749 279 551.765 717>
VStem: -23 161<0 161> 119 160<508 668> 414 161<0 161> 556 161<507 668>
DStem2: -23 0 138 0 0.207912 0.978148<33.4738 313.753 455.745 682.926> 414 0 575 0 0.207912 0.978148<33.4738 280.071 422.271 682.926>
AnchorPoint: "Anchor-1" 413 668 basechar 0
LayerCount: 2
Fore
SplineSet
-23 0 m 1xf4
 119 668 l 1
 279 668 l 1
 226 413 l 1
 502 413 l 1
 556 668 l 1
 717 668 l 1xea
 575 0 l 1
 414 0 l 1
 472 274 l 1
 197 274 l 1
 138 0 l 1
 -23 0 l 1xf4
EndSplineSet
EndChar

StartChar: I
Encoding: 73 73 23
Width: 459
GlyphClass: 2
Flags: W
HStem: 0 124<13 105 267 331> 544 124<129 195 355 447>
DStem2: 78.643 0 240.643 0 0.207912 0.978148<160.452 556.304>
AnchorPoint: "Anchor-2" 242 0 basechar 0
AnchorPoint: "Anchor-1" 301 668 basechar 0
AnchorPoint: "Anchor-0" 151 0 basechar 0
LayerCount: 2
Fore
SplineSet
-13 0 m 1
 13 124 l 1
 105 124 l 1
 195 544 l 1
 103 544 l 1
 129 668 l 1
 474 668 l 1
 447 544 l 1
 355 544 l 1
 267 124 l 1
 358 124 l 1
 331 0 l 1
 -13 0 l 1
EndSplineSet
EndChar

StartChar: J
Encoding: 74 74 24
Width: 566
GlyphClass: 1
Flags: W
HStem: -12 125<150.524 282.072> 648 20G<421.777 588>
VStem: 426 162<506 668>
DStem2: 282.035 -12 443.035 -12 0.207912 0.978148<158.094 695.072>
AnchorPoint: "Anchor-1" 507 668 basechar 0
LayerCount: 2
Fore
SplineSet
128 209.031997415 m 0
 128 144.420514094 149.917914863 113 213.913707309 113 c 0
 283.849266512 113 317.637727014 150.523777131 339 256 c 2
 426 668 l 1
 588 668 l 1
 500 256 l 2
 466.910739617 101.082099114 398.3864236 -12 207.956854109 -12 c 0
 126.425436742 -12 47.5957934709 8.72884361058 1.99152440941 80.5133412074 c 0
 -16.0035260355 108.838883574 -26 140.666666667 -28 176 c 1
 129 228 l 1
 128.333333333 223.333333333 128 217 128 209.031997415 c 0
EndSplineSet
EndChar

StartChar: K
Encoding: 75 75 25
Width: 657
GlyphClass: 2
Flags: W
HStem: 0 21G<-23 142.264 400.819 577> 648 20G<114.749 279 478.521 715>
VStem: -23 161<0 161> 119 160<508 668> 501 214<454 668>
DStem2: -23 0 138 0 0.207912 0.978148<33.4738 234.901 469.085 682.926> 229 426 384 377 0.750574 0.660786<83.9605 364.066> 384 377 270 277 0.455693 -0.890137<37.0646 347.885>
AnchorPoint: "Anchor-1" 400 668 basechar 0
AnchorPoint: "Anchor-0" 265 0 basechar 0
LayerCount: 2
Fore
SplineSet
-23 0 m 1xe8
 119 668 l 1
 279 668 l 1xd8
 229 426 l 1
 501 668 l 1
 715 668 l 1
 384 377 l 1
 577 0 l 1
 411 0 l 1
 270 277 l 1
 180 197 l 1
 138 0 l 1
 -23 0 l 1xe8
EndSplineSet
EndChar

StartChar: L
Encoding: 76 76 26
Width: 543
GlyphClass: 2
Flags: W
HStem: 0 139<168 458> 648 20G<114.749 279>
VStem: 119 160<508 668>
DStem2: -23 0 138.455 0 0.207912 0.978148<175.674 682.926>
AnchorPoint: "Anchor-1" 216 668 basechar 0
AnchorPoint: "Anchor-0" 219 0 basechar 0
LayerCount: 2
Fore
SplineSet
-23 0 m 1
 119 668 l 1
 279 668 l 1
 168 139 l 1
 488 139 l 1
 458 0 l 1
 -23 0 l 1
EndSplineSet
EndChar

StartChar: M
Encoding: 77 77 27
Width: 858
GlyphClass: 1
Flags: W
HStem: 0 21G<-23 138.24 292.236 436.353 581 741.281> 648 20G<114.749 357.6 624.853 880>
VStem: -23 157<0 157> 581 156<0 156>
DStem2: -23 0 134 0 0.207912 0.978148<32.6421 577.489> 356 668 247 533 0.0878393 -0.996135<124.904 476.502> 394 193 426 0 0.459707 0.888071<0 417.592> 581 0 737 0 0.207912 0.978148<32.4342 521.518>
AnchorPoint: "Anchor-1" 487 668 basechar 0
LayerCount: 2
Fore
SplineSet
-23 0 m 1
 119 668 l 1
 356 668 l 1
 394 193 l 1
 635 668 l 1
 880 668 l 1
 737 0 l 1
 581 0 l 1
 690 510 l 1
 426 0 l 1
 294 0 l 1
 247 533 l 1
 134 0 l 1
 -23 0 l 1
EndSplineSet
EndChar

StartChar: N
Encoding: 78 78 28
Width: 715
GlyphClass: 2
Flags: W
HStem: 0 21G<-23 137.247 389.402 599.251> 648 20G<114.749 324.598 577.711 737>
VStem: -23 156<0 156> 582 155<513 668>
DStem2: -23 0 133 0 0.207912 0.978148<32.4342 528.251> 318 668 236 485 0.313289 -0.949658<148.098 510.71> 439.102 0 595 0 0.207912 0.978148<187.088 683.113>
AnchorPoint: "Anchor-1" 456 668 basechar 0
AnchorPoint: "Anchor-0" 285 0 basechar 0
LayerCount: 2
Fore
SplineSet
-23 0 m 1
 119 668 l 1
 318 668 l 1
 478 183 l 1
 582 668 l 1
 737 668 l 1
 595 0 l 1
 396 0 l 1
 236 485 l 1
 133 0 l 1
 -23 0 l 1
EndSplineSet
EndChar

StartChar: O
Encoding: 79 79 29
Width: 763
GlyphClass: 2
Flags: W
HStem: -12 130<270.687 432.893> 550 130<331.477 490.678>
VStem: 32 169<192.321 403.562> 564 168<265.927 472.426>
AnchorPoint: "Anchor-2" 636 10 basechar 0
AnchorPoint: "Anchor-1" 456 668 basechar 0
AnchorPoint: "Anchor-0" 329 0 basechar 0
LayerCount: 2
Fore
SplineSet
201 294.940344599 m 0
 201 256.167756887 209.426425424 118 348.511590581 118 c 0
 484.770468211 118 564 250.609519228 564 377.159059695 c 0
 564 502.8393874 485.855115541 550 410.543610164 550 c 0
 283.836455814 550 201 416.50682718 201 294.940344599 c 0
732 392.700737172 m 0
 732 175.586747058 576.941179272 -12 334.096013998 -12 c 0
 158.491722002 -12 32 86.0874584998 32 274.309420921 c 0
 32 475.309274549 176.24906042 680 420.634253915 680 c 0
 496.402775891 680 732 660.324489179 732 392.700737172 c 0
EndSplineSet
Substitution2: "Single Substitution lookup 12 subtable" ordmasculine
Substitution2: "'aalt' Access All Alternates lookup 0 subtable" ordmasculine
EndChar

StartChar: P
Encoding: 80 80 30
Width: 628
GlyphClass: 1
Flags: W
HStem: 0 21G<-23 142.224> 232 131<216 423.732> 535 133<252 441.325>
VStem: -23 161<0 161> 470 168<405.674 510.145>
DStem2: -23 0 138 0 0.207912 0.978148<33.4738 270.592 404.758 580.485>
AnchorPoint: "Anchor-1" 348 668 basechar 0
LayerCount: 2
Fore
SplineSet
319 363 m 2
 357.690909871 363 470 370.655125245 470 458.515920167 c 0
 470 509.846475952 431.666666667 535 355 535 c 2
 252 535 l 1
 216 363 l 1
 319 363 l 2
638 486.423730843 m 0
 638 392.932449218 597.119593792 232 304 232 c 2
 187 232 l 1
 138 0 l 1
 -23 0 l 1
 119 668 l 1
 379 668 l 2
 585.350221246 668 638 592.522852195 638 486.423730843 c 0
EndSplineSet
EndChar

StartChar: Q
Encoding: 81 81 31
Width: 774
GlyphClass: 1
Flags: W
HStem: 14 131<275.934 431.557> 576 130<334.576 495.435>
VStem: 37 169<223.467 428.12> 569 168<294.127 497.085>
DStem2: 421 363 330 285 0.645035 -0.764153<0.905746 158.137 307.495 444.054>
LayerCount: 2
Fore
SplineSet
206 321.788567416 m 0
 206 288.230898251 212.542941676 145 353.867214791 145 c 0
 381.977304782 145 408.333333333 150.666666667 433 162 c 1
 330 285 l 1
 421 363 l 1
 524 243 l 1
 537.458465849 265.430776414 569 326.544346251 569 404.476371367 c 0
 569 517.964750589 502.111158063 576 416.982521394 576 c 0
 286.384281802 576 206 439.411182729 206 321.788567416 c 0
737 424.093618407 m 0
 737 370.322918429 726.925854121 233.799530087 622 127 c 1
 709 25 l 1
 617 -55 l 1
 523 56 l 1
 473.764512437 31.3822562185 412.091993258 14 339.254479601 14 c 0
 166.994283484 14 37 111.222278915 37 300.498194187 c 0
 37 496.551085235 176.46975772 706 422.552510297 706 c 0
 491.131254672 706 737 689.733473651 737 424.093618407 c 0
EndSplineSet
EndChar

StartChar: R
Encoding: 82 82 32
Width: 644
GlyphClass: 2
Flags: W
HStem: 0 21G<-23 142.286 380.841 557> 535 133<252 444.365>
VStem: -23 161<0 161> 463 167<413.261 514.034>
DStem2: -23 0 138 0 0.207912 0.978148<33.4738 291.194 426.131 580.485> 420 269 263 252 0.453827 -0.89109<0 226.542>
AnchorPoint: "Anchor-1" 380 668 basechar 0
AnchorPoint: "Anchor-0" 269 0 basechar 0
LayerCount: 2
Fore
SplineSet
463 466.454633499 m 0
 463 523.040967359 416.891752081 535 346 535 c 2
 252 535 l 1
 220 384 l 1
 323 384 l 2
 386.091632693 384 463 393.372865776 463 466.454633499 c 0
630 481.122428155 m 0
 630 390.573157003 590.961357397 294.390300604 420 269 c 1
 557 0 l 1
 391 0 l 1
 263 252 l 1
 192 252 l 1
 138 0 l 1
 -23 0 l 1
 119 668 l 1
 369 668 l 2
 565.851528796 668 630 597.195308075 630 481.122428155 c 0
EndSplineSet
EndChar

StartChar: S
Encoding: 83 83 33
Width: 642
GlyphClass: 2
Flags: W
HStem: -12 126<225.594 395.157> 551 129<245.687 410.582>
VStem: 61 163<446.852 529.415> 424 164<140.84 217.738>
AnchorPoint: "Anchor-1" 370 668 basechar 0
AnchorPoint: "Anchor-0" 288 0 basechar 0
LayerCount: 2
Fore
SplineSet
588 203.113358222 m 0
 588 64.4064045861 456.933765593 -12 302.201504432 -12 c 0
 161.041255703 -12 51.3631864874 51.5905892741 10 157 c 1
 165 209 l 1
 183.175166846 134.02743676 263.382628447 114 315.458612452 114 c 0
 370.566113797 114 424 136.427033875 424 181.215534355 c 0
 424 297.953320896 61 246.660314942 61 476.535251653 c 0
 61 625.057084228 212.531868406 680 338.23398707 680 c 0
 417.684648835 680 542.195956171 658.050655956 606 535 c 1
 451 483 l 1
 445.555343383 497.658690892 419.173812321 551 327.857756314 551 c 0
 305.062368633 551 224 547.675982178 224 489.630807178 c 0
 224 366.63022362 588 434.268476637 588 203.113358222 c 0
EndSplineSet
EndChar

StartChar: T
Encoding: 84 84 34
Width: 617
GlyphClass: 2
Flags: W
HStem: 0 21G<158 323.197> 529 139<87 270 430 644>
VStem: 158 161<0 161>
DStem2: 158 0 319 0 0.207912 0.978148<33.4738 540.726>
AnchorPoint: "Anchor-1" 395 668 basechar 0
AnchorPoint: "Anchor-0" 253 0 basechar 0
LayerCount: 2
Fore
SplineSet
158 0 m 1
 270 529 l 1
 57 529 l 1
 87 668 l 1
 673 668 l 1
 644 529 l 1
 430 529 l 1
 319 0 l 1
 158 0 l 1
EndSplineSet
EndChar

StartChar: U
Encoding: 85 85 35
Width: 679
GlyphClass: 2
Flags: W
HStem: -12 129<212.762 378.869> 648 20G<115.691 281 535.733 701>
VStem: 26 162<143.788 333.414> 120 161<507 668> 540 161<507 668>
DStem2: -25.6172 -12 136.146 -12 0.207912 0.978148<255.816 695.416> 395.146 -12 556.383 -12 0.207912 0.978148<176.965 695.257>
AnchorPoint: "Anchor-2" 376 0 basechar 0
AnchorPoint: "Anchor-1" 414 668 basechar 0
AnchorPoint: "Anchor-0" 287 0 basechar 0
LayerCount: 2
Fore
SplineSet
188 203.078202719 m 0xe8
 188 148.952803814 215.096077548 117 294.627497445 117 c 0
 384.02950933 117 432.178828509 157.376259693 457 279 c 1
 540 668 l 1
 701 668 l 1
 621 292 l 2
 570.921727735 56.6321203541 475.078110784 -12 273.549530102 -12 c 0
 184.082427918 -12 26 1.52635762602 26 186.780411159 c 0xe8
 26 219.984074752 31.0783212277 255.032165729 39 292 c 2
 120 668 l 1
 281 668 l 1xd8
 198 279 l 2
 192.589940936 250.597189912 188 225.354932936 188 203.078202719 c 0xe8
EndSplineSet
EndChar

StartChar: V
Encoding: 86 86 36
Width: 662
GlyphClass: 1
Flags: W
HStem: 0 21G<163.485 367.018> 648 20G<82 241.996 535.532 724>
VStem: 82 158<510 668>
DStem2: 240 668 82 668 0.124766 -0.992186<0 493.277> 289 177 356 0 0.482523 0.875883<0 554.067>
LayerCount: 2
Fore
SplineSet
166 0 m 1
 82 668 l 1
 240 668 l 1
 289 177 l 1
 546 668 l 1
 724 668 l 1
 356 0 l 1
 166 0 l 1
EndSplineSet
EndChar

StartChar: W
Encoding: 87 87 37
Width: 889
GlyphClass: 1
Flags: W
HStem: 0 21G<100.431 274.596 468 657.072> 648 20G<82 235 410.525 588 774.577 951>
VStem: 82 153<421.895 668> 468 120<205 470>
DStem2: 230 222 266 0 0.394863 0.91874<0 321.825>
AnchorPoint: "Anchor-1" 494 668 basechar 0
LayerCount: 2
Fore
SplineSet
101 0 m 1
 82 668 l 1
 235 668 l 1
 230 222 l 1
 419 668 l 1
 588 668 l 1
 588 205 l 1
 783 668 l 1
 951 668 l 1
 648 0 l 1
 468 0 l 1
 468 470 l 1
 266 0 l 1
 101 0 l 1
EndSplineSet
EndChar

StartChar: X
Encoding: 88 88 38
Width: 706
GlyphClass: 1
Flags: W
HStem: 0 21G<-60 169.286 438 621> 648 20G<115 296.052 539.571 768>
VStem: -60 211<0 211> 558 210<458 668>
DStem2: -60 0 151 0 0.679101 0.734045<143.29 427.827 650.302 910.026> 286 668 115 668 0.448284 -0.893891<0 213.768 434.954 669.741>
LayerCount: 2
Fore
SplineSet
-60 0 m 1
 270 356 l 1
 115 668 l 1
 286 668 l 1
 382 477 l 1
 558 668 l 1
 768 668 l 1
 456 331 l 1
 621 0 l 1
 448 0 l 1
 343 210 l 1
 151 0 l 1
 -60 0 l 1
EndSplineSet
EndChar

StartChar: Y
Encoding: 89 89 39
Width: 700
GlyphClass: 2
Flags: W
HStem: 0 21G<191 358.149> 648 20G<82 259.209 542.188 762>
VStem: 191 163<0 163> 558 204<464 668>
DStem2: 339 391 404 241 0.642476 0.766306<0 352.969>
AnchorPoint: "Anchor-1" 403 668 basechar 0
AnchorPoint: "Anchor-0" 297 0 basechar 0
LayerCount: 2
Fore
SplineSet
191 0 m 1
 242 241 l 1
 82 668 l 1
 253 668 l 1
 339 391 l 1
 558 668 l 1
 762 668 l 1
 404 241 l 1
 354 0 l 1
 191 0 l 1
EndSplineSet
EndChar

StartChar: Z
Encoding: 90 90 40
Width: 632
GlyphClass: 2
Flags: W
HStem: 0 139<221 530> 529 139<130 411>
DStem2: -12 121 221 139 0.719753 0.69423<180.199 587.701>
AnchorPoint: "Anchor-1" 407 668 basechar 0
AnchorPoint: "Anchor-0" 263 0 basechar 0
LayerCount: 2
Fore
SplineSet
-38 0 m 1
 -12 121 l 1
 411 529 l 1
 100 529 l 1
 130 668 l 1
 668 668 l 1
 642 547 l 1
 221 139 l 1
 560 139 l 1
 530 0 l 1
 -38 0 l 1
EndSplineSet
EndChar

StartChar: a
Encoding: 97 97 41
Width: 545
GlyphClass: 2
Flags: W
HStem: -12 103<93.5262 233.388> 0 21G<295.305 441> 407 103<201.698 333.418>
VStem: -18 161<102.624 180.554> 344 150<316.696 395.595>
AnchorPoint: "Anchor-2" 446 0 basechar 0
AnchorPoint: "Anchor-1" 298 496 basechar 0
AnchorPoint: "Anchor-0" 219 0 basechar 0
LayerCount: 2
Fore
SplineSet
143 140.366793758 m 0xb8
 143 108.421813267 171.185737583 91 210.391653098 91 c 0
 262.310752642 91 302.469416755 121.552338595 325 213 c 2
 328 225 l 1
 224.430253201 216.369187767 143 194.664416752 143 140.366793758 c 0xb8
292 59 m 1
 247.301270251 5.09859059653 198.346957981 -12 142.14084123 -12 c 0xb8
 44.9116542377 -12 -18 39.1665883185 -18 121.855859039 c 0
 -18 249.037913942 130.827935347 294.62241987 338 315 c 1
 342.198861331 330.745729993 344 343.072559874 344 354.063289837 c 0
 344 370.812467193 339.817065755 407 275.905856431 407 c 0
 247.232286506 407 194.134145066 399.716025142 170 348 c 1
 53 394 l 1
 85.4078611376 444.317468608 148.852452145 510 288.237493463 510 c 0
 430.431194497 510 494 441.643744844 494 361.979845158 c 0
 494 289.239145929 441 133.572482479 441 0 c 1
 297 0 l 1x78
 292 59 l 1
EndSplineSet
Substitution2: "Single Substitution lookup 12 subtable" ordfeminine
Substitution2: "'aalt' Access All Alternates lookup 0 subtable" ordfeminine
EndChar

StartChar: b
Encoding: 98 98 42
Width: 592
GlyphClass: 1
Flags: W
HStem: -12 117<207.106 326.373> 0 21G<-21 125.303> 392 118<286.545 413.242> 648 20G<116.749 276>
VStem: 121 155<513 668> 395 159<181.245 360.442>
DStem2: -23.5385 -12 131.775 -12 0.207912 0.978148<490.3 695.192>
AnchorPoint: "Anchor-0" 293 -12 basechar 0
AnchorPoint: "Anchor-1" 380 496 basechar 0
LayerCount: 2
Fore
SplineSet
175 215.163592289 m 0xbc
 175 189.270798355 180.519322349 105 261.730049519 105 c 0
 330.183645043 105 395 164.87462944 395 274.896627663 c 0
 395 330.68737678 378.333287914 392 308.071949891 392 c 0
 215.316100075 392 175 285.143810556 175 215.163592289 c 0xbc
554 299.815135778 m 0
 554 138.128189232 450.11849665 -12 295.881147921 -12 c 0xbc
 236.356878958 -12 184.768588461 10.3599735044 149 66 c 1
 115 0 l 1
 -21 0 l 1x7c
 121 668 l 1
 276 668 l 1
 227 436 l 1
 245.492032557 461.096329899 292.056387318 510 372.042727167 510 c 0
 454.441215109 510 554 458.102278707 554 299.815135778 c 0
EndSplineSet
EndChar

StartChar: c
Encoding: 99 99 43
Width: 531
GlyphClass: 2
Flags: W
HStem: -12 117<182.578 313.366> 392 118<233.185 360.831>
VStem: 2 154<131.443 299.361>
AnchorPoint: "Anchor-1" 318 496 basechar 0
AnchorPoint: "Anchor-0" 212 0 basechar 0
LayerCount: 2
Fore
SplineSet
464 107 m 1
 420.244506826 45.9246241117 345.424480787 -12 229.420636317 -12 c 0
 174.978273209 -12 2 0.758287810851 2 197.831921772 c 0
 2 368.971355332 132.447177912 510 316.960370971 510 c 0
 405.039227892 510 475.543561638 477.86370372 511 382 c 1
 378 336 l 1
 369.962745798 372.741733495 345.628086302 392 301.834275262 392 c 0
 189.480948146 392 156 265.245441336 156 199.878361671 c 0
 156 154.943756028 171.821273989 105 243.631976215 105 c 0
 277.461390165 105 310.928594208 116.083879654 341 154 c 1
 464 107 l 1
EndSplineSet
EndChar

StartChar: d
Encoding: 100 100 44
Width: 592
GlyphClass: 2
Flags: W
HStem: -12 117<134.567 271.375> 0 21G<337.413 488.333> 392 118<228.396 346.607> 648 20G<453.709 613>
VStem: 3 159<138.149 317.017> 458 155<513 668>
DStem2: 312.963 -12 471.719 -12 0.207912 0.978148<442.673 695.295>
AnchorPoint: "Anchor-1" 266 496 basechar 0
AnchorPoint: "Anchor-0" 187 -12 basechar 0
LayerCount: 2
Fore
SplineSet
162 220.851841614 m 0xbc
 162 184.819767499 170.876994701 105 249.590581958 105 c 0
 341.47305853 105 382 213.761811662 382 283.694405571 c 0
 382 312.44441229 375.150474989 392 291.773654978 392 c 0
 199.811153458 392 162 295.216441375 162 220.851841614 c 0xbc
334 63 m 1
 293.042675275 10.1518390652 242.17081459 -12 185.061336553 -12 c 0xbc
 84.0729219375 -12 3 57.2686166699 3 199.169006081 c 0
 3 361.084969777 108.557230994 510 257.5350219 510 c 0
 291.798413431 510 373.342210822 502.123084769 405 421 c 1
 458 668 l 1
 613 668 l 1
 611.772394938 662.578077643 516.427999707 228.853498139 498.160769909 112.399908168 c 0
 492.644630452 77.2345191327 488.666666667 36 488 0 c 1
 339 0 l 1x7c
 334 63 l 1
EndSplineSet
EndChar

StartChar: e
Encoding: 101 101 45
Width: 567
GlyphClass: 2
Flags: W
HStem: -12 118<179.653 337.937> 209 90<168 396> 399 111<228.364 367.623>
VStem: 3 149<133.631 260.676> 396 134<299 371.071>
AnchorPoint: "Anchor-2" 328 2 basechar 0
AnchorPoint: "Anchor-1" 321 496 basechar 0
AnchorPoint: "Anchor-0" 230 0 basechar 0
LayerCount: 2
Fore
SplineSet
396 310.480556102 m 0
 396 376.009605345 348.346234501 399 302.58070931 399 c 0
 247.31231054 399 186.611821863 365.470792369 168 299 c 1
 395 299 l 1
 395.666666667 301.666666667 396 305 396 310.480556102 c 0
472 98 m 1
 448.969619223 69.6137167172 376.03134636 -12 232.69949586 -12 c 0
 160.140944799 -12 3 8.9148591226 3 196.767867772 c 0
 3 355.832392843 115.667774527 510 302.525111993 510 c 0
 360.718593007 510 530 495.047235537 530 296.707538607 c 0
 530 267.374217018 526.297351747 238.189406988 519 209 c 1
 154 209 l 1
 152.341048377 199.046290262 152 193.147643803 152 188.245263058 c 0
 152 129.703123777 200.63389902 106 251.375296876 106 c 0
 264.877125634 106 323.678285804 107.678285804 358 142 c 1
 472 98 l 1
EndSplineSet
EndChar

StartChar: f
Encoding: 102 102 46
Width: 379
GlyphClass: 1
Flags: W
HStem: 0 21G<18 177.211> 380 116<43 99 278 360> 608 119<309.203 409>
VStem: 18 155<0 155>
DStem2: 18 0 173 0 0.207912 0.978148<32.2263 388.537 539.218 650.665>
AnchorPoint: "Anchor-1" 152 668 basechar 0
LayerCount: 2
Fore
SplineSet
18 0 m 1
 99 380 l 1
 19 380 l 1
 43 496 l 1
 124 496 l 1
 135 547 l 2
 166.461668285 688.577507283 198.251716779 727 366 727 c 2
 434 727 l 1
 409 608 l 1
 368 608 l 2
 306.859021946 608 301.107774783 599.484986525 285 527 c 2
 278 496 l 1
 385 496 l 1
 360 380 l 1
 253 380 l 1
 173 0 l 1
 18 0 l 1
EndSplineSet
EndChar

StartChar: g
Encoding: 103 103 47
Width: 594
GlyphClass: 2
Flags: W
HStem: -207 119<129.77 270.344> 17 114<147.963 271.689> 395 116<227.707 350.844> 476 20G<432.851 577>
VStem: 6 158<161.258 325.331>
AnchorPoint: "Anchor-1" 317 496 basechar 0
AnchorPoint: "Anchor-0" 191 -251 basechar 0
LayerCount: 2
Fore
SplineSet
164 237.184226987 m 0xe8
 164 200.401741415 174.10232944 131 251.089732475 131 c 0
 338.735626674 131 384 220.948552758 384 296.419612465 c 0
 384 357.789844503 354.069694717 395 294.598305939 395 c 0
 205.760633782 395 164 311.969115477 164 237.184226987 c 0xe8
257.722834287 511 m 0
 289.03581014 511 373.20374077 504.360545747 409 429 c 1
 443 496 l 1
 577 496 l 1xd8
 493.570881228 98.8773946463 493.570881228 98.8773946463 493.570855671 98.8772790581 c 0
 447.980094093 -107.317301716 388.024992279 -153.45560651 315.608327409 -182.172559821 c 0
 272.374063511 -199.317181711 232.899380945 -207 194.918468705 -207 c 0
 165.324778444 -207 83.4815224387 -202.335683346 23.1627539968 -150.499241716 c 0
 0.962233110633 -131.420669079 -14 -109.666666667 -22 -85 c 1
 112 -41 l 1
 121.402923679 -70.5520458485 157.283059496 -88 197.192383635 -88 c 0
 248.719058618 -88 305.751916904 -58.9156071701 319 6 c 2
 337 91 l 1
 313.456386465 62.8995580387 263.320354361 17 189.378118284 17 c 0
 106.54744323 17 6 74.5977801257 6 217.377872844 c 0
 6 362.243787862 109.506623136 511 257.722834287 511 c 0
EndSplineSet
EndChar

StartChar: h
Encoding: 104 104 48
Width: 580
GlyphClass: 1
Flags: W
HStem: 0 21G<-21 139.252 302 462.27> 392 118<292.699 431.205> 648 20G<116.749 272>
VStem: -21 156<0 156> 121 151<517 668> 302 156<0 156> 367 161<227.164 382.461>
DStem2: -21 0 135 0 0.207912 0.978148<32.4342 402.401 473.082 682.926> 302 0 458 0 0.207912 0.978148<32.4342 334.208>
AnchorPoint: "Anchor-1" 192 668 basechar 0
LayerCount: 2
Fore
SplineSet
367 328.695374121 m 0xe2
 367 378.129462211 343.849806365 392 309.496159912 392 c 0
 246.934954538 392 207 346 189 254 c 1
 135 0 l 1
 -21 0 l 1xf2
 121 668 l 1
 272 668 l 1
 222 432 l 1
 253.104512025 474.953849939 315.75599043 510 392.631520387 510 c 0
 469.778539305 510 528 474.705879135 528 366.50403432 c 0xea
 528 340.190231875 524.556651452 312.471926967 518 281 c 2
 458 0 l 1
 302 0 l 1xe4
 358 263 l 2
 364 289 367 310.899888641 367 328.695374121 c 0xe2
EndSplineSet
EndChar

StartChar: i
Encoding: 105 105 49
Width: 338
GlyphClass: 1
Flags: W
HStem: 0 21G<48 208.234> 380 116<51 129> 578 179<208.974 325.487>
VStem: 48 156<0 156> 177 179<609.067 726.365>
DStem2: 48 0 204 0 0.207912 0.978148<32.4342 388.537>
AnchorPoint: "Anchor-2" 204 0 basechar 0
LayerCount: 2
Fore
SplineSet
48 0 m 1xf0
 129 380 l 1
 26 380 l 1
 51 496 l 1
 309 496 l 1
 204 0 l 1
 48 0 l 1xf0
356 667.971706706 m 0xe8
 356 618.136768497 316.952634986 578 266.500131225 578 c 0
 215.990324469 578 177 618.227993432 177 667.952919202 c 0
 177 717.470472911 215.6657933 757 266.429567517 757 c 0
 316.994082098 757 356 717.780189062 356 667.971706706 c 0xe8
EndSplineSet
Substitution2: "Single Substitution lookup 4 subtable" dotlessi
Substitution2: "Single Substitution lookup 3 subtable" dotlessi
EndChar

StartChar: j
Encoding: 106 106 50
Width: 263
GlyphClass: 1
Flags: W
HStem: -162 120<-148 -26.0097> 476 20G<88.7549 249> 578 180<147.202 263.454>
VStem: 93 156<340 496> 116 180<610.559 727.381>
DStem2: -46.7239 -162 108.677 -162 0.207912 0.978148<127.728 672.671>
LayerCount: 2
Fore
SplineSet
-81.9057165948 -162 m 0xf0
 -111.307053587 -162 -143.352069023 -161.332518738 -174 -160 c 1
 -148 -42 l 1
 -87 -42 l 2
 -27.8078739601 -42 -18.0434435313 -27.204805219 -4 39 c 2
 93 496 l 1
 249 496 l 1
 148 23 l 2
 112.06284439 -145.62819171 63.7058472027 -162 -81.9057165948 -162 c 0xf0
296 668.472291218 m 0xe8
 296 618.039552779 255.839285527 578 206.057346298 578 c 0
 156.518106535 578 116 617.650098675 116 668.420931241 c 0
 116 719.009675531 156.227993432 758 206.096227636 758 c 0
 256.160056059 758 296 718.703218397 296 668.472291218 c 0xe8
EndSplineSet
EndChar

StartChar: k
Encoding: 107 107 51
Width: 562
GlyphClass: 2
Flags: W
HStem: 0 21G<-21 139.194 313.674 487> 476 20G<366.107 586> 648 20G<116.749 276>
VStem: 121 155<513 668> 388 198<298 496>
DStem2: -21 0 135 0 0.207912 0.978148<32.4342 159.13 366.426 682.926> 203 327 342 283 0.752467 0.65863<75.6132 250.515> 342 283 229 184 0.455997 -0.889981<36.5804 243.657>
AnchorPoint: "Anchor-1" 397 796 basechar 0
AnchorPoint: "Anchor-0" 218 0 basechar 0
LayerCount: 2
Fore
SplineSet
-21 0 m 1
 121 668 l 1
 276 668 l 1
 203 327 l 1
 388 496 l 1
 586 496 l 1
 342 283 l 1
 487 0 l 1
 324 0 l 1
 229 184 l 1
 161 124 l 1
 135 0 l 1
 -21 0 l 1
EndSplineSet
EndChar

StartChar: l
Encoding: 108 108 52
Width: 317
GlyphClass: 2
Flags: W
HStem: 0 124<173.976 244> 648 20G<116.758 277>
VStem: 4 168<58.9416 216.375> 121 156<512 668>
DStem2: -20.7579 0 135.638 0 0.207912 0.978148<196.356 682.876>
AnchorPoint: "Anchor-1" 198 668 basechar 0
AnchorPoint: "Anchor-0" 108 0 basechar 0
LayerCount: 2
Fore
SplineSet
172 159.161994327 m 0xe0
 172 136.307086368 184.481468217 124 227 124 c 2
 270 124 l 1
 244 0 l 1
 147 0 l 2
 67.8619800901 0 4 21.0901256866 4 96.7931703769 c 0xe0
 4 109.905693509 5.91596786785 123.037823273 9 140 c 2
 121 668 l 1
 277 668 l 1xd0
 179 204 l 2
 175.95975053 190.82558563 172 172.035017525 172 159.161994327 c 0xe0
EndSplineSet
EndChar

StartChar: m
Encoding: 109 109 53
Width: 895
GlyphClass: 1
Flags: W
HStem: 0 21G<-20 140.264 298 458.215 617 777.276> 392 118<296.012 355.626 599.402 738.485> 476 20G<80.7661 222.562>
VStem: -20 156<0 156> 298 156<0 156> 617 156<0 156> 684 161<234.93 385.119>
DStem2: -20 0 136 0 0.207912 0.978148<32.4342 401.237> 298 0 454 0 0.207912 0.978148<32.4342 338.786> 617 0 773 0 0.207912 0.978148<32.4342 344.007>
AnchorPoint: "Anchor-1" 514 496 basechar 0
LayerCount: 2
Fore
SplineSet
363 333.361768046 m 0xda
 363 378.165105801 343.250321782 392 309.737240755 392 c 0xda
 249.543619416 392 210.248454134 347.367822766 191 258 c 2
 136 0 l 1
 -20 0 l 1
 85 496 l 1
 221 496 l 1xba
 226 432 l 1
 258.266699924 471.281199907 310.574986594 510 392.098699383 510 c 0
 460.420483139 510 504.397985162 482.806044515 523 427 c 1
 574.751081287 490.251321573 638.422672507 510 700.257517755 510 c 0
 776.712675372 510 845 479.808474483 845 370.17526407 c 0xda
 845 345.906075508 841.65368865 319.276230058 835 290 c 2
 773 0 l 1
 617 0 l 1xdc
 673 263 l 2
 680.58705273 297.900442558 684 321.363782841 684 338.247725055 c 0
 684 374.509177862 668.257552114 392 629.251480998 392 c 0
 567.620069108 392 527.666666667 348.333333333 509 261 c 2
 454 0 l 1
 298 0 l 1
 354 263 l 2
 360 292.333333333 363 315.899888641 363 333.361768046 c 0xda
EndSplineSet
EndChar

StartChar: n
Encoding: 110 110 54
Width: 579
GlyphClass: 2
Flags: W
HStem: 0 21G<-20 140.252 303 463.27> 392 118<297.124 431.495> 476 20G<80.7661 222.562>
VStem: -20 156<0 156> 303 156<0 156> 368 161<227.164 382.38>
DStem2: -20 0 136 0 0.207912 0.978148<32.4342 400.101> 303 0 459 0 0.207912 0.978148<32.4342 334.195>
AnchorPoint: "Anchor-1" 344 496 basechar 0
AnchorPoint: "Anchor-0" 218 0 basechar 0
LayerCount: 2
Fore
SplineSet
368 328.68219719 m 0xd4
 368 377.460037561 345.426957059 392 310.879946436 392 c 0xd4
 249.431947147 392 209.333333333 346 190 254 c 2
 136 0 l 1
 -20 0 l 1
 85 496 l 1
 221 496 l 1xb4
 226 432 l 1
 237.428288342 447.781921996 288.985294539 510 392.652286905 510 c 0
 470.337453191 510 529 475.060893633 529 366.494648267 c 0xd4
 529 340.193223685 525.557057094 312.47387405 519 281 c 2
 459 0 l 1
 303 0 l 1xd8
 359 263 l 2
 365 289 368 310.899888641 368 328.68219719 c 0xd4
EndSplineSet
EndChar

StartChar: o
Encoding: 111 111 55
Width: 576
GlyphClass: 2
Flags: W
HStem: -13 118<184.538 311.279> 392 118<226.006 354.372>
VStem: 5 154<132.731 311.055> 381 155<185.401 366.075>
AnchorPoint: "Anchor-2" 467 10 basechar 0
AnchorPoint: "Anchor-1" 317 496 basechar 0
AnchorPoint: "Anchor-0" 235 0 basechar 0
LayerCount: 2
Fore
SplineSet
159 206.059245794 m 0
 159 118.347766828 207.526292345 105 243.938507696 105 c 0
 348.302992292 105 381 214.652836767 381 289.332779621 c 0
 381 360.56859101 351.249326178 392 295.079036402 392 c 0
 183.929906511 392 159 268.927037244 159 206.059245794 c 0
536 289.904786663 m 0
 536 134.656978146 433.435116762 -13 242.444502365 -13 c 0
 119.469938057 -13 5 48.2153743506 5 209.991938785 c 0
 5 369.219279837 115.890800081 510 297.334782874 510 c 0
 361.833274371 510 536 492.210769737 536 289.904786663 c 0
EndSplineSet
Substitution2: "Single Substitution lookup 12 subtable" ordmasculine
Substitution2: "'aalt' Access All Alternates lookup 0 subtable" ordmasculine
EndChar

StartChar: p
Encoding: 112 112 56
Width: 590
GlyphClass: 1
Flags: W
HStem: -161 21G<-55 105.242> -13 118<207.778 328.028> 392 118<288.565 423.48> 476 20G<80.7382 220.765>
VStem: -55 156<-161 -5> 394 158<180.938 361.238>
DStem2: -55 -161 101 -161 0.207912 0.978148<32.4342 268.574>
AnchorPoint: "Anchor-1" 373 496 basechar 0
LayerCount: 2
Fore
SplineSet
174 214.749317878 m 0xec
 174 177.7390079 183.895656143 105 263.113435584 105 c 0
 348.866808637 105 394 190.236276162 394 279.801593467 c 0
 394 316.939668962 386.240118391 392 307.914958324 392 c 0
 217.778112734 392 174 292.593998685 174 214.749317878 c 0xec
293.484679963 -13 m 0
 235.665121463 -13 183.8547775 9.34352364655 150 70 c 1
 101 -161 l 1
 -55 -161 l 1
 85 496 l 1
 219 496 l 1xdc
 225 428 l 1
 258.864422467 485.309022637 319.365266078 510 376.026572171 510 c 0
 470.932655113 510 552 440.728719267 552 298.872519993 c 0
 552 133.151150052 441.361484652 -13 293.484679963 -13 c 0
EndSplineSet
EndChar

StartChar: q
Encoding: 113 113 57
Width: 601
GlyphClass: 1
Flags: W
HStem: -173 139<429.307 579.713> -12 118<129.564 269.671> 393 117<224.847 347.102> 476 20G<429.565 575>
VStem: 308 165<-99.6212 54.0504>
LayerCount: 2
Fore
SplineSet
247.570976063 106 m 0xe8
 371.302854063 106 413.72822784 304.028132323 353.626709435 368.665614381 c 0
 338.829819117 384.579251138 317.267578873 393 289.228569636 393 c 0
 150.078719633 393 137.762622811 185.608538127 189.678431672 128.39519775 c 0
 202.778281474 113.95862858 222.766087659 106 247.570976063 106 c 0xe8
326 56 m 1
 306.072158265 31.8019064644 261.429376052 -12 182.274830579 -12 c 0
 76.8540646213 -12 4 65.6950998837 4 200.219227407 c 0
 4 363.838128506 111.775578227 510 259.6687666 510 c 0xe8
 307.654626576 510 369.442432098 494.612632852 404 427 c 1
 440 496 l 1
 575 496 l 1xd8
 574.01535273 491.333628156 477.948547301 41.7015743463 474.540868619 21.937037989 c 0
 473.948777016 18.5029066911 473 9.75292125927 473 2.82540562332 c 0
 473 -21.7101852886 484.901512847 -34 520.473629369 -34 c 0
 541.596264026 -34 570.666666667 -29.6666666667 608 -21 c 1
 580 -151 l 1
 568.449735161 -155.81261035 523.071299179 -173 462.419365249 -173 c 0
 396.193909552 -173 308 -152.508652083 308 -46.7338034631 c 0
 308 -30.5864364712 310.055309368 -14.984293465 314.165928104 1.04711960428 c 0
 316.721976035 11.015706535 320.666666667 29.3333333333 326 56 c 1
EndSplineSet
EndChar

StartChar: r
Encoding: 114 114 58
Width: 391
GlyphClass: 2
Flags: W
HStem: 0 21G<-20 140.242> 361 149<289.289 371.859> 476 20G<80.7661 209.609>
VStem: -20 156<0 156>
DStem2: -20 0 136 0 0.207912 0.978148<32.4342 369.452>
AnchorPoint: "Anchor-1" 249 496 basechar 0
AnchorPoint: "Anchor-0" 57 0 basechar 0
LayerCount: 2
Fore
SplineSet
215 409 m 1xb0
 249.869824048 470.692765624 292.155376015 508.694698093 377 510 c 1
 403 510 l 1
 371 358 l 1
 354.333333333 360 339.434866401 361 326.665062615 361 c 0xd0
 239.285794242 361 202.440584577 314.178172599 185 231 c 2
 136 0 l 1
 -20 0 l 1
 85 496 l 1
 208 496 l 1
 215 409 l 1xb0
EndSplineSet
EndChar

StartChar: s
Encoding: 115 115 59
Width: 515
GlyphClass: 2
Flags: W
HStem: -13 109<151.333 293.699> 399 111<178.72 322.684>
VStem: 30 144<332.732 389.688> 306 148<110.257 168.371>
AnchorPoint: "Anchor-1" 274 496 basechar 0
AnchorPoint: "Anchor-0" 215 0 basechar 0
LayerCount: 2
Fore
SplineSet
454 155.135424516 m 0
 454 54.322594989 367.290132828 -13 222.392735599 -13 c 0
 58.7878095573 -13 9.62332750658 72.8286794855 -10 116 c 1
 120 160 l 1
 130.683191536 114.596435972 179.017094714 96 223.8872954 96 c 0
 266.781988235 96 306 112.994986334 306 139.681262739 c 0
 306 210.475797935 30 179.745179209 30 349.93780777 c 0
 30 449.939685788 125.289248627 510 251.16449744 510 c 0
 326.337296916 510 420.995409016 488.579561172 471 400 c 1
 339 355 l 1
 329.405453322 379.945821362 303.074801841 399 249.52091854 399 c 0
 232.172552543 399 174 397.0004814 174 361.638707979 c 0
 174 332.871276056 212.499246922 319.398637536 284.822818704 300.187688781 c 0
 377.316806724 275.618973213 454 249.940510987 454 155.135424516 c 0
EndSplineSet
EndChar

StartChar: t
Encoding: 116 116 60
Width: 391
GlyphClass: 2
Flags: W
HStem: 0 124<219.29 289> 380 116<53 106 286 370>
VStem: 50 167<53.2748 218.477>
DStem2: 25.1165 0 180.426 0 0.207912 0.978148<197.151 388.513 539.402 633.872>
AnchorPoint: "Anchor-1" 230 620 basechar 0
AnchorPoint: "Anchor-0" 143 0 basechar 0
LayerCount: 2
Fore
SplineSet
217 160.160768977 m 0
 217 137.251306202 229.538738853 124 272 124 c 2
 315 124 l 1
 289 0 l 1
 193 0 l 2
 133.406951878 0 50 11.5075682087 50 95.0421128138 c 0
 50 109.013945521 52.3333333333 127.333333333 57 150 c 2
 106 380 l 1
 28 380 l 1
 53 496 l 1
 131 496 l 1
 157 620 l 1
 312 620 l 1
 286 496 l 1
 394 496 l 1
 370 380 l 1
 261 380 l 1
 224 205 l 2
 220.95975053 191.82558563 217 173.035017525 217 160.160768977 c 0
EndSplineSet
EndChar

StartChar: u
Encoding: 117 117 61
Width: 578
GlyphClass: 2
Flags: W
HStem: -12 118<135.563 254.754> 0 21G<319.438 460.234> 476 20G<81.7246 241 401.725 561>
VStem: 17 162<117.956 275.922> 86 155<341 496> 406 155<341 496>
DStem2: -22.3131 -12 133.499 -12 0.207912 0.978148<225.007 519.419> 297.711 -12 453.449 -12 0.207912 0.978148<152.145 519.414>
AnchorPoint: "Anchor-2" 456 0 basechar 0
AnchorPoint: "Anchor-1" 322 496 basechar 0
AnchorPoint: "Anchor-0" 236 0 basechar 0
LayerCount: 2
Fore
SplineSet
316 64 m 1x74
 300.179942552 38.3865736563 256.627411539 -12 152.505150123 -12 c 0
 118.621127452 -12 17 -6.66397850556 17 133.139113425 c 0xb4
 17 158.543813181 20.3556649299 185.117240882 27 220 c 2
 86 496 l 1
 241 496 l 1xac
 186 235 l 2
 183.072811761 220.364058807 179 195.695315646 179 174.234561913 c 0
 179 115.323503795 209.690081577 106 232.459397655 106 c 0xb4
 255.21401422 106 325.564126066 115.311469465 350 234 c 2
 406 496 l 1
 561 496 l 1
 456 0 l 1
 321 0 l 1
 316 64 l 1x74
EndSplineSet
EndChar

StartChar: v
Encoding: 118 118 62
Width: 533
GlyphClass: 1
Flags: W
HStem: 0 21G<104.097 296.411> 476 20G<35 187.947 387.44 568>
VStem: 35 151<345 496>
DStem2: 219 157 285 0 0.495573 0.868566<0 383.152>
LayerCount: 2
Fore
SplineSet
107 0 m 1
 35 496 l 1
 186 496 l 1
 219 157 l 1
 398 496 l 1
 568 496 l 1
 285 0 l 1
 107 0 l 1
EndSplineSet
EndChar

StartChar: w
Encoding: 119 119 63
Width: 727
GlyphClass: 1
Flags: W
HStem: 0 21G<53.2339 222.315 359 542.234> 476 20G<35 181.249 305.025 463 595.157 762>
VStem: 35 146<313.263 496> 359 96<159 356> 362 101<201.125 356>
DStem2: 185 175 214 0 0.383879 0.923384<0 235.079> 455 159 533 0 0.419174 0.907906<0 368.421>
LayerCount: 2
Fore
SplineSet
54 0 m 1xe8
 35 496 l 1
 181 496 l 1
 185 175 l 1
 313 496 l 1
 463 496 l 1xe8
 455 159 l 1
 604 496 l 1
 762 496 l 1
 533 0 l 1
 359 0 l 1xf0
 362 356 l 1
 214 0 l 1
 54 0 l 1xe8
EndSplineSet
EndChar

StartChar: x
Encoding: 120 120 64
Width: 536
GlyphClass: 1
Flags: W
HStem: 0 21G<-71 131.298 302.929 464> 476 20G<66 226 368.5 571>
VStem: -71 184<0 184>
DStem2: -71 0 113 0 0.678403 0.73469<124.826 315.931 511.649 675.115> 216 496 66 496 0.447214 -0.894427<0 134.164 329.149 487.016>
LayerCount: 2
Fore
SplineSet
-71 0 m 1
 179 270 l 1
 66 496 l 1
 216 496 l 1
 276 376 l 1
 387 496 l 1
 571 496 l 1
 340 246 l 1
 464 0 l 1
 313 0 l 1
 242 141 l 1
 113 0 l 1
 -71 0 l 1
EndSplineSet
EndChar

StartChar: y
Encoding: 121 121 65
Width: 527
GlyphClass: 2
Flags: W
HStem: -161 110<-21 101.629> 476 20G<35 191.899 375.494 562>
AnchorPoint: "Anchor-1" 302 496 basechar 0
AnchorPoint: "Anchor-0" 211 0 basechar 0
LayerCount: 2
Fore
SplineSet
-44 -161 m 1
 -21 -51 l 1
 10 -51 l 2
 90.0919459823 -51 101.542832194 -41.0762431454 121 0 c 1
 35 496 l 1
 190 496 l 1
 220 180 l 1
 386 496 l 1
 562 496 l 1
 266 0 l 2
 178.028184312 -149.28550541 155.877942114 -161 5 -161 c 2
 -44 -161 l 1
EndSplineSet
EndChar

StartChar: z
Encoding: 122 122 66
Width: 528
GlyphClass: 2
Flags: W
HStem: 0 121<203 437> 375 121<91 296>
DStem2: -14 121 203 121 0.773512 0.633781<167.852 400.769>
AnchorPoint: "Anchor-1" 317 496 basechar 0
AnchorPoint: "Anchor-0" 211 0 basechar 0
LayerCount: 2
Fore
SplineSet
-40 0 m 1
 -14 121 l 1
 296 375 l 1
 65 375 l 1
 91 496 l 1
 539 496 l 1
 513 375 l 1
 203 121 l 1
 462 121 l 1
 437 0 l 1
 -40 0 l 1
EndSplineSet
EndChar

StartChar: circumflex
Encoding: 258 710 67
Width: 480
GlyphClass: 1
Flags: W
HStem: 574 152
LayerCount: 2
Fore
SplineSet
89 574 m 1
 278 711 l 2
 291.333333333 721 306.293341789 726 322.880025367 726 c 0
 344.293341789 726 362.333333333 717.666666667 377 701 c 2
 495 574 l 1
 379 574 l 1
 320 635 l 1
 236 574 l 1
 89 574 l 1
EndSplineSet
EndChar

StartChar: caron
Encoding: 259 711 68
Width: 476
GlyphClass: 1
Flags: W
HStem: 568 152
LayerCount: 2
Fore
SplineSet
288.119974633 568 m 0
 266.706658211 568 248.666666667 576.333333333 234 593 c 2
 120 720 l 1
 235 720 l 1
 291 659 l 1
 375 720 l 1
 522 720 l 1
 332 583 l 2
 319.333333333 573 304.706658211 568 288.119974633 568 c 0
EndSplineSet
EndChar

StartChar: breve
Encoding: 260 728 69
Width: 385
GlyphClass: 1
Flags: W
HStem: 577 74<237.554 331.447>
VStem: 136 299
LayerCount: 2
Fore
SplineSet
435 688 m 1
 416.172780598 626.139136249 360.326387744 577 284.655076658 577 c 0
 267.129047251 577 147.057559278 579.635919077 136 688 c 1
 229 688 l 1
 234.154410384 667.382358462 255.122068363 651 282.849638912 651 c 0
 309.843627963 651 332.947616531 666.526977417 341 688 c 1
 435 688 l 1
EndSplineSet
EndChar

StartChar: dotaccent
Encoding: 261 729 70
Width: 204
GlyphClass: 1
Flags: W
HStem: 578 141<119.853 219.642>
VStem: 99 141<598.35 698.141>
LayerCount: 2
Fore
SplineSet
240 647.994906798 m 0
 240 608.935586331 209.047135717 578 169.991185169 578 c 0
 130.944491076 578 99 608.920924291 99 647.99521175 c 0
 99 687.057091539 130.924206954 719 169.989103373 719 c 0
 209.061163153 719 240 687.045375674 240 647.994906798 c 0
EndSplineSet
EndChar

StartChar: ring
Encoding: 262 730 71
Width: 301
GlyphClass: 1
Flags: W
HStem: 535 86<182.566 260.601> 715 85<182.804 261.481>
VStem: 90 85<628.727 707.613> 269 86<629.049 706.647>
LayerCount: 2
Fore
SplineSet
175 668.450696181 m 0
 175 642.25679504 196.232216144 621 222.428520856 621 c 0
 248.423508927 621 269 641.931336666 269 668.517418686 c 0
 269 695.123241017 248.392941268 715 222.374405819 715 c 0
 195.919566308 715 175 694.451026122 175 668.450696181 c 0
355 668.680620446 m 0
 355 596.921105817 297.595312474 535 222.534900845 535 c 0
 148.094851949 535 90 595.901798714 90 668.040035631 c 0
 90 741.47599185 150.203828531 800 222.111441776 800 c 0
 292.8662257 800 355 743.337473867 355 668.680620446 c 0
EndSplineSet
EndChar

StartChar: ogonek
Encoding: 263 731 72
Width: 296
GlyphClass: 1
Flags: W
HStem: -173 76<59.9807 154.949> -20 20G<13.3352 183>
VStem: -52 128<-134.211 -45.3194>
LayerCount: 2
Fore
SplineSet
76 -75.2854734415 m 0
 76 -94.2080575 103.626237851 -97 116.814195246 -97 c 0
 136.696595949 -97 160.710436184 -90.6541610904 170 -88 c 1
 154 -164 l 2
 153.170367581 -164.191453635 112.704117557 -173 73.574476051 -173 c 0
 46.3868593325 -173 -52 -168.747593395 -52 -99.6738888349 c 0
 -52 -55.8130415012 -12.3296862919 -13.5078121821 39 0 c 1
 183 0 l 1
 124.2783572 -27.2124686145 76 -50.2707438994 76 -75.2854734415 c 0
EndSplineSet
EndChar

StartChar: quoteleft
Encoding: 264 8216 73
Width: 281
GlyphClass: 1
Flags: W
HStem: 340 328<193 202.615>
VStem: 67 194<376.317 498.946> 193 99<569 668>
DStem2: 81 488 203 526 0.528302 0.849057<96.717 212>
LayerCount: 2
Fore
SplineSet
261 438.611903822 m 0xc0
 261 380.80823 215.95582738 340 162.461083696 340 c 0
 106.0385458 340 67 385.397377993 67 437.551624565 c 0xc0
 67 455.583722215 71.6666666667 472.666666667 81 488 c 2
 193 668 l 1
 292 668 l 1xa0
 203 526 l 1
 213.169705783 521.697432169 261 498.176425803 261 438.611903822 c 0xc0
EndSplineSet
EndChar

StartChar: quoteright
Encoding: 265 8217 74
Width: 282
GlyphClass: 1
Flags: W
HStem: 351 329<155.244 165>
VStem: 66 99<351 450> 97 196<522.562 643.88>
DStem2: 66 351 165 351 0.53169 0.846939<52.6373 167.586>
LayerCount: 2
Fore
SplineSet
195.054573123 680 m 0xa0
 251.263398631 680 293 633.57148877 293 586.975974858 c 0xa0
 293 581.650040779 292.454718903 553.714558275 278 531 c 2
 165 351 l 1
 66 351 l 1xc0
 155 493 l 1
 124.441629486 507.668017847 97 539.548959451 97 583.064560484 c 0
 97 638.889922778 142.163025099 680 195.054573123 680 c 0xa0
EndSplineSet
EndChar

StartChar: quotesinglbase
Encoding: 266 8218 75
Width: 282
GlyphClass: 1
Flags: W
HStem: -145 329<49.2352 59>
VStem: -40 99<-145 -46> -9 196<26.5625 146.393>
DStem2: -40 -145 59 -145 0.53169 0.846939<52.6373 167.586>
LayerCount: 2
Fore
SplineSet
89.3095462011 184 m 0xa0
 145.16492393 184 187 137.590813047 187 90.9722602792 c 0xa0
 187 85.6533170711 186.455404943 57.7156363387 172 35 c 2
 59 -145 l 1
 -40 -145 l 1xc0
 49 -3 l 1
 38.5375292083 2.02198598001 -9 28.1209288373 -9 85.6566247444 c 0
 -9 141.57805432 35.9074499905 184 89.3095462011 184 c 0xa0
EndSplineSet
EndChar

StartChar: quotedblleft
Encoding: 267 8220 76
Width: 505
GlyphClass: 1
Flags: W
HStem: 340 328<193 202.518 417 426.927>
VStem: 67 194<376.318 498.946> 193 99<569 668> 291 194<376.081 496.438> 417 99<569 668>
DStem2: 92 506 203 526 0.529057 0.848586<75.697 190.906> 305 488 427 526 0.528302 0.849057<96.717 212>
LayerCount: 2
Fore
SplineSet
485 437.06487731 m 0x90
 485 380.032729561 440.027138607 340 387.171433293 340 c 0
 335.750560627 340 291 377.888755739 291 434.602006245 c 0x90
 291 445.366267967 292.612121978 468.533334537 305 488 c 2
 417 668 l 1
 516 668 l 1x88
 427 526 l 1
 436.776822325 521.487620465 485 496.122012931 485 437.06487731 c 0x90
261 438.608701986 m 0xc0
 261 380.812690312 215.972609165 340 162.198043206 340 c 0
 108.239245309 340 67 381.092818323 67 436.671920276 c 0xc0
 67 458.487155505 73.3534184398 475.366330294 92 506 c 2
 193 668 l 1
 292 668 l 1xa0
 203 526 l 1
 213.169705783 521.697432169 261 498.176425803 261 438.608701986 c 0xc0
EndSplineSet
EndChar

StartChar: quotedblright
Encoding: 268 8221 77
Width: 505
GlyphClass: 1
Flags: W
HStem: 350 328<155.214 165 379.671 389>
VStem: 66 99<350 449> 97 194<521.562 641.766> 290 99<350 449> 321 194<520.275 641.93>
DStem2: 66 350 165 350 0.528302 0.849057<52.3019 167.585> 290 350 389 350 0.529057 0.848586<52.3766 167.585>
LayerCount: 2
Fore
SplineSet
194.968991028 678 m 0xa0
 247.013044148 678 291 639.202388321 291 584.534302092 c 0xa0
 291 575.776042458 289.871005576 550.225865906 277 530 c 2
 165 350 l 1
 66 350 l 1xc0
 155 492 l 1
 145.223177675 496.512379535 97 521.877987069 97 580.923614297 c 0
 97 638.070091003 142.170954065 678 194.968991028 678 c 0xa0
419.693768663 678 m 0
 473.93656967 678 515 636.881231463 515 581.344488467 c 0x88
 515 559.52553408 508.661853372 542.658759111 490 512 c 2
 389 350 l 1
 290 350 l 1x90
 379 492 l 1
 347.081352943 505.504042986 321 538.444798193 321 581.563361251 c 0x88
 321 638.557401283 366.568049946 678 419.693768663 678 c 0
EndSplineSet
EndChar

StartChar: dagger
Encoding: 270 8224 79
Width: 594
GlyphClass: 1
Flags: W
HStem: 1 21G<155 304.222> 380 116<77 236 405 564> 648 20G<292.698 442>
VStem: 155 145<1 146> 297 145<523 668>
DStem2: 155 1 300 1 0.207912 0.978148<30.1472 387.559 536.161 681.948>
LayerCount: 2
Fore
SplineSet
155 1 m 1xf0
 236 380 l 1
 52 380 l 1
 77 496 l 1
 260 496 l 1
 297 668 l 1
 442 668 l 1xe8
 405 496 l 1
 588 496 l 1
 564 380 l 1
 380 380 l 1
 300 1 l 1
 155 1 l 1xf0
EndSplineSet
EndChar

StartChar: daggerdbl
Encoding: 271 8225 80
Width: 595
GlyphClass: 1
Flags: W
HStem: 1 21G<155 305.07> 173 115<33 192 361 520> 380 116<77 236 405 564> 648 20G<292.698 442>
VStem: 155 146<1 147> 297 145<523 668>
DStem2: 155 1 301 1 0.207912 0.978148<30.3551 175.934 323.558 387.559 536.161 681.948>
LayerCount: 2
Fore
SplineSet
155 1 m 1xf8
 192 173 l 1
 8 173 l 1
 33 288 l 1
 216 288 l 1
 236 380 l 1
 52 380 l 1
 77 496 l 1
 260 496 l 1
 297 668 l 1
 442 668 l 1xf4
 405 496 l 1
 589 496 l 1
 564 380 l 1
 381 380 l 1
 361 288 l 1
 544 288 l 1
 520 173 l 1
 336 173 l 1
 301 1 l 1
 155 1 l 1xf8
EndSplineSet
EndChar

StartChar: bullet
Encoding: 272 8226 81
Width: 446
GlyphClass: 1
Flags: W
HStem: 88 332<126.938 287.387>
VStem: 41 332<173.018 333.57>
LayerCount: 2
Fore
SplineSet
373 254.805152921 m 0
 373 165.474002727 301.510253539 88 207.021909242 88 c 0
 113.190410728 88 41 164.400609092 41 254.085677802 c 0
 41 343.923384186 113.436345828 420 206.558952056 420 c 0
 298.344035745 420 373 346.093070868 373 254.805152921 c 0
EndSplineSet
EndChar

StartChar: ellipsis
Encoding: 273 8230 82
Width: 807
GlyphClass: 1
Flags: W
HStem: -12 196<28.7487 149.015 291.555 411.991 554.77 675.583>
VStem: -9 195<25.6137 146.847> 255 194<25.6081 148.647> 517 195<25.5929 146.808>
LayerCount: 2
Fore
SplineSet
449 86.432766736 m 0
 449 31.9431446505 406.012498619 -12 351.574381524 -12 c 0
 297.301830417 -12 255 31.6762571501 255 86.4038232082 c 0
 255 140.697681105 296.63401516 184 351.498729117 184 c 0
 406.361501944 184 449 140.700745149 449 86.432766736 c 0
186 86.4512377602 m 0
 186 31.9480621973 142.853532717 -12 89.0463112824 -12 c 0
 35.452105686 -12 -9 31.600781579 -9 86.4208048216 c 0
 -9 141.064572142 35.1667226797 184 89.0829046328 184 c 0
 143.209170339 184 186 140.729325516 186 86.4512377602 c 0
712 86.4184541326 m 0
 712 31.9138081538 669.973526254 -12 615.537312319 -12 c 0
 561.277511417 -12 517 31.6296438228 517 86.3694218475 c 0
 517 140.724044064 560.656619436 184 615.500954514 184 c 0
 670.391178513 184 712 140.651594731 712 86.4184541326 c 0
EndSplineSet
EndChar

StartChar: perthousand
Encoding: 274 8240 83
Width: 1472
GlyphClass: 1
Flags: W
HStem: -12 119<731.145 838.036 1160.15 1267.04> 0 21G<226 366.012> 263 119<741.762 848.608 1170.76 1277.61> 286 119<193.528 303.283> 561 119<205.933 315.059> 648 20G<679.018 820>
VStem: 56 119<424.358 528.178> 226 126<0 126> 334 119<437.196 541.507> 592 119<126.959 230.902> 693 127<541 668> 869 119<138.737 242.922> 1021 119<126.959 230.902> 1298 119<138.737 242.922>
DStem2: 226 0 352 0 0.573791 0.819001<72.2977 815.054>
LayerCount: 2
Fore
SplineSet
1140 176.745326755 m 0xa21c
 1140 136.639719824 1169.45230348 107 1210.55531165 107 c 0
 1257.07279408 107 1298 144.962891523 1298 192.299386001 c 0
 1298 232.523811925 1268.44713295 263 1227.38890432 263 c 0
 1180.9709319 263 1140 224.047749024 1140 176.745326755 c 0xa21c
711 176.745326755 m 0xa25c
 711 136.639719827 740.452303484 107 781.555311648 107 c 0
 828.072794074 107 869 144.962891522 869 192.299386007 c 0
 869 232.523811934 839.447132952 263 798.388904325 263 c 0
 751.970931905 263 711 224.047749023 711 176.745326755 c 0xa25c
1417 204.974066631 m 0
 1417 86.8587067938 1315.17156897 -12 1198.46439412 -12 c 0
 1096.56614298 -12 1021 63.3621488791 1021 165.030771975 c 0
 1021 282.696139453 1122.21635252 382 1239.18547701 382 c 0
 1340.68323008 382 1417 307.228428227 1417 204.974066631 c 0
988 204.974066635 m 0
 988 86.8587067955 886.17156897 -12 769.464394122 -12 c 0
 667.566142981 -12 592 63.3621488802 592 165.030771972 c 0
 592 282.696139446 693.21635252 382 810.185477019 382 c 0
 911.683230079 382 988 307.22842823 988 204.974066635 c 0
175 474.10295983 m 0
 175 433.615352668 205.507687048 405 246.100700403 405 c 0
 293.929982867 405 334 444.726860985 334 490.961036277 c 0
 334 531.149823274 303.72367949 561 262.947202748 561 c 0x1a9c
 215.649098933 561 175 520.838033399 175 474.10295983 c 0
226 0 m 1x473c
 693 668 l 1
 820 668 l 1
 352 0 l 1
 226 0 l 1x473c
453 503.23689371 m 0x1a9c
 453 384.723608277 351.070571283 286 234.976075318 286 c 0
 134.500284552 286 56 359.947011177 56 462.507444639 c 0
 56 579.16161346 157.557514349 680 274.681500749 680 c 0
 373.89801892 680 453 607.639399632 453 503.23689371 c 0x1a9c
EndSplineSet
EndChar

StartChar: guilsinglleft
Encoding: 275 8249 84
Width: 401
GlyphClass: 1
Flags: W
VStem: 217 171<289 460>
DStem2: 24 250 191 244 0.673864 0.738856<108.102 285.215>
LayerCount: 2
Fore
SplineSet
127 40 m 1
 24 250 l 1
 217 460 l 1
 388 460 l 1
 191 244 l 1
 291 40 l 1
 127 40 l 1
EndSplineSet
EndChar

StartChar: guilsinglright
Encoding: 276 8250 85
Width: 402
GlyphClass: 1
Flags: W
VStem: -20 171<40 211>
DStem2: -20 40 151 40 0.673864 0.738856<115.231 292.344>
LayerCount: 2
Fore
SplineSet
-20 40 m 1
 177 256 l 1
 77 460 l 1
 241 460 l 1
 344 250 l 1
 151 40 l 1
 -20 40 l 1
EndSplineSet
EndChar

StartChar: fraction
Encoding: 277 8260 86
Width: 482
GlyphClass: 1
Flags: W
HStem: 0 21G<-55 85.982> 648 20G<398.988 539>
VStem: -55 127<0 127> 413 126<542 668>
DStem2: -55 0 72 0 0.573791 0.819001<72.8715 815.627>
LayerCount: 2
Fore
SplineSet
-55 0 m 1
 413 668 l 1
 539 668 l 1
 72 0 l 1
 -55 0 l 1
EndSplineSet
EndChar

StartChar: ordfeminine
Encoding: 170 170 87
Width: 395
GlyphClass: 1
Flags: W
HStem: 403 61<192.757 259.845> 625 67<188.432 291.897>
VStem: 86 106.456<465.731 514.991> 272 86<403 435>
LayerCount: 2
Fore
SplineSet
223.343225059 464 m 0
 244.492130119 464 267.688385961 478.074466152 277 510 c 2
 282 528 l 1
 256 525 l 2
 211.827893057 519.300373298 193.141041848 509.949171748 192.456497807 490.781938608 c 0
 191.85954606 474.067289676 205.456608181 464 223.343225059 464 c 0
270 435 m 1
 256.82446317 419.942243623 227.941668689 396 179.687699386 396 c 0
 155.535831547 396 86 401.9979136 86 475.648058636 c 0
 86 541.736721787 141.990632524 561.455752691 216.158993134 574.869179609 c 0
 226.478505208 576.735474346 241.836740409 579.327316201 254.947298354 580.840072887 c 0
 294 585.346153846 294 592.619508704 294 592.619508704 c 0
 294 617.995604154 275.522698651 625 256.640175917 625 c 0
 245.603886159 625 217.117394007 622.607252683 207 599 c 1
 127 631 l 1
 148.326862989 662.482512032 184.664857133 692 263.126511404 692 c 0
 331.289710772 692 388 669.722604904 388 596.394029236 c 0
 388 556.257595297 371.010017542 526.595166646 358 403 c 1
 272 403 l 1
 270 435 l 1
EndSplineSet
EndChar

StartChar: guillemotleft
Encoding: 171 171 88
Width: 665
GlyphClass: 1
Flags: W
VStem: 229 171<289 460> 469 171<289 460>
DStem2: 36 250 203 244 0.673864 0.738856<108.102 285.215> 276 250 443 244 0.673864 0.738856<108.102 285.215>
LayerCount: 2
Fore
SplineSet
139 40 m 1
 36 250 l 1
 229 460 l 1
 400 460 l 1
 203 244 l 1
 303 40 l 1
 139 40 l 1
379 40 m 1
 276 250 l 1
 469 460 l 1
 640 460 l 1
 443 244 l 1
 543 40 l 1
 379 40 l 1
EndSplineSet
EndChar

StartChar: logicalnot
Encoding: 172 172 89
Width: 696
GlyphClass: 1
Flags: W
HStem: 295 127<73 457>
VStem: 457 128<56 295>
LayerCount: 2
Fore
SplineSet
457 56 m 1
 457 295 l 1
 73 295 l 1
 73 422 l 1
 585 422 l 1
 585 56 l 1
 457 56 l 1
EndSplineSet
EndChar

StartChar: registered
Encoding: 174 174 90
Width: 814
GlyphClass: 1
Flags: W
HStem: -12 69<302.672 513.056> 300 75<347 379> 453 76<347 460.905> 610 69<302.504 512.62>
VStem: 62 70<228.466 438.295> 250 97<161 300 375 453> 467 101<382.321 445.018> 480 108<161 269> 684 70<228.368 439.129>
DStem2: 481 310 379 300 0.583299 -0.812258<0 120.443>
LayerCount: 2
Fore
SplineSet
467 413.67978764 m 0xfe80
 467 444.639437292 438.808456177 453 399 453 c 2
 347 453 l 1
 347 375 l 1
 399 375 l 2
 441.304894251 375 467 384.122688216 467 413.67978764 c 0xfe80
568 416.590707834 m 0
 568 370.37205934 547.87699994 328.005346138 481 310 c 1
 588 161 l 1
 480 161 l 1xfd80
 379 300 l 1
 347 300 l 1
 347 161 l 1
 250 161 l 1
 250 529 l 1
 401 529 l 2
 490.005401405 529 568 507.582693246 568 416.590707834 c 0
132 334.057530818 m 0
 132 182.656094983 253.906547271 57 407.764308853 57 c 0
 559.851440966 57 684 179.780579989 684 333.103009247 c 0
 684 485.630598379 561.135303703 610 408.395460128 610 c 0
 256.558787492 610 132 487.097075296 132 334.057530818 c 0
754 334.218475975 m 0
 754 143.528637544 599.282550546 -12 408.118685809 -12 c 0
 217.991650346 -12 62 141.846108945 62 332.736180205 c 0
 62 521.680775198 214.828242344 679 407.099893353 679 c 0
 596.229416639 679 754 526.780622196 754 334.218475975 c 0
EndSplineSet
EndChar

StartChar: macron
Encoding: 175 175 91
Width: 405
GlyphClass: 1
Flags: W
HStem: 570 98<125 403>
VStem: 104 320
LayerCount: 2
Fore
SplineSet
104 570 m 1
 125 668 l 1
 424 668 l 1
 403 570 l 1
 104 570 l 1
EndSplineSet
EndChar

StartChar: degree
Encoding: 176 176 92
Width: 411
GlyphClass: 1
Flags: W
HStem: 354 90<193.609 297.135> 590 89<193.555 296.38>
VStem: 83 89<466.531 568.943> 318 89<466.603 567.95>
LayerCount: 2
Fore
SplineSet
172 516.978972648 m 0
 172 476.582269516 204.434808292 444 245.484695656 444 c 0
 286.581299866 444 318 476.656472255 318 517.096391966 c 0
 318 557.73441752 286.272719945 590 245.470988738 590 c 0
 204.448369474 590 172 557.384119946 172 516.978972648 c 0
407 517.178664665 m 0
 407 424.820184646 334.043978542 354 245.638894197 354 c 0
 156.835340382 354 83 425.460041031 83 516.546186731 c 0
 83 607.804053918 157.114001118 679 245.202606099 679 c 0
 331.016062419 679 407 611.434251889 407 517.178664665 c 0
EndSplineSet
EndChar

StartChar: plusminus
Encoding: 177 177 93
Width: 701
GlyphClass: 1
Flags: W
HStem: 0 128<56 568> 283 108<56 248 376 568> 475 20G<248 376>
VStem: 248 128<180 283 391 495>
LayerCount: 2
Fore
SplineSet
56 0 m 1
 56 128 l 1
 568 128 l 1
 568 0 l 1
 56 0 l 1
248 180 m 1
 248 283 l 1
 56 283 l 1
 56 391 l 1
 248 391 l 1
 248 495 l 1
 376 495 l 1
 376 391 l 1
 568 391 l 1
 568 283 l 1
 376 283 l 1
 376 180 l 1
 248 180 l 1
EndSplineSet
EndChar

StartChar: uni00B2
Encoding: 178 178 94
Width: 407
GlyphClass: 1
Flags: W
HStem: 403 88<240 370> 667 21G<165.091 221.333> 711 77<229.207 316.78>
VStem: 321 106<627.566 705.729>
LayerCount: 2
Fore
SplineSet
427 693.931109735 m 0
 427 602.692541768 316.518239919 524.268799965 240 491 c 1
 388 491 l 1
 370 403 l 1
 70 403 l 1
 87 484 l 1
 219.086596155 556.647627885 321 615.671970239 321 672.968988831 c 0
 321 697.247712621 302.701353518 711 275.055196058 711 c 0
 246.504742064 711 226.666666667 696.333333333 216 667 c 1
 132 700 l 1
 160.666666667 758.666666667 213.078794714 788 288.932333958 788 c 0
 334.419404929 788 427 777.451622503 427 693.931109735 c 0
EndSplineSet
EndChar

StartChar: uni00B3
Encoding: 179 179 95
Width: 425
GlyphClass: 1
Flags: W
HStem: 396 76<205.156 298.704> 491 20G<136.606 200.667> 552 84<236 300.199> 676 21G<166.697 224.115> 713 75<227.42 321.088>
VStem: 305 105<480.067 544.492> 324 104<646.4 706.826>
LayerCount: 2
Fore
SplineSet
410 518.145151751 m 0xfc
 410 446.12726919 343.751858719 396 255.385598362 396 c 0
 218.013888231 396 139.994688858 404.965758508 98 478 c 1
 196 511 l 1
 205.333333333 485 224.158765982 472 251.275813816 472 c 0
 284.451398349 472 305 491.457888263 305 515.231215962 c 0xfc
 305 541.253993535 280.378777168 552 233 552 c 2
 218 552 l 1
 236 636 l 1
 251 636 l 2
 269.239334685 636 324 639.223719091 324 677.753209515 c 0
 324 698.431326019 308.227369069 713 276.093227419 713 c 0
 253.427452445 713 231.229140941 705.751840149 217 676 c 1
 134 709 l 1
 161.908367486 756.322883998 207.262720003 788 281.509478093 788 c 0
 313.521310164 788 428 782.111404751 428 688.518659745 c 0xfa
 428 643.045123535 400.975495704 611.095843494 362 599 c 1
 376.430689709 591.784655145 410 569.41059404 410 518.145151751 c 0xfc
EndSplineSet
EndChar

StartChar: acute
Encoding: 180 180 96
Width: 320
GlyphClass: 1
Flags: W
HStem: 574 153<237.318 263.528>
VStem: 105 234
LayerCount: 2
Fore
SplineSet
273.475819617 727 m 0
 319.584412345 727 339 699.30560744 339 656.94748827 c 0
 339 638.038461538 335.130850098 635.806259672 228.000000688 574.000000397 c 1
 105 574 l 1
 124.333333333 592.666666667 148 616 176 644 c 2
 218 686 l 2
 256.27030305 724.27030305 259 727 273.475819617 727 c 0
EndSplineSet
EndChar

StartChar: uni03BC
Encoding: 278 956 97
Width: 577
GlyphClass: 1
Flags: W
HStem: -161 21G<-55 105.179> -5 111<189.951 285.306> 475 20G<80.7317 240 399.758 560>
VStem: -55 156<-161 -5> 85 155<340 495> 404 156<339 495>
DStem2: -55 -161 101 -161 0.207912 0.978148<32.4342 237.774 339.065 670.772> 264.678 -161 420.778 -161 0.207912 0.978148<294.352 670.632>
LayerCount: 2
Fore
SplineSet
217.852953145 -5 m 0xec
 200.733174495 -5 157.223404478 -0.892287874227 143 40 c 1
 101 -161 l 1
 -55 -161 l 1xf4
 85 495 l 1
 240 495 l 1
 184 231 l 2
 169.256120349 162.195228297 172.940884122 106 242.378421847 106 c 0
 297.430317811 106 329.261484915 141.322820667 348 231 c 2
 404 495 l 1
 560 495 l 1
 455 0 l 1
 314 0 l 1
 310 43 l 1
 292.40443808 11.8693904495 252.546431186 -5 217.852953145 -5 c 0xec
EndSplineSet
EndChar

StartChar: paragraph
Encoding: 182 182 98
Width: 530
GlyphClass: 1
Flags: W
HStem: -161 21G<62 162.258 252 351.258> 600 68<320 413 509 557>
VStem: 62 96<-161 -65> 252 95<-161 -66>
DStem2: 62 -161 158 -161 0.207912 0.978148<19.9595 470.072> 252 -161 347 -161 0.207912 0.978148<19.7516 777.844>
LayerCount: 2
Fore
SplineSet
51 439.574544953 m 0
 51 555.900456205 163.29894533 668 285 668 c 2
 572 668 l 1
 557 600 l 1
 509 600 l 1
 347 -161 l 1
 252 -161 l 1
 413 600 l 1
 320 600 l 1
 158 -161 l 1
 62 -161 l 1
 159 296 l 1
 93.8753972265 314.607029364 51 367.69708806 51 439.574544953 c 0
EndSplineSet
EndChar

StartChar: periodcentered
Encoding: 183 183 99
Width: 305
GlyphClass: 1
Flags: W
HStem: 151 194<73.92 196.023>
VStem: 38 195<188.026 308.467>
LayerCount: 2
Fore
SplineSet
233 248.474491808 m 0
 233 194.004925602 189.872863434 151 136.04512053 151 c 0
 82.4757384393 151 38 193.593088793 38 248.403087108 c 0
 38 303.041574009 82.1978270325 345 136.105971304 345 c 0
 190.215768257 345 233 302.72708149 233 248.474491808 c 0
EndSplineSet
EndChar

StartChar: cedilla
Encoding: 184 184 100
Width: 322
GlyphClass: 1
Flags: W
HStem: -195 54<-17.1921 99.5971>
VStem: 103 91<-135.13 -87.173>
DStem2: 22 -57 87 -47 0.639273 0.76898<49.2425 107.935>
LayerCount: 2
Fore
SplineSet
194 -104.98248405 m 0
 194 -124.581283386 186.680678294 -195 66.9815927776 -195 c 0
 56.70930986 -195 0.70967963106 -194.481390599 -35 -178 c 1
 -9 -128 l 1
 10.3333333333 -136.666666667 29.7134647058 -141 47.2197294693 -141 c 0
 55.9683910956 -141 103 -139.917773032 103 -111.380989531 c 0
 103 -105.117414969 100.734185778 -84 62.8339529964 -84 c 0
 44.3920173374 -84 45.9848138873 -89 36.1272026779 -89 c 0
 24.5617057476 -89 16 -82.1173572277 16 -71.654230536 c 0
 16 -66.5971911867 18 -61.6666666667 22 -57 c 2
 91 26 l 1
 127 1 l 1
 87 -47 l 1
 97 -45 106.782961351 -44 115.229065965 -44 c 0
 131.383595617 -44 194 -47.6582697247 194 -104.98248405 c 0
EndSplineSet
EndChar

StartChar: uni00B9
Encoding: 185 185 101
Width: 294
GlyphClass: 1
Flags: W
HStem: 647 88<140 204.062>
VStem: 153 104<403 507>
DStem2: 153 403 257 403 0.207912 0.978148<21.6228 249.479>
LayerCount: 2
Fore
SplineSet
140 735 m 1
 193.771325039 735 228.169941481 739.393723139 255 779 c 1
 337 779 l 1
 257 403 l 1
 153 403 l 1
 205 647 l 1
 121 647 l 1
 140 735 l 1
EndSplineSet
EndChar

StartChar: ordmasculine
Encoding: 186 186 102
Width: 412
GlyphClass: 1
Flags: W
HStem: 396 77<211.84 288.653> 612 77<222.098 296.559>
VStem: 102 103<479.805 596.061> 305 103<488.289 606.046>
LayerCount: 2
Fore
SplineSet
205 529.831042165 m 0
 205 517.281418537 206.411574821 473 247.196389778 473 c 0
 281.245403524 473 305 503.862677877 305 552.277766142 c 0
 305 575.716435644 299.432604013 612 262.80717248 612 c 0
 229.66529273 612 205 582.290269141 205 529.831042165 c 0
408 560.217067829 m 0
 408 458.963936609 337.770000004 396 241.204634007 396 c 0
 196.598218881 396 102 409.435187595 102 524.539610612 c 0
 102 622.912964857 171.096157208 689 271.545404302 689 c 0
 324.819147234 689 408 670.411287168 408 560.217067829 c 0
EndSplineSet
EndChar

StartChar: guillemotright
Encoding: 187 187 103
Width: 666
GlyphClass: 1
Flags: W
VStem: -8 171<40 211> 232 171<40 211>
DStem2: -8 40 163 40 0.673864 0.738856<115.231 292.344> 232 40 403 40 0.673864 0.738856<115.231 292.344>
LayerCount: 2
Fore
SplineSet
-8 40 m 1
 189 256 l 1
 89 460 l 1
 253 460 l 1
 356 250 l 1
 163 40 l 1
 -8 40 l 1
232 40 m 1
 429 256 l 1
 329 460 l 1
 493 460 l 1
 596 250 l 1
 403 40 l 1
 232 40 l 1
EndSplineSet
EndChar

StartChar: onequarter
Encoding: 188 188 104
Width: 930
GlyphClass: 1
Flags: W
HStem: 0 21G<129 270.033 646 753.267> 75 86<602 662 784 822> 536 87<116 180.014> 647 20G<217.532 313 582.967 724>
VStem: 129 127<0 127> 129 104<292 396> 597 127<540 667>
DStem2: 66.9335 0 170.933 0 0.207912 0.978148<320.146 548.003> 129 0 256 0 0.574368 0.818597<72.9447 814.809> 487 152 602 161 0.714902 0.699224<88.5068 225.693>
LayerCount: 2
Fore
SplineSet
602 161 m 1xf2
 680 161 l 1
 700 257 l 1
 602 161 l 1xf2
646 0 m 1
 662 75 l 1
 470 75 l 1
 487 152 l 1
 715 375 l 1
 829 375 l 1
 784 161 l 1
 841 161 l 1
 822 75 l 1
 765 75 l 1
 749 0 l 1
 646 0 l 1
129 0 m 1xfa
 597 667 l 1
 724 667 l 1
 256 0 l 1
 129 0 l 1xfa
116 623 m 1
 169.745879834 623 204.064067073 628.237432346 231 668 c 1
 313 668 l 1
 233 292 l 1
 129 292 l 1xf6
 181 536 l 1
 97 536 l 1
 116 623 l 1
EndSplineSet
Ligature2: "'frac' Diagonal Fractions lookup 10 subtable" one slash four
EndChar

StartChar: onehalf
Encoding: 189 189 105
Width: 919
GlyphClass: 1
Flags: W
HStem: 0 88<666 796> 308 76<654.291 741.992> 536 87<116 180.014> 647 20G<217.532 313 582.967 724>
VStem: 129 127<0 127> 129 104<292 396> 597 127<540 667> 747 107<221.915 302.343>
DStem2: 66.9335 0 170.933 0 0.207912 0.978148<320.146 548.003> 129 0 256 0 0.574368 0.818597<72.9447 814.809>
LayerCount: 2
Fore
SplineSet
854 290.100618012 m 0xf3
 854 199.821676614 743.685773576 121.776423294 666 88 c 1
 815 88 l 1
 796 0 l 1
 496 0 l 1
 513 81 l 1
 670.133487672 165.610339516 747 218.182102158 747 268.991847067 c 0
 747 294.588178737 727.492635222 308 700.146057489 308 c 0
 671.548771605 308 652 293.333333333 642 264 c 1
 558 297 l 1
 585.333333333 355 637.447576288 384 713.861625909 384 c 0
 759.214041712 384 854 373.784669613 854 290.100618012 c 0xf3
129 0 m 1xfb
 597 667 l 1
 724 667 l 1
 256 0 l 1
 129 0 l 1xfb
116 623 m 1
 169.745879834 623 204.064067073 628.237432346 231 668 c 1
 313 668 l 1
 233 292 l 1
 129 292 l 1xf7
 181 536 l 1
 97 536 l 1
 116 623 l 1
EndSplineSet
Ligature2: "'frac' Diagonal Fractions lookup 10 subtable" one slash two
EndChar

StartChar: threequarters
Encoding: 190 190 106
Width: 958
GlyphClass: 1
Flags: W
HStem: 0 21G<198 339.033 674 782.267> 75 86<630 690 812 851> 287 76<182.156 275.704> 443 84<213 277.199> 604 75<204.42 298.088> 647 20G<651.967 793>
VStem: 198 127<0 127> 282 105<371.067 435.492> 301 104<537.4 597.826> 666 127<540 667>
DStem2: 198 0 325 0 0.574368 0.818597<72.9447 814.809> 515 152 630 161 0.71643 0.697659<88.6684 226.57>
LayerCount: 2
Fore
SplineSet
630 161 m 1xf040
 709 161 l 1
 729 257 l 1
 630 161 l 1xf040
674 0 m 1
 690 75 l 1
 499 75 l 1
 515 152 l 1
 744 375 l 1
 858 375 l 1
 812 161 l 1
 869 161 l 1
 851 75 l 1
 794 75 l 1
 778 0 l 1
 674 0 l 1
198 0 m 1xf640
 666 667 l 1
 793 667 l 1
 325 0 l 1
 198 0 l 1xf640
387 409.145151751 m 0xf940
 387 337.12726919 320.751858719 287 232.385598362 287 c 0
 195.013888231 287 116.994688858 295.965758508 75 369 c 1
 173 402 l 1
 182.333333333 376 201.158765982 363 228.275813816 363 c 0
 261.451398349 363 282 382.457888263 282 406.231215962 c 0xf940
 282 432.253993535 257.378777168 443 210 443 c 2
 195 443 l 1
 213 527 l 1
 228 527 l 2
 246.239334685 527 301 530.223719091 301 568.753209515 c 0
 301 589.431326019 285.227369069 604 253.093227419 604 c 0
 230.427452445 604 208.229140941 596.751840149 194 567 c 1
 111 600 l 1
 138.908367486 647.322883998 184.262720003 679 258.509478093 679 c 0
 290.521310164 679 405 673.111404751 405 579.518659745 c 0xf8c0
 405 534.045123535 377.975495704 502.095843494 339 490 c 1
 353.430689709 482.784655145 387 460.41059404 387 409.145151751 c 0xf940
EndSplineSet
Ligature2: "'frac' Diagonal Fractions lookup 10 subtable" three slash four
EndChar

StartChar: less
Encoding: 60 60 107
Width: 640
GlyphClass: 1
Flags: W
HStem: 490 20G<480.27 527>
LayerCount: 2
Fore
SplineSet
527 -12 m 1
 34 200 l 1
 34 299 l 1
 527 510 l 1
 527 368 l 1
 203 250 l 1
 527 130 l 1
 527 -12 l 1
EndSplineSet
EndChar

StartChar: equal
Encoding: 61 61 108
Width: 685
GlyphClass: 1
Flags: W
HStem: 96 129<60 572> 283 127<60 572>
LayerCount: 2
Fore
SplineSet
60 96 m 1
 60 225 l 1
 572 225 l 1
 572 96 l 1
 60 96 l 1
60 283 m 1
 60 410 l 1
 572 410 l 1
 572 283 l 1
 60 283 l 1
EndSplineSet
EndChar

StartChar: greater
Encoding: 62 62 109
Width: 638
GlyphClass: 1
Flags: W
HStem: 490 20G<78 124.73>
LayerCount: 2
Fore
SplineSet
78 -12 m 1
 78 130 l 1
 403 250 l 1
 78 368 l 1
 78 510 l 1
 571 299 l 1
 571 200 l 1
 78 -12 l 1
EndSplineSet
EndChar

StartChar: question
Encoding: 63 63 110
Width: 634
GlyphClass: 1
Flags: W
HStem: -12 195<177.162 297.988> 552 128<265.522 437.04>
VStem: 140 195<25.6159 148.235>
LayerCount: 2
Fore
SplineSet
335 86.44307282 m 0
 335 31.9569726146 292.01400737 -12 237.55714009 -12 c 0
 183.289309198 -12 140 31.6523261906 140 86.3723487459 c 0
 140 140.696859055 182.665786954 183 237.52611444 183 c 0
 292.39111857 183 335 140.689646368 335 86.44307282 c 0
365.242348679 680 m 0
 439.863881619 680 623 665.650083537 623 521.921133072 c 0
 623 420.729669809 532.223538794 371.80000389 458.523407556 341.241412889 c 0
 404.13730078 318.691075933 367.7885132 297.471282999 346 243 c 1
 185 243 l 1
 198.142773144 343.761260767 274.717421102 390.307466184 361.223170551 427.381358806 c 0
 425.89055652 455.095952794 446.673982618 471.675049429 448.302741684 498.278114165 c 0
 449.503746745 517.894530161 440.843356803 552 360.098988519 552 c 0
 322.84691591 552 248.699014628 544.740604864 223 486 c 1
 85 541 l 1
 122.536337282 607.3432938 197.332050482 680 365.242348679 680 c 0
EndSplineSet
EndChar

StartChar: at
Encoding: 64 64 111
Width: 753
GlyphClass: 1
Flags: W
HStem: -12 68<270.365 490.82> 153 97<288.805 375.156> 153 78<508.634 606.512> 428 90<334.752 428.589> 610 70<284.156 491.285>
VStem: 41 69<210.702 427.046> 181 101<255.749 373.152> 648 72<277.075 461.591>
DStem2: 337.101 -12 437.658 -12 0.207912 0.978148<288.62 446.557>
LayerCount: 2
Fore
SplineSet
282 302.530493549 m 0xdf
 282 284.878382797 286.565932222 250 327.179581426 250 c 0
 394.527777773 250 413.176959942 345.910079707 413.178329616 345.917123744 c 0
 425.465103623 409.106247205 427.666666667 419.666666667 429 425 c 1
 420.333333333 427 411.071012695 428 401.648741923 428 c 0
 320.467909204 428 282 353.767199942 282 302.530493549 c 0xdf
383.162950067 56 m 0
 437.25790575 56 480.449559054 68.5336007105 522 94 c 1
 522 16 l 1
 479.333333333 -2.66666666667 432.079424833 -12 381.113155003 -12 c 0
 190.599355198 -12 41 118.413922202 41 316.154217079 c 0
 41 521.146367197 201.773263724 680 384.658616253 680 c 0
 544.479844962 680 720 558.686751052 720 367.912313649 c 0
 720 247.795714196 650.418676015 153 546.552229139 153 c 0xbf
 524.26746656 153 449.598913864 157.363692863 430 224 c 1
 411.997866457 200.85439973 366.618708449 153 302.88017052 153 c 0xdf
 280.512511296 153 181 158.893302771 181 282.679863191 c 0
 181 399.676126383 269.894455998 518 427.447818336 518 c 0
 451.49762002 518 495.186948677 515.242979304 545 498 c 1
 509 330 l 1
 501 286 501 286 501 286 c 0
 501 263.688843124 505.927689705 231 551.261027532 231 c 0xbf
 610.080597419 231 648 286.031055973 648 365.026509475 c 0
 648 507.291300678 525.014997378 610 389.526688114 610 c 0
 241.21348617 610 110 486.926881584 110 318.029633611 c 0
 110 156.545033133 229.948702537 56 383.162950067 56 c 0
EndSplineSet
EndChar

StartChar: colon
Encoding: 58 58 112
Width: 247
GlyphClass: 1
Flags: W
HStem: -12 195<11.748 132.015> 316 195<81.4987 202.588>
VStem: -26 195<25.6214 146.464> 44 195<352.994 473.811>
LayerCount: 2
Fore
SplineSet
169 86.4592571755 m 0xe0
 169 31.9626221879 125.855014359 -12 72.0426035666 -12 c 0
 18.452105686 -12 -26 31.600781579 -26 86.4060675561 c 0
 -26 141.054533835 18.1980793694 183 72.1023427179 183 c 0
 126.216635912 183 169 140.727028651 169 86.4592571755 c 0xe0
239 413.43200887 m 0xd0
 239 358.948765081 196.984718208 316 142.539213842 316 c 0
 88.3027529993 316 44 358.61959464 44 413.36497009 c 0
 44 467.706874283 87.6521402801 511 142.503744448 511 c 0
 197.390340758 511 239 467.651619656 239 413.43200887 c 0xd0
EndSplineSet
EndChar

StartChar: bracketleft
Encoding: 91 91 114
Width: 340
GlyphClass: 1
Flags: W
HStem: -161 115<99 202> 552 116<226 353>
DStem2: -57 -161 74.556 -161 0.207912 0.978148<144.921 756.258>
LayerCount: 2
Fore
SplineSet
-57 -161 m 1
 119 668 l 1
 378 668 l 1
 353 552 l 1
 226 552 l 1
 99 -46 l 1
 227 -46 l 1
 202 -161 l 1
 -57 -161 l 1
EndSplineSet
EndChar

StartChar: backslash
Encoding: 92 92 115
Width: 584
GlyphClass: 1
Flags: W
HStem: 0 21G<340.186 499> 648 20G<87 247.754>
DStem2: 240 668 87 668 0.363926 -0.931428<0 661.498>
LayerCount: 2
Fore
SplineSet
348 0 m 1
 87 668 l 1
 240 668 l 1
 499 0 l 1
 348 0 l 1
EndSplineSet
EndChar

StartChar: bracketright
Encoding: 93 93 116
Width: 342
GlyphClass: 1
Flags: W
HStem: -161 115<-46 82> 552 116<105 209>
DStem2: 57.556 -161 188 -161 0.207912 0.978148<117.569 728.906>
LayerCount: 2
Fore
SplineSet
-71 -161 m 1
 -46 -46 l 1
 82 -46 l 1
 209 552 l 1
 81 552 l 1
 105 668 l 1
 364 668 l 1
 188 -161 l 1
 -71 -161 l 1
EndSplineSet
EndChar

StartChar: asciicircum
Encoding: 94 94 117
Width: 589
GlyphClass: 1
Flags: W
HStem: 648 20G<223.607 357.393>
DStem2: 49 312 192 312 0.461117 0.887339<65.9398 283.734> 347 668 291 506 0.461117 -0.887339<117.926 335.26>
LayerCount: 2
Fore
SplineSet
49 312 m 1
 234 668 l 1
 347 668 l 1
 532 312 l 1
 389 312 l 1
 291 506 l 1
 192 312 l 1
 49 312 l 1
EndSplineSet
EndChar

StartChar: underscore
Encoding: 95 95 118
Width: 457
GlyphClass: 1
Flags: W
HStem: -128 128<-30 380>
LayerCount: 2
Fore
SplineSet
-30 -128 m 1
 -30 0 l 1
 380 0 l 1
 380 -128 l 1
 -30 -128 l 1
EndSplineSet
EndChar

StartChar: grave
Encoding: 96 96 119
Width: 315
GlyphClass: 1
Flags: W
HStem: 574 153
VStem: 127 174.179
LayerCount: 2
Fore
SplineSet
127 669.446976127 m 0
 127 703.700918255 153.633702295 727 193.280996905 727 c 0
 207.87845682 727 219.078117799 723.841606248 283.279505351 622.004922547 c 0
 291.532661643 608.913709118 300.666666406 594.666667071 301.179314527 593.872059822 c 0
 313.999999218 573.999931978 277.999999479 573.999931574 206 574 c 1
 143.097159624 627.225480318 127 642.817083552 127 669.446976127 c 0
EndSplineSet
EndChar

StartChar: exclam
Encoding: 33 33 120
Width: 298
GlyphClass: 1
Flags: W
HStem: -12 196<36.7487 157.015> 648 20G<115.698 318>
VStem: -1 195<25.6137 146.847>
LayerCount: 2
Fore
SplineSet
194 86.4512377602 m 0
 194 31.9480621973 150.853532717 -12 97.0463112824 -12 c 0
 43.452105686 -12 -1 31.600781579 -1 86.4208048216 c 0
 -1 141.064572142 43.1667226797 184 97.0829046328 184 c 0
 151.209170339 184 194 140.729325516 194 86.4512377602 c 0
71 243 m 1
 83 496 l 1
 120 668 l 1
 318 668 l 1
 281 496 l 1
 186 243 l 1
 71 243 l 1
EndSplineSet
EndChar

StartChar: quotedbl
Encoding: 34 34 121
Width: 444
GlyphClass: 1
Flags: W
HStem: 434 234<116 230 305 418>
VStem: 116 114<434 551> 305 113<434 543.2>
LayerCount: 2
Fore
SplineSet
116 434 m 1
 102 668 l 1
 244 668 l 1
 230 434 l 1
 116 434 l 1
305 434 m 1
 290 668 l 1
 432 668 l 1
 418 434 l 1
 305 434 l 1
EndSplineSet
EndChar

StartChar: numbersign
Encoding: 35 35 122
Width: 750
GlyphClass: 1
Flags: W
HStem: 0 21G<118 261.835 395 538.835> 127 140<28 136 297 413 575 683> 401 140<68 176 336 453 614 722> 648 20G<212.008 355 489.008 633>
DStem2: 118 0 259 0 0.143702 0.989621<20.262 128.269 289.952 405.173 566.712 675.006> 395 0 536 0 0.143702 0.989621<20.262 128.269 290.095 405.173 566.856 675.006>
LayerCount: 2
Fore
SplineSet
297 267 m 1
 434 267 l 1
 453 401 l 1
 316 401 l 1
 297 267 l 1
118 0 m 1
 136 127 l 1
 8 127 l 1
 28 266 l 1
 156 266 l 1
 176 401 l 1
 48 401 l 1
 68 541 l 1
 196 541 l 1
 215 668 l 1
 355 668 l 1
 336 541 l 1
 473 541 l 1
 492 668 l 1
 633 668 l 1
 614 541 l 1
 743 541 l 1
 722 402 l 1
 594 402 l 1
 575 267 l 1
 703 267 l 1
 683 127 l 1
 554 127 l 1
 536 0 l 1
 395 0 l 1
 413 127 l 1
 277 127 l 1
 259 0 l 1
 118 0 l 1
EndSplineSet
EndChar

StartChar: dollar
Encoding: 36 36 123
Width: 643
GlyphClass: 1
Flags: W
HStem: -12 126<300.933 397.305> 552 128<242.762 324>
VStem: 61 163<450.715 531.58> 188 76<-86 -10> 425 164<139.185 221.376>
DStem2: 188 -86 264 -86 0.207912 0.978148<15.8013 88.0475 221.349 365.505 518.375 652.334 788.711 851.805>
LayerCount: 2
Fore
SplineSet
320.562634971 114 m 0xc8
 374.805748108 114 425 138.175063462 425 180.256031133 c 0
 425 215.898972447 388.989461093 238.214131731 337 256 c 1
 307 115 l 1
 310.333333333 114.333333333 314.193210854 114 320.562634971 114 c 0xc8
324 552 m 1
 294.174857765 551.391323628 224 544.289030843 224 492.368250539 c 0xe8
 224 458.700343793 253.507427638 437.448737689 296 421 c 1
 324 552 l 1
589 208.151891456 m 0
 589 79.6410986608 481.131632292 -12 301.185978192 -12 c 0
 290.333333333 -12 284 -11.6666666667 280 -11 c 1
 264 -86 l 1
 188 -86 l 1xd8
 207 -1 l 1
 178.006810789 5.84561411935 56.4039704067 35.9461641565 10 157 c 1
 165 210 l 1
 168.98405579 190.743730346 183.333447929 152.733282911 235 130 c 1
 266 280 l 1
 140.511342336 320.699024107 61 367.143673296 61 474.866778761 c 0
 61 592.443114374 155.722073726 680 347 680 c 2
 352 680 l 1
 366 747 l 1
 441 747 l 1
 425 671 l 1
 481.427458379 657.662600747 559.655059595 624.580856242 607 536 c 1
 452 484 l 1
 446.038688495 500.180702657 431.654321244 523.408706844 397 538 c 1
 367 398 l 1
 539.055428032 353.000888053 589 295.597236771 589 208.151891456 c 0
EndSplineSet
EndChar

StartChar: percent
Encoding: 37 37 124
Width: 1043
GlyphClass: 1
Flags: W
HStem: -12 119<731.145 838.036> 0 21G<226 366.012> 263 119<741.762 848.608> 286 119<193.528 303.283> 561 119<205.933 315.059> 648 20G<679.018 820>
VStem: 56 119<424.358 528.178> 226 126<0 126> 334 119<437.196 541.507> 592 119<126.959 230.902> 693 127<541 668> 869 119<138.737 242.922>
DStem2: 226 0 352 0 0.573791 0.819001<72.2977 815.054>
LayerCount: 2
Fore
SplineSet
711 176.745326755 m 0xa250
 711 136.639719827 740.452303484 107 781.555311648 107 c 0
 828.072794074 107 869 144.962891522 869 192.299386007 c 0
 869 232.523811934 839.447132952 263 798.388904325 263 c 0
 751.970931905 263 711 224.047749023 711 176.745326755 c 0xa250
988 204.974066635 m 0
 988 86.8587067955 886.17156897 -12 769.464394122 -12 c 0
 667.566142981 -12 592 63.3621488802 592 165.030771972 c 0
 592 282.696139446 693.21635252 382 810.185477019 382 c 0
 911.683230079 382 988 307.22842823 988 204.974066635 c 0
175 474.10295983 m 0
 175 433.615352668 205.507687048 405 246.100700403 405 c 0
 293.929982867 405 334 444.726860985 334 490.961036277 c 0
 334 531.149823274 303.72367949 561 262.947202748 561 c 0x1a90
 215.649098933 561 175 520.838033399 175 474.10295983 c 0
226 0 m 1x4730
 693 668 l 1
 820 668 l 1
 352 0 l 1
 226 0 l 1x4730
453 503.23689371 m 0x1a90
 453 384.723608277 351.070571283 286 234.976075318 286 c 0
 134.500284552 286 56 359.947011177 56 462.507444639 c 0
 56 579.16161346 157.557514349 680 274.681500749 680 c 0
 373.89801892 680 453 607.639399632 453 503.23689371 c 0x1a90
EndSplineSet
EndChar

StartChar: ampersand
Encoding: 38 38 125
Width: 683
GlyphClass: 1
Flags: W
HStem: -10 126<186.237 318.05> 0 21G<428.792 608> 592 114<292.678 395.551>
VStem: -7 164<143.82 247.895> 139 139<470.708 576.198> 408 126<480.782 578.381>
DStem2: 383 348 247 290 0.557161 -0.830405<0 124.249 256.729 321.853>
LayerCount: 2
Fore
SplineSet
157 196.61840579 m 0xb4
 157 154.397141753 190.524698644 116 246.02071861 116 c 0
 271.714380596 116 301.479182145 124.230519241 343 147 c 1
 247 290 l 1
 225.893387358 283.404183549 157 257.1437906 157 196.61840579 c 0xb4
346.03394574 592 m 0
 308.269160137 592 278 568.404166113 278 531.39143812 c 0x2c
 278 510.753253273 287.411117064 478.675993571 326 437 c 1
 353.033267356 450.216264041 408 483.347258248 408 532.938906358 c 0
 408 562.841986555 388.014515097 592 346.03394574 592 c 0
407 53 m 1
 344.006529962 16.0727934257 272.789914981 -10 200.969958955 -10 c 0
 69.68392864 -10 -7 77.1233021265 -7 170.292014474 c 0xb4
 -7 250.863005903 50.3484366315 338.339189714 181 389 c 1
 153 431 139 474.662280802 139 519.243424009 c 0
 139 637.874786196 238.13446521 706 348.271559325 706 c 0
 468.12288176 706 534 625.327352174 534 542.809832414 c 0
 534 474.141080696 488.379444762 398.688846848 383 348 c 1
 451 244 l 1
 476.647178392 268.792272445 518.256639777 315.557528357 549 389 c 1
 676 389 l 1
 654.787526987 332.93846418 605.868003057 227.595757847 515 146 c 1
 608 0 l 1
 442 0 l 1x6c
 407 53 l 1
EndSplineSet
EndChar

StartChar: quotesingle
Encoding: 39 39 126
Width: 258
GlyphClass: 1
Flags: W
HStem: 434 234<103 217>
VStem: 103 114<434 551>
LayerCount: 2
Fore
SplineSet
103 434 m 1
 89 668 l 1
 231 668 l 1
 217 434 l 1
 103 434 l 1
EndSplineSet
EndChar

StartChar: parenleft
Encoding: 40 40 127
Width: 377
GlyphClass: 1
Flags: W
HStem: -161 21G<59.5632 238> 649 20G<148.921 387>
VStem: 14 145<-0.769366 307.096> 236 151<518 669>
LayerCount: 2
Fore
SplineSet
387 669 m 1
 242.357559923 493.836678072 159 331.554608973 159 156.357347285 c 0
 159 57.8864862227 185.333333333 -47.6666666667 238 -161 c 1
 89 -161 l 1
 30.1264171522 -20.6091485938 14 87.8035684849 14 171.732178119 c 0
 14 316.292552202 61.8427747177 473.732808017 236 669 c 1
 387 669 l 1
EndSplineSet
EndChar

StartChar: parenright
Encoding: 41 41 128
Width: 378
GlyphClass: 1
Flags: W
HStem: -161 21G<-42 201.36> 649 20G<107 285.437>
VStem: -42 151<-161 -10> 186 145<198.338 508.769>
LayerCount: 2
Fore
SplineSet
331 336.248334171 m 0
 331 208.609886012 293.71971656 43.0187914245 109 -161 c 1
 -42 -161 l 1
 102.642440077 14.1633219277 186 176.445391028 186 351.642652715 c 0
 186 450.113513777 159.666666667 555.666666667 107 669 c 1
 256 669 l 1
 314.873582848 528.609148593 331 420.196431513 331 336.248334171 c 0
EndSplineSet
EndChar

StartChar: asterisk
Encoding: 42 42 129
Width: 443
GlyphClass: 1
Flags: W
HStem: 336 332
VStem: 76 326
LayerCount: 2
Fore
SplineSet
263 336 m 1
 222 428 l 1
 148 361 l 1
 89 426 l 1
 164 494 l 1
 76 544 l 1
 120 619 l 1
 207 569 l 1
 228 668 l 1
 314 650 l 1
 293 551 l 1
 392 562 l 1
 402 475 l 1
 302 464 l 1
 343 372 l 1
 263 336 l 1
EndSplineSet
EndChar

StartChar: plus
Encoding: 43 43 130
Width: 645
GlyphClass: 1
Flags: W
HStem: 0 21G<231 359> 184 128<39 231 359 551> 476 20G<231 359>
VStem: 231 128<0 184 312 496>
LayerCount: 2
Fore
SplineSet
231 0 m 1
 231 184 l 1
 39 184 l 1
 39 312 l 1
 231 312 l 1
 231 496 l 1
 359 496 l 1
 359 312 l 1
 551 312 l 1
 551 184 l 1
 359 184 l 1
 359 0 l 1
 231 0 l 1
EndSplineSet
EndChar

StartChar: comma
Encoding: 44 44 131
Width: 282
GlyphClass: 1
Flags: W
HStem: -145 328<51.8151 59>
VStem: -40 99<-145 -46> -9 196<25.3332 146.956>
DStem2: -40 -145 59 -145 0.536538 0.843876<53.1173 168.655>
LayerCount: 2
Fore
SplineSet
90.1465041227 183 m 0xa0
 145.030974663 183 187 142.000080145 187 86.2182318729 c 0xa0
 187 64.5899195398 180.690595829 47.7059788615 162 17 c 2
 59 -145 l 1
 -40 -145 l 1xc0
 51 -3 l 1
 41.6961013742 0.790477217926 -9 24.3514843752 -9 85.4953041076 c 0
 -9 143.106868579 36.0079018728 183 90.1465041227 183 c 0xa0
EndSplineSet
EndChar

StartChar: hyphen
Encoding: 45 45 132
Width: 376
GlyphClass: 1
Flags: W
HStem: 184 129<38 336>
LayerCount: 2
Fore
SplineSet
10 184 m 1
 38 313 l 1
 364 313 l 1
 336 184 l 1
 10 184 l 1
EndSplineSet
EndChar

StartChar: period
Encoding: 46 46 133
Width: 247
GlyphClass: 1
Flags: W
HStem: -12 195<21.748 142.015>
VStem: -16 195<25.6214 146.464>
LayerCount: 2
Fore
SplineSet
179 86.4592571755 m 0
 179 31.9626221879 135.855014359 -12 82.0426035666 -12 c 0
 28.452105686 -12 -16 31.600781579 -16 86.4060675561 c 0
 -16 141.054533835 28.1980793694 183 82.1023427179 183 c 0
 136.216635912 183 179 140.727028651 179 86.4592571755 c 0
EndSplineSet
EndChar

StartChar: slash
Encoding: 47 47 134
Width: 442
GlyphClass: 1
Flags: W
HStem: 0 21G<-55 110.006> 648 20G<335.934 499>
VStem: -55 153<0 153> 348 151<517 668>
DStem2: -55 0 98 0 0.516568 0.856246<79.0349 780.149>
LayerCount: 2
Fore
SplineSet
-55 0 m 1
 348 668 l 1
 499 668 l 1
 98 0 l 1
 -55 0 l 1
EndSplineSet
EndChar

StartChar: braceleft
Encoding: 123 123 135
Width: 373
GlyphClass: 1
Flags: W
HStem: -162 120<174.326 234> 548 119<289.068 384>
DStem2: -11.6467 -162 134.803 -162 0.207912 0.978148<163.792 341.514 498.792 754.166>
LayerCount: 2
Fore
SplineSet
180 -162 m 2
 57.9325480005 -162 1.69938770947 -104.171773185 23 1 c 1
 44 97 l 2
 58.8105528625 160.28145314 51.24119212 192 -6 192 c 1
 20 315 l 1
 80.4703355764 315 97.8705428376 351.048149113 110 409 c 2
 131 505 l 2
 163.671710455 650.7660928 225.577064223 667 355 667 c 2
 410 667 l 1
 384 548 l 1
 351 548 l 2
 308.060522376 548 284.805447079 539.425419703 277 503 c 2
 251 380 l 2
 233.205365977 299.924146896 184.040358154 268.957988988 131 255 c 1
 130 252 l 1
 192.280002825 234.77361624 211.708590194 193.857228155 197 127 c 2
 172 13 l 2
 162.769772434 -27.8767220795 173.721276755 -42 220 -42 c 2
 260 -42 l 1
 234 -162 l 1
 180 -162 l 2
EndSplineSet
EndChar

StartChar: bar
Encoding: 124 124 136
Width: 299
GlyphClass: 1
Flags: W
HStem: -161 21G<59 205> 648 20G<59 205>
VStem: 59 146<-161 668>
LayerCount: 2
Fore
SplineSet
59 -161 m 1
 59 668 l 1
 205 668 l 1
 205 -161 l 1
 59 -161 l 1
EndSplineSet
EndChar

StartChar: braceright
Encoding: 125 125 137
Width: 373
GlyphClass: 1
Flags: W
HStem: -162 120<-45 54.2641> 548 119<106 169.08>
DStem2: -70 -162 175.353 -162 0.207912 0.978148<100.125 732.678 733.988 816.175> 29.1407 -162 175.353 -162 0.207912 0.978148<129.213 381.249 537.737 715.83>
LayerCount: 2
Fore
SplineSet
-70 -162 m 1
 -45 -42 l 1
 -11 -42 l 2
 32.0077966061 -42 56.1881229926 -33.1534465333 64 2 c 2
 90 126 l 2
 107.792336392 207.336394934 157.015196714 238.056630714 210 252 c 1
 211 255 l 1
 150.050640891 273.549804946 130.65725405 312.286270249 144 379 c 1
 170 498 l 2
 177.872453462 536.050191733 165.189610628 548 120 548 c 2
 81 548 l 1
 106 667 l 1
 161 667 l 2
 246.901918125 667 343.422747614 638.88753247 316 505 c 2
 296 409 l 2
 282.559273673 344.48451363 290.139438503 315 346 315 c 1
 320 192 l 1
 260.58912467 192 241.147205885 155.036650339 229 97 c 2
 210 1 l 1
 179.302490035 -147.371298165 111.523603161 -162 -16 -162 c 2
 -70 -162 l 1
EndSplineSet
EndChar

StartChar: asciitilde
Encoding: 126 126 138
Width: 533
GlyphClass: 1
Flags: W
HStem: 167 123<283.925 375.913> 227 123<126.367 225.461>
LayerCount: 2
Fore
SplineSet
494 333 m 1x80
 464.282625461 228.989189115 415.759755571 167 332.012156142 167 c 0x80
 249.61921335 167 221.160850679 227 166.09241814 227 c 0
 139.111392861 227 116.446537474 212.596676399 106 146 c 1
 9 184 l 1
 37.09104126 282.31864441 83.8331420789 350 173.78296453 350 c 0x40
 258.474773905 350 290.221324706 290 337.645119304 290 c 0
 364.21614279 290 387.262202276 308.835415935 396 370 c 1
 494 333 l 1x80
EndSplineSet
EndChar

StartChar: exclamdown
Encoding: 161 161 139
Width: 297
GlyphClass: 1
Flags: W
HStem: -162 21G<-55 147.277> 324 194<105.877 226.6>
VStem: 69 194<360.399 482.635>
LayerCount: 2
Fore
SplineSet
-55 -162 m 1
 -18 11 l 1
 77 264 l 1
 192 264 l 1
 180 11 l 1
 143 -162 l 1
 -55 -162 l 1
263 420.444132121 m 0
 263 365.994311295 221.00459737 324 166.55514809 324 c 0
 112.343922571 324 69 365.627653471 69 420.377534501 c 0
 69 474.681792487 111.641219832 518 166.499663622 518 c 0
 221.376954559 518 263 474.6520226 263 420.444132121 c 0
EndSplineSet
EndChar

StartChar: cent
Encoding: 162 162 140
Width: 531
GlyphClass: 1
Flags: W
VStem: 2 154<130.109 298.734> 155 74<-87 -13>
DStem2: 155 -87 229 -87 0.207912 0.978148<15.3855 80.8082 215.627 480.521 622.394 672.729>
LayerCount: 2
Fore
SplineSet
255 383 m 1x80
 157.189961583 340.615650019 156 203.575959641 156 192.608868845 c 0
 156 183.296590067 156.857950043 133.488339453 198 114 c 1
 255 383 l 1x80
270 109 m 1
 296.790581522 114.358116304 319.890378229 127.293621425 341 155 c 1
 464 107 l 1
 426.57955912 54.2711969425 359.680720674 -4.22503588654 245 -12 c 1
 229 -87 l 1
 155 -87 l 1x40
 172 -8 l 1
 127.694191707 -0.435593705994 2 35.0493405445 2 189.557442135 c 0
 2 222.551687503 7.7317745021 343.120009125 101.587733272 430.547477568 c 0
 149.637439703 475.306108217 210 501.333333333 282 508 c 1
 295 571 l 1
 368 571 l 1
 354 507 l 1
 425.307927826 497.581971797 480.736564865 462.579694711 511 381 c 1
 378 335 l 1
 371.96965096 358.116337985 358.769867002 381.384474 329 388 c 1
 270 109 l 1
EndSplineSet
EndChar

StartChar: sterling
Encoding: 163 163 141
Width: 617
GlyphClass: 1
Flags: W
HStem: -12 125<262.449 497.118> 24 110<158.312 282.731> 295 73<58 133 315 443> 556 123<300.372 445.682>
VStem: 113 158<380.665 529.496> 158 159<218.042 294.75>
LayerCount: 2
Fore
SplineSet
171.282108404 24 m 0x74
 145.342465429 24 95.207721677 18.4690881683 33 -12 c 1
 2 104 l 1
 57.3333333333 128 99.0347661807 158.648935884 127.389539022 196.325825824 c 0
 147.701432847 223.315602551 158 249.707027807 158 275.121083422 c 0xb4
 158 283.040361141 157 289.666666667 155 295 c 1
 43 295 l 1
 58 368 l 1
 133 368 l 1
 122.78592262 404.478847787 113 442.196654586 113 479.052295619 c 0
 113 621.356094177 258.890436839 679 388.459509332 679 c 0
 505.870349226 679 587.333333333 631.666666667 632 537 c 1
 485 487 l 1
 454.386466749 539.87792107 421.046160953 556 373.256686972 556 c 0
 333.465550187 556 271 544.822897448 271 471.634199354 c 0xb8
 271 443.853383753 280 409.333333333 298 368 c 1
 458 368 l 1
 443 295 l 1
 315 295 l 1
 316.333333333 289.666666667 317 284.316407792 317 280.618237175 c 0
 317 274.606554572 315.238320341 190.928350333 181 117 c 1
 204.111600579 129.058226389 230.275728572 134 264.528421715 134 c 0x74
 335.137891166 134 350.891731736 113 404.449146073 113 c 0
 442.257579029 113 478.668819265 123.465438892 517 144 c 1
 535 23 l 1
 489.111603323 2.4709804339 434.930137052 -12 381.556035477 -12 c 0xb4
 297.371397229 -12 237.460601963 24 171.282108404 24 c 0x74
EndSplineSet
EndChar

StartChar: currency
Encoding: 164 164 142
Width: 678
GlyphClass: 1
Flags: W
HStem: 102 119<275.801 398.207> 419 120<274.996 398.676>
VStem: 118 120<258.908 382.375> 436 119<259.228 381.698>
DStem2: 144 565 92 513 0.707107 -0.707107<0 98.8062 520.392 619.426> 92 127 144 75 0.707107 0.707107<0 99.0336 520.601 619.426>
LayerCount: 2
Fore
SplineSet
238 320.993994135 m 0
 238 265.768417903 281.804813398 221 337.005358796 221 c 0
 392.224906814 221 436 265.799245991 436 320.991423015 c 0
 436 376.21594216 392.173588158 419 336.985024543 419 c 0
 281.794681595 419 238 376.213183317 238 320.993994135 c 0
555 321.52421492 m 0
 555 285.485720064 546.856074812 239.269158944 515 194 c 1
 582 127 l 1
 530 75 l 1
 463 142 l 1
 426.333333333 115.333333333 384.333333333 102 337 102 c 0
 289.666666667 102 247.666666667 115.333333333 211 142 c 1
 144 75 l 1
 92 127 l 1
 159 194 l 1
 142.131340376 217.97125315 118 261.373149134 118 320.17921803 c 0
 118 354.942582906 126.432974019 399.720542027 159 446 c 1
 92 513 l 1
 144 565 l 1
 211 498 l 1
 242.574189288 521.388288362 284.761797656 539 337.475316992 539 c 0
 369.815605285 539 416.599094296 532.371041262 463 498 c 1
 530 565 l 1
 582 513 l 1
 515 446 l 1
 541.666666667 409.333333333 555 367.636763417 555 321.52421492 c 0
EndSplineSet
EndChar

StartChar: yen
Encoding: 165 165 143
Width: 700
GlyphClass: 1
Flags: W
HStem: 0 21G<191 358.267> 75 73<99 207 385 499> 212 74<128 225 442 528> 647 20G<82 259.209 542.188 762>
VStem: 558 204<463 667>
DStem2: 339 390 442 286 0.643145 0.765744<0 352.96>
LayerCount: 2
Fore
SplineSet
191 0 m 1
 207 75 l 1
 83 75 l 1
 99 148 l 1
 222 148 l 1
 236 212 l 1
 112 212 l 1
 128 286 l 1
 225 286 l 1
 82 667 l 1
 253 667 l 1
 339 390 l 1
 558 667 l 1
 762 667 l 1
 442 286 l 1
 544 286 l 1
 528 212 l 1
 398 212 l 1
 385 148 l 1
 515 148 l 1
 499 75 l 1
 370 75 l 1
 354 0 l 1
 191 0 l 1
EndSplineSet
EndChar

StartChar: brokenbar
Encoding: 166 166 144
Width: 281
GlyphClass: 1
Flags: W
HStem: -161 21G<59 187> 648 20G<59 187>
VStem: 59 128<-161 150 358 668>
LayerCount: 2
Fore
SplineSet
59 -161 m 1
 59 150 l 1
 187 150 l 1
 187 -161 l 1
 59 -161 l 1
59 358 m 1
 59 668 l 1
 187 668 l 1
 187 358 l 1
 59 358 l 1
EndSplineSet
EndChar

StartChar: section
Encoding: 167 167 145
Width: 563
GlyphClass: 1
Flags: W
HStem: -174 120<94.5144 212.222> 563 116<305.307 457.664>
VStem: 15 156<261.976 335.612> 147 152<486.776 552.291> 231 157<-35.4319 47.0648> 365 161<198.326 269.888>
LayerCount: 2
Fore
SplineSet
223.603303603 349.962230353 m 0xc4
 220.144406376 349.428881275 171 337.219539841 171 298.80104362 c 0
 171 278.280988427 185.02007766 264.8502136 251.142175053 216.59895334 c 0
 272.769769628 200.816654596 286.666666348 190.333333579 303.999999043 177.000000736 c 1
 344.666666348 193.666666912 365 211.894783751 365 231.515193461 c 0
 365 255.888888889 333.621281515 278.551296684 333.620318984 278.551991845 c 0
 282.545045465 315.439689387 233.668014457 351.514171304 223.603303603 349.962230353 c 0xc4
388 41.4373148911 m 0xc8
 388 -58.8353637818 295.12346372 -174 143.275712052 -174 c 0
 100.786735072 -174 -28.5781907758 -164.983147667 -59 -49 c 1
 81 -2 l 1
 85.0181072491 -38.1629652417 118.964864451 -54 152.430263419 -54 c 0
 192.583039563 -54 231 -31.2011463305 231 3.45901891415 c 0
 231 34.5791862928 200.029687263 58.943664932 154.712727834 89.4296194573 c 0
 36.8379592063 168.727191081 15 207.300866837 15 264.393195059 c 0xe8
 15 299.265446122 23.1473525255 378.055257197 159 429 c 1
 151 448.333333333 147 468.704570655 147 489.594121925 c 0
 147 574.284983761 212.746838494 679 375.597296976 679 c 0
 426.87765471 679 531.255809042 668.616755383 571 578 c 1
 432 532 l 1
 425.186089499 553.804513603 395.203916288 563 369.854477845 563 c 0
 367.13095629 563 299 562.893854973 299 525.283463452 c 0
 299 508.345940807 312.817470742 491.398028806 329.403866201 479.87188959 c 0
 341.838421498 471.230927434 452.050104654 390.51453715 483.87420818 361.019026565 c 0
 511.191843259 335.700242834 526 306.184350954 526 265.938576277 c 0xd4
 526 175.322992426 450.930036284 124.610922285 375 97 c 1
 383.666666667 81.6666666667 388 63.0964275524 388 41.4373148911 c 0xc8
EndSplineSet
EndChar

StartChar: dieresis
Encoding: 168 168 146
Width: 455
GlyphClass: 1
Flags: W
HStem: 578 141<148.853 248.642 342.852 442.126>
VStem: 128 141<598.35 698.141> 322 140<598.345 698.126>
LayerCount: 2
Fore
SplineSet
462 647.974254812 m 0
 462 608.907827988 432.008563355 578 392.980661015 578 c 0
 353.944491076 578 322 608.920924291 322 647.99521175 c 0
 322 687.057091539 353.924206954 719 392.975038329 719 c 0
 432.053976572 719 462 687.011093121 462 647.974254812 c 0
269 647.994906798 m 0
 269 608.935586331 238.047135717 578 198.991185169 578 c 0
 159.944491076 578 128 608.920924291 128 647.99521175 c 0
 128 687.057091539 159.924206954 719 198.989103373 719 c 0
 238.061163153 719 269 687.045375674 269 647.994906798 c 0
EndSplineSet
EndChar

StartChar: copyright
Encoding: 169 169 147
Width: 814
GlyphClass: 1
Flags: W
HStem: -12 69<302.672 513.056> 145 85<366.512 471.859> 437 85<365.461 468.388> 610 69<302.504 512.62>
VStem: 62 70<228.466 438.295> 227 112<257.008 410.786> 684 70<228.368 439.129>
LayerCount: 2
Fore
SplineSet
572 231 m 1
 548.737392647 191.121244538 500.933845058 145 410.062297031 145 c 0
 292.026214613 145 227 222.817045679 227 332.06449621 c 0
 227 456.779951493 311.743501476 522 410.996164656 522 c 0
 454.831047205 522 534.661059375 509.278554125 573 428 c 1
 481 394 l 1
 474.719460683 410.050267144 458.236349583 437 418.145107838 437 c 0
 382.270789739 437 339 415.421425158 339 335.917824629 c 0
 339 305.127535091 345.49006091 230 419.796466813 230 c 0
 448.657077518 230 469.333333333 241.333333333 482 264 c 1
 572 231 l 1
132 334.057530818 m 0
 132 182.656094983 253.906547271 57 407.764308853 57 c 0
 559.851440966 57 684 179.780579989 684 333.103009247 c 0
 684 485.630598379 561.135303703 610 408.395460128 610 c 0
 256.558787492 610 132 487.097075296 132 334.057530818 c 0
754 334.218475975 m 0
 754 143.528637544 599.282550546 -12 408.118685809 -12 c 0
 217.991650346 -12 62 141.846108945 62 332.736180205 c 0
 62 521.680775198 214.828242344 679 407.099893353 679 c 0
 596.229416639 679 754 526.780622196 754 334.218475975 c 0
EndSplineSet
EndChar

StartChar: questiondown
Encoding: 191 191 148
Width: 634
GlyphClass: 1
Flags: W
HStem: -172 128<168.121 336.207> 325 194<304.256 425.005>
VStem: -21 175.136<-26.7315 42.2827> 268 194<361.416 483.632>
LayerCount: 2
Fore
SplineSet
236.757651321 -172 m 0
 162.136118381 -172 -21 -157.650083537 -21 -13.6036308588 c 0
 -21 80.9447004664 57.8999279088 130.265400948 140.684824837 166.036652708 c 0
 218.415541385 199.623999364 238.731129572 221.827823929 256 265 c 1
 417 265 l 1
 402.512194636 153.926825542 307.054272228 111.024228672 284.392695576 100.907453381 c 0
 174.26593668 51.7437217323 155.227327824 36.4558677703 154.135837333 10.2600959958 c 0
 152.59842675 -26.6377580146 188.383648732 -44 242.986280454 -44 c 0
 274.320654442 -44 354.510312067 -38.282308757 379 22 c 1
 517 -33 l 1
 479.463662718 -99.3432938 404.667949518 -172 236.757651321 -172 c 0
462 421.462600132 m 0
 462 367.024362373 419.044707057 325 364.578388073 325 c 0
 310.354907434 325 268 366.650466103 268 421.393989097 c 0
 268 475.665968126 309.628385548 519 364.505119955 519 c 0
 419.359783003 519 462 475.70081891 462 421.462600132 c 0
EndSplineSet
EndChar

StartChar: germandbls
Encoding: 223 223 149
Width: 631
GlyphClass: 1
Flags: W
HStem: -13 125<253.217 386.396> 0 21G<-23 138.245> 298 117<302 392.893> 566 113<285.785 433.698>
VStem: -23 157<0 157> 424 162<148.303 268.056>
DStem2: -25.7632 -13 131.237 -13 0.207912 0.978148<45.9326 593.168>
LayerCount: 2
Fore
SplineSet
586 225.846877817 m 0x7c
 586 93.5032236686 499.811219062 -13 300.80337074 -13 c 0
 295.879104048 -13 276.217495719 -12.9347913099 253 -11 c 1
 241 123 l 1
 268.333333333 115.666666667 292.71003072 112 311.166407942 112 c 0xbc
 331.147967796 112 424 116.297711822 424 208.769425095 c 0
 424 268.699593896 385 298 307 298 c 2
 277 298 l 1
 302 415 l 1
 328 415 l 2
 340.550078874 415 441.157673728 417.419063545 449.668749683 494.018747143 c 0
 452.488997136 519.400974226 446.649385193 566 359.771253843 566 c 0
 286.402107788 566 246.549045481 532.765984083 224 424 c 2
 134 0 l 1
 -23 0 l 1
 70 435 l 2
 100.305644101 572.89068066 166.109678796 679 363.834322383 679 c 0
 442.109348187 679 602 662.370531652 602 516.323559257 c 0
 602 454.542467135 573.387940555 405.368891524 516 368 c 1
 546.075121712 352.962439144 586 315.920899369 586 225.846877817 c 0x7c
EndSplineSet
EndChar

StartChar: AE
Encoding: 198 198 150
Width: 1016
GlyphClass: 1
Flags: W
HStem: 0 139<602 929> 119 128<354 437> 275 138<660 849> 529 139<685 1042>
DStem2: -65 0 136 0 0.679101 0.734045<136.499 295.156 465.852 630.421>
AnchorPoint: "Anchor-0" 763 668 basechar 0
LayerCount: 2
Fore
SplineSet
354 247 m 1x70
 464 247 l 1
 501 421 l 1
 354 247 l 1x70
-65 0 m 1xb0
 553 668 l 1
 1071 668 l 1
 1042 529 l 1
 685 529 l 1
 660 413 l 1
 879 413 l 1
 849 275 l 1
 631 275 l 1
 602 139 l 1
 959 139 l 1
 929 0 l 1
 411 0 l 1xb0
 437 119 l 1
 241 119 l 1x70
 136 0 l 1
 -65 0 l 1xb0
EndSplineSet
EndChar

StartChar: florin
Encoding: 279 402 151
Width: 390
GlyphClass: 1
Flags: W
HStem: -173 140<-61.3739 17.7288> 381 115<53 111 287 371> 608 121<311.159 419>
DStem2: -7.06199 -173 145.629 -173 0.207912 0.978148<148.197 566.44 715.52 829.936>
LayerCount: 2
Fore
SplineSet
-59 -31 m 1
 -54.8556537112 -31.6907243815 -45.5391611337 -33 -34.5002829777 -33 c 0
 15.0283619734 -33 28.6028882377 -6.64311427409 38 39 c 2
 111 381 l 1
 29 381 l 1
 53 496 l 1
 135 496 l 1
 153 578 l 2
 177.551421666 689.425682947 237.021780692 729 376 729 c 2
 445 729 l 1
 419 608 l 1
 377 608 l 2
 324.04134863 608 309.779579654 600.30470505 302 564 c 2
 287 496 l 1
 395 496 l 1
 371 381 l 1
 263 381 l 1
 179 -16 l 2
 168.858098385 -66.0756392254 135.42357812 -173 -9.12303827967 -173 c 0
 -23.1652391341 -173 -53.038644959 -171.990907068 -87 -164 c 1
 -59 -31 l 1
EndSplineSet
EndChar

StartChar: integral
Encoding: 280 8747 152
Width: 344
GlyphClass: 1
Flags: W
HStem: -174 144<-12.0759 55.0382> 660 20G<185.045 314.575>
VStem: -45 112<-104.338 -42.5359> 85 135<166.768 564.882> 93 135<-57.6677 335.552>
LayerCount: 2
Fore
SplineSet
220 526.419518638 m 0xf0
 220 489.576245384 228 163.979552875 228 97.2530666198 c 0
 228 -68.3179827482 178.743644207 -125.779258657 136.8110128 -151.788105985 c 0
 112.677501666 -166.756992637 86.6292536167 -174 60.1377672208 -174 c 0
 2.91345331013 -174 -45 -140.20383184 -45 -90.8935922747 c 0
 -45 -55.7992318067 -20.7306629309 -30 10.8687887577 -30 c 0
 41.9023744746 -30 67 -54.8835075195 67 -86.4167714888 c 0
 67 -92.7111464241 66 -99 64 -105 c 1
 83.8151610574 -95.6752183259 93 -66.4017273408 93 -22.4270664601 c 0xe8
 93 18.6133462848 85 342.831884282 85 407.13800062 c 0
 85 543.922580023 121.195926858 680 248.893848087 680 c 0
 380.256540244 680 383.545679585 536 302.483449655 536 c 0
 274.479616127 536 246 553.185428829 246 591.229817954 c 0
 246 598.358734808 247 605 249 611 c 1
 229.666666667 601.666666667 220 566.919198028 220 526.419518638 c 0xf0
EndSplineSet
EndChar

StartChar: approxequal
Encoding: 281 8776 153
Width: 556
GlyphClass: 1
Flags: W
HStem: 59 123<284.276 373.468> 118 125<147.641 247.472> 257 123<283.665 374.598> 317 124<147.488 245.719>
LayerCount: 2
Fore
SplineSet
486 206 m 1x80
 476.570407682 113.051161436 439.68577418 59 365.262038789 59 c 0x80
 287.505851983 59 233.67589032 118 181.043522408 118 c 0
 158.083193055 118 141.309789463 106.771999581 140 57 c 1
 36 95 l 1
 45.1163665699 183.558989536 79.9895730239 243 163.383303928 243 c 0x40
 247.863561563 243 295.522133106 182 341.753181123 182 c 0
 362.852649924 182 380.702786818 194.705899068 382 244 c 1
 486 206 l 1x80
486 404 m 1
 476.54877882 312.188137106 439.601336592 257 363.994411683 257 c 0x20
 285.160271974 257 234.107059558 317 181.014793605 317 c 0
 158.071381061 317 141.31039956 305.795183299 140 256 c 1
 36 294 l 1
 45.0421357956 381.837890586 79.5152295462 441 163.111314761 441 c 0x10
 247.995939367 441 295.476757846 380 341.601175346 380 c 0x20
 362.948436416 380 380.704494386 393.066292279 382 441 c 1x10
 486 404 l 1
EndSplineSet
EndChar

StartChar: notequal
Encoding: 282 8800 154
Width: 661
GlyphClass: 1
Flags: W
HStem: 0 21G<64 231.167> 96 129<58 131 374 570> 283 127<58 262 504 570> 475 20G<397.118 564>
LayerCount: 2
Fore
SplineSet
64 0 m 1
 131 96 l 1
 58 96 l 1
 58 225 l 1
 221 225 l 1
 262 283 l 1
 58 283 l 1
 58 410 l 1
 352 410 l 1
 411 495 l 1
 564 495 l 1
 504 410 l 1
 570 410 l 1
 570 283 l 1
 414 283 l 1
 374 225 l 1
 570 225 l 1
 570 96 l 1
 285 96 l 1
 217 0 l 1
 64 0 l 1
EndSplineSet
EndChar

StartChar: lessequal
Encoding: 283 8804 155
Width: 676
GlyphClass: 1
Flags: W
HStem: 0 128<53 565> 490 20G<482.419 565>
LayerCount: 2
Fore
SplineSet
53 0 m 1
 53 128 l 1
 565 128 l 1
 565 0 l 1
 53 0 l 1
565 136 m 1
 53 260 l 1
 53 386 l 1
 565 510 l 1
 565 381 l 1
 228 324 l 1
 565 265 l 1
 565 136 l 1
EndSplineSet
EndChar

StartChar: greaterequal
Encoding: 284 8805 156
Width: 702
GlyphClass: 1
Flags: W
HStem: 0 128<79 591> 490 20G<79 161.581>
LayerCount: 2
Fore
SplineSet
79 0 m 1
 79 128 l 1
 591 128 l 1
 591 0 l 1
 79 0 l 1
79 136 m 1
 79 265 l 1
 416 324 l 1
 79 381 l 1
 79 510 l 1
 591 386 l 1
 591 260 l 1
 79 136 l 1
EndSplineSet
EndChar

StartChar: lozenge
Encoding: 285 9674 157
Width: 607
GlyphClass: 1
Flags: W
DStem2: 38 313 176 313 0.546521 0.837445<75.4199 302.012> 176 313 38 313 0.545572 -0.838064<0 226.591> 301 716 301 502 0.545061 -0.838396<179.417 405.461> 301 124 301 -91 0.544112 0.839013<0 226.043>
LayerCount: 2
Fore
SplineSet
301 124 m 1
 425 313 l 1
 301 502 l 1
 176 313 l 1
 301 124 l 1
301 -91 m 1
 38 313 l 1
 301 716 l 1
 563 313 l 1
 301 -91 l 1
EndSplineSet
EndChar

StartChar: summation
Encoding: 286 8721 158
Width: 793
GlyphClass: 1
Flags: W
HStem: -162 128<283 648> 540 128<283 648>
DStem2: 283 540 113 540 0.641239 -0.767341<0 262.423> 113 -34 283 -34 0.638606 0.769534<108.563 372.975>
LayerCount: 2
Fore
SplineSet
113 -162 m 1
 113 -34 l 1
 350 254 l 1
 113 540 l 1
 113 668 l 1
 648 668 l 1
 648 540 l 1
 283 540 l 1
 522 254 l 1
 283 -34 l 1
 648 -34 l 1
 648 -162 l 1
 113 -162 l 1
EndSplineSet
EndChar

StartChar: minus
Encoding: 287 8722 159
Width: 645
GlyphClass: 1
Flags: W
HStem: 184 128<39 551>
LayerCount: 2
Fore
SplineSet
39 184 m 1
 39 312 l 1
 551 312 l 1
 551 184 l 1
 39 184 l 1
EndSplineSet
EndChar

StartChar: uni2215
Encoding: 288 8725 160
Width: 482
GlyphClass: 1
Flags: W
HStem: 0 21G<-55 85.982> 648 20G<398.988 539>
VStem: -55 127<0 127> 413 126<542 668>
DStem2: -55 0 72 0 0.573791 0.819001<72.8715 815.627>
LayerCount: 2
Fore
SplineSet
-55 0 m 1
 413 668 l 1
 539 668 l 1
 72 0 l 1
 -55 0 l 1
EndSplineSet
EndChar

StartChar: uni2219
Encoding: 289 8729 161
Width: 281
GlyphClass: 1
Flags: W
HStem: 157 194<64.7472 185.015>
VStem: 27 195<194.629 315.08>
LayerCount: 2
Fore
SplineSet
222 255.466795422 m 0
 222 200.977392669 178.856525421 157 125.038847622 157 c 0
 71.452105686 157 27 200.600781579 27 255.391644745 c 0
 27 310.050191372 71.2376667669 351 125.123654214 351 c 0
 179.22411406 351 222 309.723572822 222 255.466795422 c 0
EndSplineSet
EndChar

StartChar: radical
Encoding: 290 8730 162
Width: 615
GlyphClass: 1
Flags: W
HStem: -162 21G<262.373 432.277> 93 132<19 161> 648 20G<496.679 646>
VStem: 502 144<524 668>
DStem2: 332 29 427 -162 0.255124 0.966908<0 661.226>
LayerCount: 2
Fore
SplineSet
271 -162 m 1
 161 93 l 1
 19 93 l 1
 19 225 l 1
 252 225 l 1
 332 29 l 1
 502 668 l 1
 646 668 l 1
 427 -162 l 1
 271 -162 l 1
EndSplineSet
EndChar

StartChar: infinity
Encoding: 291 8734 163
Width: 757
GlyphClass: 1
Flags: W
HStem: 97 107<159.392 265.652 459.327 564.395> 306 106<160.135 266.689 458.435 566.328>
VStem: 29 120<216.473 293.773> 576 120<215.671 294.608>
LayerCount: 2
Fore
SplineSet
429 256 m 1
 453.096850061 226.233302865 481.793919646 204 516.910403796 204 c 0
 552.191487082 204 576 226.442216668 576 255.948259337 c 0
 576 287.773292844 548.30202129 306 516.281872221 306 c 0
 501.523863107 306 468.208938552 302.128163002 429 256 c 1
149 255.593792988 m 0
 149 226.579196918 172.784287359 204 208.127103507 204 c 0
 243.366686472 204 272.07653625 226.447485956 296 256 c 1
 263.751424228 293.939500909 234.747069008 306 209.098761587 306 c 0
 176.942503163 306 149 287.042595375 149 255.593792988 c 0
362 176 m 1
 319.655020008 130.923085815 270.338699782 97 199.926266978 97 c 0
 100.068299914 97 29 165.227913795 29 254.318642302 c 0
 29 350.045254175 111.04956477 412 204.074517754 412 c 0
 269.935079262 412 319.778602572 380.945358553 362 336 c 1
 412.058208164 387.622527169 462.614610375 412 520.500239804 412 c 0
 611.086058059 412 696 352.300927441 696 255.403375044 c 0
 696 170.008504601 630.049672525 97 525.664364934 97 c 0
 454.523932983 97 404.357279449 130.909992844 362 176 c 1
EndSplineSet
EndChar

StartChar: uni03A9
Encoding: 292 937 164
Width: 744
GlyphClass: 1
Flags: W
HStem: 0 115<53 190 502 639> 564 116<264.761 426.277>
VStem: 53 121<309.843 474.008> 371 268<0 115> 517 122<308.848 472.752>
LayerCount: 2
Fore
SplineSet
174 393.423507242 m 0xe8
 174 305.277610326 239.265405012 234.961160242 321 223 c 1
 321 0 l 1
 53 0 l 1
 53 115 l 1
 190 115 l 1
 190 139 l 1
 157.83359198 159.565408406 53 238.062567387 53 384.440478696 c 0
 53 547.418302702 182.959013177 680 345.14535961 680 c 0
 504.467018225 680 639 552.060505248 639 391.8772408 c 0xe8
 639 349.195214922 629.448215024 219.169038483 502 139 c 1
 502 115 l 1
 639 115 l 1
 639 0 l 1
 371 0 l 1
 371 223 l 1xf0
 455.70084843 235.100121204 517 306.813271683 517 392.463885042 c 0
 517 487.534710427 441.475468901 564 346.136345663 564 c 0
 252.346603841 564 174 489.999831131 174 393.423507242 c 0xe8
EndSplineSet
EndChar

StartChar: estimated
Encoding: 293 8494 165
Width: 610
GlyphClass: 1
Flags: W
HStem: -12 70<202.733 377.71> 249 66<167 415> 440 70<205.206 379.307>
VStem: 30 137<146.462 249 315 350.147>
LayerCount: 2
Fore
SplineSet
289.931542024 440 m 0
 275.380469338 440 217.764604076 438.672851587 167 394 c 1
 167 315 l 1
 415 315 l 1
 415 394 l 1
 380.333333333 424.666666667 339.3914783 440 289.931542024 440 c 0
507 103 m 1
 486.214927379 72.1193206768 417.973257512 -12 293.440693995 -12 c 0
 147.567552208 -12 30 103.419868194 30 248.194618873 c 0
 30 392.895019747 147.446828394 510 290.431322346 510 c 0
 429.03402991 510 552 399.962451013 552 249 c 1
 167 249 l 1
 167 104 l 1
 188.052495165 85.4738042551 229.703286305 58 290.478190392 58 c 0
 350.839805385 58 404.144898205 85.1014131756 439 128 c 1
 507 103 l 1
EndSplineSet
EndChar

StartChar: partialdiff
Encoding: 294 8706 166
Width: 594
GlyphClass: 1
Flags: W
HStem: -12 119<215.482 338.327> 315 120<212.454 339.487> 560 120<152 311.006>
VStem: 21 151<149.596 275.077> 379 157<161.298 496.728>
LayerCount: 2
Fore
SplineSet
172 211.468261525 m 0
 172 152.96907491 218.097275431 107 275.930843213 107 c 0
 333.531038612 107 379 152.598830842 379 211.439338825 c 0
 379 270.078494784 333.841695439 315 275.911792079 315 c 0
 217.781024 315 172 269.766435266 172 211.468261525 c 0
536 313.456577056 m 0
 536 233.143563924 523.410118751 -12 272.274644957 -12 c 0
 118.762453032 -12 21 79.5988699481 21 207.760865831 c 0
 21 330.458673074 110.603952858 435 243.879764452 435 c 0
 265.884350943 435 363.422909841 432.150217206 422 356 c 1
 411.43850446 513.102246165 315.718374152 569.393677205 152 560 c 1
 152 680 l 1
 273.758961258 680 536 680 536 313.456577056 c 0
EndSplineSet
EndChar

StartChar: uni0394
Encoding: 295 916 167
Width: 715
GlyphClass: 1
Flags: W
HStem: 0 115<159 415> 660 20G<277.706 296.324>
DStem2: -29 0 159 115 0.421425 0.906863<183.517 512.239> 287 680 287 418 0.422521 -0.906353<237.465 566.172>
LayerCount: 2
Fore
SplineSet
159 115 m 1
 415 115 l 1
 287 418 l 1
 159 115 l 1
-29 0 m 1
 287 680 l 1
 604 0 l 1
 -29 0 l 1
EndSplineSet
EndChar

StartChar: product
Encoding: 296 8719 168
Width: 790
GlyphClass: 1
Flags: W
HStem: -161 21G<113 241 517 645> 552 116<241 517>
VStem: 113 128<-161 552> 517 128<-161 552>
LayerCount: 2
Fore
SplineSet
113 -161 m 1
 113 668 l 1
 645 668 l 1
 645 -161 l 1
 517 -161 l 1
 517 552 l 1
 241 552 l 1
 241 -161 l 1
 113 -161 l 1
EndSplineSet
EndChar

StartChar: pi
Encoding: 297 960 169
Width: 638
GlyphClass: 1
Flags: W
HStem: 1 104<477.218 536> 380 116<53 117 248 398 529 617>
VStem: 36 131<0 131> 338 139<65.3693 200.875>
DStem2: 36 0 167 0 0.207912 0.978148<27.2364 388.537> 316.918 0 447.691 0 0.207912 0.978148<161.692 388.554>
LayerCount: 2
Fore
SplineSet
458 1 m 2
 357.119546081 1 338 44.8791711756 338 85.8594650603 c 0
 338 96.6814181775 339.333333333 107.333333333 342 118 c 2
 398 380 l 1
 248 380 l 1
 167 0 l 1
 36 0 l 1
 117 380 l 1
 28 380 l 1
 53 496 l 1
 642 496 l 1
 617 380 l 1
 529 380 l 1
 480 152 l 2
 478 143.333333333 477 136.445569166 477 131.022218787 c 0
 477 112.617554819 488.516498587 105 526 105 c 2
 559 105 l 1
 536 1 l 1
 458 1 l 2
EndSplineSet
EndChar

StartChar: hungarumlaut
Encoding: 298 733 170
Width: 502
GlyphClass: 1
Flags: W
HStem: 572 154<222.696 247.889 297 303.368 429.696 454.889>
LayerCount: 2
Fore
SplineSet
455.885549215 726 m 0
 510.368144978 726 530 696.452386569 530 651.234126644 c 0
 530 639.500000001 528.677988635 638.68346357 528.675600252 638.681988392 c 0
 452.699356833 591.755485103 436.333333435 582.000000058 419.000000304 572.000000175 c 1
 297 572 l 1
 409 684 l 2
 450.762407016 725.762407016 451 726 455.885549215 726 c 0
248.885549215 726 m 0
 303.368144978 726 323 696.452386569 323 651.234126644 c 0
 323 639.500000001 321.677988635 638.68346357 321.675600207 638.681988364 c 0
 245.699356833 591.755485103 229.333333435 582.000000058 212.000000304 572.000000175 c 1
 89 572 l 1
 108.333333333 590.666666667 132 614 160 642 c 2
 202 684 l 2
 243.762407016 725.762407016 244 726 248.885549215 726 c 0
EndSplineSet
EndChar

StartChar: tilde
Encoding: 299 732 171
Width: 461
GlyphClass: 1
Flags: W
HStem: 568 80<307.39 412.184> 607 82<186.397 294.215>
LayerCount: 2
Fore
SplineSet
492 652.101017619 m 0x80
 492 617.583880418 442.050933568 568 365.007189138 568 c 0x80
 296.67907573 568 278.632769199 607 233.308884886 607 c 0
 209.238049579 607 191.333333333 596 178 574 c 1
 89 574 l 1
 96.4480402704 597.999240871 131.423821951 689 233.833817695 689 c 0x40
 302.574172407 689 322.2715406 648 366.431456432 648 c 0
 411.126663514 648 414.784265971 690 451.028028671 690 c 0
 474.33905045 690 492 672.625778492 492 652.101017619 c 0x80
EndSplineSet
EndChar

StartChar: endash
Encoding: 300 8211 172
Width: 536
GlyphClass: 1
Flags: W
HStem: 185 128<38 464>
LayerCount: 2
Fore
SplineSet
38 185 m 1
 38 313 l 1
 464 313 l 1
 464 185 l 1
 38 185 l 1
EndSplineSet
EndChar

StartChar: emdash
Encoding: 301 8212 173
Width: 870
GlyphClass: 1
Flags: W
HStem: 185 128<38 798>
LayerCount: 2
Fore
SplineSet
38 185 m 1
 38 313 l 1
 798 313 l 1
 798 185 l 1
 38 185 l 1
EndSplineSet
EndChar

StartChar: trademark
Encoding: 302 8482 174
Width: 1013
GlyphClass: 1
Flags: W
HStem: 301 367<234 343 487 594 859 966> 575 93<113 234 343 463>
VStem: 234 109<301 575> 487 107<301 558> 859 107<301 558>
DStem2: 726 432 775 301 0.310675 0.950516<0 161.085>
LayerCount: 2
Fore
SplineSet
234 301 m 1xb8
 234 575 l 1
 113 575 l 1
 113 668 l 1
 463 668 l 1
 463 575 l 1
 343 575 l 1x78
 343 301 l 1
 234 301 l 1xb8
487 301 m 1xb8
 487 668 l 1xb8
 660 668 l 1
 726 432 l 1
 793 668 l 1x78
 966 668 l 1
 966 301 l 1
 859 301 l 1
 859 558 l 1
 775 301 l 1
 678 301 l 1
 594 558 l 1
 594 301 l 1
 487 301 l 1xb8
EndSplineSet
EndChar

StartChar: Euro
Encoding: 303 8364 175
Width: 704
GlyphClass: 1
Flags: W
HStem: -12 130<304.098 458.836> 231 74<43 96.1625 250 314> 366 74<71 103 279 418> 553 127<364.248 517.472>
LayerCount: 2
Fore
SplineSet
647 140 m 1
 598.879622024 61.257563312 515.154787622 -12 371.622592369 -12 c 0
 283.306854211 -12 112.376270398 15.7351181982 94 231 c 1
 -13 231 l 1
 43 305 l 1
 94 305 l 1
 96 323 99 343.333333333 103 366 c 1
 15 366 l 1
 71 440 l 1
 123 440 l 1
 146.192982413 505.053487257 229.223685798 680 454.177683652 680 c 0
 544.340086584 680 658.39476846 651.895956197 700 525 c 1
 561 475 l 1
 539.131316015 528.456783074 500.415231954 553 445.175914545 553 c 0
 402.559042151 553 326.37380823 538.391755554 279 440 c 1
 474 440 l 1
 418 366 l 1
 254 366 l 1
 250.857142857 351.857142857 250.857142857 351.857142857 245 305 c 1
 370 305 l 1
 314 231 l 1
 250 231 l 1
 256.874162539 196.004263435 282.347613176 118 375.497666303 118 c 0
 409.911800906 118 473.957737383 128.646965149 518 194 c 1
 647 140 l 1
EndSplineSet
EndChar

StartChar: uni2113
Encoding: 304 8467 176
Width: 506
GlyphClass: 1
Flags: W
HStem: -12 122<192.453 324.098> 573 107<315.628 382.146>
VStem: 385 125<472.806 570.322>
DStem2: 18 218 69 157 0.851774 0.523909<0 11.4821 295.853 400.52> 33.3738 -12 188.166 -12 0.207912 0.978148<283.136 333.129 425.784 618.677>
LayerCount: 2
Fore
SplineSet
270 373 m 1
 335.094772135 412.896795824 385 487.831196751 385 538.064282478 c 0
 385 561.304799474 374.317869017 573 353.041495767 573 c 0
 322.921346702 573 306.791481734 549.561667803 296 501 c 2
 270 373 l 1
400 52 m 1
 369.680794579 29.5413293177 302.584924751 -12 217.337506706 -12 c 0
 167.568190047 -12 64 2.15928350111 64 110.192108167 c 0
 64 125.383757399 66.0479755716 139.28785343 69 157 c 1
 -5 112 l 1
 18 218 l 1
 92 265 l 1
 132 452 l 2
 169.606291134 631.353080794 255.81868995 680 358.886028147 680 c 0
 423.855127404 680 510 660.67021993 510 556.18273325 c 0
 510 443.082552859 409.068329204 367.72373069 247 264 c 1
 231 191 l 2
 217.723217792 129.926801845 234.958311736 110 273.999186578 110 c 0
 305.499200088 110 334.265215551 122.972390108 362 141 c 1
 400 52 l 1
EndSplineSet
EndChar

StartChar: Lslash
Encoding: 305 321 177
Width: 595
GlyphClass: 1
Flags: W
HStem: 0 140<219 510> 648 20G<166.75 331>
VStem: 171 160<508 668>
DStem2: 11 300 76 225 0.883116 0.469155<0 22.2159 308.235 426.159> 28.1748 0 189.242 0 0.207912 0.978148<176.615 230.027 355.952 362.747 488.257 683.098>
LayerCount: 2
Fore
SplineSet
28 0 m 1
 76 225 l 1
 -15 177 l 1
 11 300 l 1
 103 348 l 1
 171 668 l 1
 331 668 l 1
 283 445 l 1
 459 538 l 1
 433 414 l 1
 258 322 l 1
 219 140 l 1
 539 140 l 1
 510 0 l 1
 28 0 l 1
EndSplineSet
EndChar

StartChar: lslash
Encoding: 306 322 178
Width: 342
GlyphClass: 1
Flags: W
HStem: 0 124<198.974 269> 487 20G<338.462 371.738> 648 20G<141.799 301>
VStem: 29 168<60.9158 218.031> 146 155<513 668>
DStem2: 4.24208 0 160.426 0 0.207912 0.978148<197.041 233.155 356.917 360.715 484.269 682.876>
LayerCount: 2
Fore
SplineSet
197 159.886650001 m 0xe8
 197 136.1113624 209.466863552 124 252 124 c 2
 294 124 l 1
 269 0 l 1
 172 0 l 2
 85.4935194135 0 29 25.108751006 29 96.7227667405 c 0xf0
 29 109.923585942 30.9195717172 123.057644444 34 140 c 2
 53 228 l 1
 -23 188 l 1
 3 309 l 1
 79 349 l 1
 146 668 l 1
 301 668 l 1
 254 442 l 1
 376 507 l 1
 350 385 l 1
 229 321 l 1
 204 205 l 2
 200.381394886 189.319377839 197 172.268773227 197 159.886650001 c 0xe8
EndSplineSet
EndChar

StartChar: oslash
Encoding: 248 248 179
Width: 577
GlyphClass: 1
Flags: W
HStem: -12 118<189.584 311.72> 392 118<229.553 349.926>
VStem: 5 156<201.135 310.467> 382 156<184.154 305.138>
DStem2: 38 85 88 32 0.731777 0.681544<-85.1142 4.96997 168.386 402.353 562.927 650.931>
AnchorPoint: "Anchor-1" 317 496 basechar 0
LayerCount: 2
Fore
SplineSet
189 125 m 1
 203.752069314 112.930125107 221.81439583 106 246.255559724 106 c 0
 326.979703978 106 387.654684614 181.596938502 382 306 c 1
 189 125 l 1
161 200 m 1
 351 376 l 1
 336.333333333 386.666666667 317.780067685 392 296.605015848 392 c 0
 221.069139552 392 161 324.133366405 161 200 c 1
538 292.581941777 m 0
 538 130.505794441 431.863101016 -12 241.346463494 -12 c 0
 180.226602616 -12 128.666666667 2.66666666667 88 32 c 1
 26 -27 l 1
 -25 27 l 1
 38 85 l 1
 9.60508040291 129.36706187 5 174.528415342 5 207.447435613 c 0
 5 372.025486767 120.103159577 510 303.459850464 510 c 0
 359.761274605 510 410.513508664 496.990994224 451 470 c 1
 514 529 l 1
 565 475 l 1
 503 418 l 1
 529.812972456 378.569158153 538 337.596089631 538 292.581941777 c 0
EndSplineSet
EndChar

StartChar: Oslash
Encoding: 216 216 180
Width: 761
GlyphClass: 1
Flags: W
HStem: -12 130<269.73 431.402> 550 130<329.627 489.787>
VStem: 30 169<232.14 400.939> 562 168<266.401 449.926>
DStem2: 4 43 55 -11 0.731548 0.68179<0.492286 99.3271 275.949 678.327 848.572 943.891>
AnchorPoint: "Anchor-1" 456 668 basechar 0
LayerCount: 2
Fore
SplineSet
241 163 m 1
 265.59191093 135.819466866 300.139565115 118 348.426368431 118 c 0
 475.639495798 118 562 241.680620285 562 376.58297312 c 0
 562 404.683253569 558.252881485 427.790779248 551 451 c 1
 241 163 l 1
409.660095362 550 m 0
 281.089104175 550 199 418.05107926 199 287.488163151 c 0
 199 265.475860471 201.333333333 247 206 231 c 1
 510 514 l 1
 493.869414417 528.517527025 461.537973889 550 409.660095362 550 c 0
730 391.183489656 m 0
 730 166.268622444 570.49990972 -12 331.420813715 -12 c 0
 297.195318579 -12 200.424926866 -8.34665086457 124 54 c 1
 55 -11 l 1
 4 43 l 1
 75 109 l 1
 45 154.333333333 30 206.596451892 30 269.646609221 c 0
 30 450.464400311 153.367632048 680 427.74338054 680 c 0
 507.37289468 680 573.333333333 660.666666667 626 622 c 1
 695 686 l 1
 746 633 l 1
 678 569 l 1
 712.666666667 523 730 465.327955671 730 391.183489656 c 0
EndSplineSet
EndChar

StartChar: Thorn
Encoding: 222 222 181
Width: 623
GlyphClass: 1
Flags: W
HStem: 0 21G<-23 143.219> 128 141<196 399.471> 426 137<259 423.171> 648 20G<114.749 280>
VStem: 444 168<308.957 409.941>
DStem2: -23 0 139 0 0.207912 0.978148<33.6817 164.498 308.654 469.293 609.328 682.926>
LayerCount: 2
Fore
SplineSet
444 363.357205202 m 0
 444 407.904648668 418.912521444 426 332 426 c 2
 230 426 l 1
 196 269 l 1
 294 269 l 2
 331.445832174 269 444 269 444 363.357205202 c 0
347 563 m 2
 572.641654822 563 612 476.065708673 612 377.689883955 c 0
 612 155.466190699 411.16436213 128 255 128 c 2
 166 128 l 1
 139 0 l 1
 -23 0 l 1
 119 668 l 1
 280 668 l 1
 259 563 l 1
 347 563 l 2
EndSplineSet
EndChar

StartChar: ae
Encoding: 230 230 182
Width: 886
GlyphClass: 1
Flags: W
HStem: -12 118<498.15 657.012> 209 90<172.663 332 487 715.337> 398 112<546.023 688.486> 407 103<212.195 344.24>
VStem: 715 135<299 371.097>
AnchorPoint: "Anchor-1" 451 496 basechar 0
LayerCount: 2
Fore
SplineSet
144.303322898 148.491159992 m 0xc8
 135.99269146 76.8119638362 251.305043909 66.9073718681 302.914050056 142.335919313 c 0
 315.069822915 160.102048876 322.734501967 181.203505901 332 209 c 1
 215.048595351 210.344269019 150.443539941 201.450531986 144.303322898 148.491159992 c 0xc8
716 309.295625976 m 0
 716 326.487079091 710.661109669 398 628.663263111 398 c 0xe8
 614.303300861 398 514.105892713 395.80675969 487 299 c 1
 715 299 l 1
 715.666666667 301.666666667 716 305 716 309.295625976 c 0
372 78 m 1
 331.635475432 32.9419260634 265.213408776 -13 167.416068827 -13 c 0
 128.150562417 -13 -18 -5.59410552043 -18 121.028479443 c 0
 -18 268.522690217 180.302454217 299 345 299 c 1
 352.290817253 335.454086267 354 345.244571742 354 354.208368743 c 0
 354 373.865047139 345.780891015 407 286.299423228 407 c 0
 260.55037477 407 205.635641789 400.790660976 181 348 c 1
 63 394 l 1
 102.205569008 453.840079012 171.91689451 510 297.133240993 510 c 0xd8
 323.305511955 510 403.544735407 507.546493302 442 452 c 1
 478.386340302 481.109072241 532.630089248 510 617.379274231 510 c 0
 683.4587274 510 850 492.436004856 850 299.764004429 c 0
 850 270.229349873 846.086652114 241.598599726 839 209 c 1
 473 209 l 1
 471.341048377 199.046290262 471 193.147643803 471 188.983457698 c 0
 471 172.464397944 476.366935477 106 570.146266187 106 c 0
 613.639151777 106 655.295892118 120.295892118 678 143 c 1
 791 98 l 1
 760.067678611 58.9663563421 685.538737461 -12 553.741497085 -12 c 0
 508.269907792 -12 422.970410476 -3.55265676214 372 78 c 1
EndSplineSet
EndChar

StartChar: eth
Encoding: 240 240 183
Width: 581
GlyphClass: 1
Flags: W
HStem: -12 113<178.259 308.176> 338 118<193.765 325.625> 604 122<233 313.114>
VStem: 2 139<139.034 283.535>
DStem2: 252 530 289 483 0.769758 0.638336<0 82.9649 233.556 317.422>
LayerCount: 2
Fore
SplineSet
141 207.349314962 m 0
 141 143.363980541 178.791631365 101 242.444548355 101 c 0
 322.120371972 101 357 167.376333878 357 231.641753582 c 0
 357 265.109355186 347.54054034 338 263.754058228 338 c 0
 188.357651231 338 141 278.976469995 141 207.349314962 c 0
233 726 m 1
 308.533953131 723.563420867 372.748953669 706.679259017 424 673 c 1
 498 734 l 1
 535 686 l 1
 470 633 l 1
 586.529391953 506.112439873 555.577888991 265.787508126 488.166578859 140.595075024 c 0
 468.937738374 104.884371266 397.989215738 -12 228.185220127 -12 c 0
 71.69784227 -12 2 87.2702833286 2 203.677197641 c 0
 2 358.133378437 124.707854502 456 252.306486598 456 c 0
 320.48331428 456 382.296569504 428.060660318 409 384 c 1
 410.812521572 403.031476501 416.263338425 492.365936495 366 547 c 1
 289 483 l 1
 252 530 l 1
 315 584 l 1
 300.100312626 591.057746651 266.360718905 604 207 604 c 1
 233 726 l 1
EndSplineSet
EndChar

StartChar: thorn
Encoding: 254 254 184
Width: 589
GlyphClass: 1
Flags: W
HStem: -161 21G<-55 105.237> -12 119<209.08 329.56> 392 119<289.498 397.259> 648 20G<116.754 276>
VStem: -55 156<-161 -5> 121 155<513 668> 393 158<184.135 361.713>
DStem2: -55 -161 101 -161 0.207912 0.978148<32.4342 273.673 640.629 847.477>
LayerCount: 2
Fore
SplineSet
173 219.205039631 m 0
 173 193.873931293 178.624283649 107 263.7553913 107 c 0
 346.596540201 107 393 189.263111776 393 280.759770123 c 0
 393 331.593388347 378.676737798 392 307.566915737 392 c 0
 214.130876782 392 173 287.707247353 173 219.205039631 c 0
296.562067393 -12 m 0
 220.867018424 -12 168.212479033 28.5263066117 151 75 c 1
 101 -161 l 1
 -55 -161 l 1
 121 668 l 1
 276 668 l 1
 227 434 l 1
 241.978430858 455.932702328 288.12737131 511 373.523533026 511 c 0
 420.993844671 511 551 493.983853004 551 303.882679356 c 0
 551 124.809087775 435.639426329 -12 296.562067393 -12 c 0
EndSplineSet
EndChar

StartChar: multiply
Encoding: 215 215 185
Width: 618
GlyphClass: 1
Flags: W
DStem2: 58 112 149 22 0.706133 0.708079<0.531059 192.158 318.904 513.89> 284 337 194 248 0.706133 -0.708079<-195.692 -0.533004 126.746 317.667>
LayerCount: 2
Fore
SplineSet
149 22 m 1
 58 112 l 1
 194 248 l 1
 55 385 l 1
 146 476 l 1
 284 337 l 1
 421 476 l 1
 512 385 l 1
 373 248 l 1
 509 112 l 1
 418 22 l 1
 284 158 l 1
 149 22 l 1
EndSplineSet
EndChar

StartChar: divide
Encoding: 247 247 186
Width: 645
GlyphClass: 1
Flags: W
HStem: -12 159<242.957 348.911> 186 128<40 552> 351 159<241.729 348.916>
VStem: 217 158<14.1042 120.912 377.076 484.439>
LayerCount: 2
Fore
SplineSet
375 67.567883346 m 0
 375 23.7142733275 339.131518574 -12 295.938216244 -12 c 0
 252.582348273 -12 217 23.9836132108 217 67.538582335 c 0
 217 111.285641382 252.896897121 147 295.951731445 147 c 0
 338.803670828 147 375 111.621454484 375 67.567883346 c 0
40 186 m 1
 40 314 l 1
 552 314 l 1
 552 186 l 1
 40 186 l 1
375 431.038850794 m 0
 375 386.588157792 339.129362488 351 295.992752875 351 c 0
 252.912873149 351 217 386.494613836 217 430.959871791 c 0
 217 475.454199777 252.959845984 510 296.047774926 510 c 0
 339.103758644 510 375 475.505405036 375 431.038850794 c 0
EndSplineSet
EndChar

StartChar: OE
Encoding: 307 338 187
Width: 1095
GlyphClass: 1
Flags: W
HStem: -12 131<270.199 436.197> 0 140<681 1008> 275 138<739 928> 529 139<764 1120> 550 130<332.904 488.143>
VStem: 31 169<196.351 400.153>
LayerCount: 2
Fore
SplineSet
200 293.017690822 m 0xac
 200 201.764625487 244.310701047 119 349.413384438 119 c 0
 477.756307548 119 563 242.413025341 563 375.556731046 c 0
 563 503.163342203 484.698997281 550 408.885845915 550 c 0
 280.749248277 550 200 416.203986405 200 293.017690822 c 0xac
528 59 m 1
 499.548705904 30.5487059043 437.777838015 -12 327.638952851 -12 c 0
 152.60252746 -12 31 95.4637210648 31 278.416881088 c 0
 31 477.806761014 175.433852378 680 419.7551661 680 c 0xac
 468.956311697 680 580.989947522 671.80036823 642 596 c 1
 657 668 l 1
 1150 668 l 1
 1120 529 l 1
 764 529 l 1
 739 413 l 1
 957 413 l 1
 928 275 l 1
 710 275 l 1
 681 140 l 1
 1037 140 l 1
 1008 0 l 1
 515 0 l 1x74
 528 59 l 1
EndSplineSet
EndChar

StartChar: oe
Encoding: 308 339 188
Width: 937
GlyphClass: 1
Flags: W
HStem: -12 119<180.283 309.255 547.204 702.692> 210 90<540 767.999> 398 113<237.299 351.647 600.322 743.757>
VStem: -1 156<129.511 298.138> 768 134<300.704 372.154>
LayerCount: 2
Fore
SplineSet
155 185.706994884 m 0
 155 159.581219649 167.458424531 107 239.655118556 107 c 0
 377.965182091 107 382 299.976130995 382 314.139100705 c 0
 382 338.730558365 369.835792164 392 297.096570212 392 c 0
 159.522519061 392 155 201.44783205 155 185.706994884 c 0
768 320.536320698 m 0
 768 373.259878679 725.731149452 398 678.264450533 398 c 0
 627.244914493 398 559.523735488 369.41772618 540 300 c 1
 766 300 l 1
 766.683633754 303.418168768 768 311.232038793 768 320.536320698 c 0
413 56 m 1
 378.921538979 28.7372311836 310.836184187 -12 212.229188608 -12 c 0
 81.523189925 -12 -1 59.5759455392 -1 176.41283464 c 0
 -1 208.470549205 5.2127110146 409.839737459 185.622830392 485.950256572 c 0
 224.853034738 502.50049903 267.27607998 511 308.217833995 511 c 0
 348.02547342 511 438.314787584 502.964861107 483 427 c 1
 522.474549642 475.873251938 610.092151789 511 694.505833446 511 c 0
 753.448579581 511 902 493.87332751 902 308.417460564 c 0
 902 277.985343339 898 245.333333333 890 210 c 1
 522 210 l 1
 520.59292793 201.557567582 520 194.409184371 520 188.072949478 c 0
 520 131.719735363 566.900422302 106 619.81157673 106 c 0
 659.244263585 106 700.28514856 120.28514856 723 143 c 1
 834 99 l 1
 787.945547785 49.1860006656 710.722903246 -12 595.460536733 -12 c 0
 566.356557629 -12 464.692699976 -8.09894796978 413 56 c 1
EndSplineSet
EndChar

StartChar: Aring
Encoding: 197 197 192
Width: 698
GlyphClass: 2
Flags: W
HStem: 0 21G<-65 132.092 455.311 623> 119 128<255 427> 794 85<392.857 471.486>
VStem: 300 85<707.859 786.526> 479 86<707.324 785.863>
DStem2: -65 0 121 0 0.508034 0.861337<94.4943 230.524 375.321 522.352> 327.8 665.966 395 501 0.508034 0.861337<-397.856 -107.951> 515.991 643.983 395 501 0.16392 -0.986474<121.217 377.026> 623 0 427 247 0.16392 -0.986474<-531.597 -275.787 -147.06 -109.6>
AnchorPoint: "Anchor-2" 577 10 basechar 0
AnchorPoint: "Anchor-1" 461 879 basechar 0
AnchorPoint: "Anchor-0" 296 0 basechar 0
LayerCount: 2
Fore
SplineSet
565 748.438822195 m 0
 565 727.486404197 560.005344089 680.295436759 515.990788875 643.983360643 c 1
 623 0 l 1
 458 0 l 1
 442 119 l 1
 187 119 l 1
 121 0 l 1
 -65 0 l 1
 327.800209866 665.965838047 l 1
 311.689167984 686.941946901 300 713.811252613 300 746.488664554 c 0
 300 820.803252227 360.455586523 879 432.134711302 879 c 0
 502.859145639 879 565 822.343167216 565 748.438822195 c 0
255 247 m 1
 427 247 l 1
 395 501 l 1
 255 247 l 1
385 747.450696181 m 0
 385 721.25679504 406.232216144 700 432.428520856 700 c 0
 458.423508927 700 479 720.931336666 479 747.517418686 c 0
 479 774.123241017 458.392941268 794 432.374405819 794 c 0
 405.919566308 794 385 773.451026122 385 747.450696181 c 0
EndSplineSet
EndChar

StartChar: Ccedilla
Encoding: 199 199 203
Width: 673
GlyphClass: 2
Flags: W
HStem: -195 54<183.808 300.597> 550 130<322.165 482.301>
VStem: 32 168<185.563 402.781> 304 91<-135.13 -87.173>
AnchorPoint: "Anchor-1" 428 668 basechar 0
AnchorPoint: "Anchor-0" 270 -195 basechar 0
LayerCount: 2
Fore
SplineSet
395 -104.98248405 m 0
 395 -124.581283386 387.680678294 -195 267.981592777 -195 c 0
 257.70930986 -195 201.709679631 -194.481390599 166 -178 c 1
 192 -128 l 1
 211.333333333 -136.666666667 230.713464706 -141 248.21972947 -141 c 0
 256.968391097 -141 304 -139.917773032 304 -111.380989531 c 0
 304 -105.117414969 301.734185779 -84 263.833952996 -84 c 0
 245.392017338 -84 246.984813887 -89 237.127202678 -89 c 0
 225.561705748 -89 217 -82.1173572277 217 -71.6542305359 c 0
 217 -66.5971911867 219 -61.6666666667 223 -57 c 2
 263.840249994 -7.87332247132 l 1
 168.591970144 6.1657663189 32 62.7294286219 32 274.163108376 c 0
 32 492.986082071 178.306177521 680 414.214093185 680 c 0
 494.379229968 680 627.298472335 658.404663399 671 525 c 1
 525 476 l 1
 512.520004915 505.119988531 483.588116311 550 405.992897986 550 c 0
 264.767038165 550 200 401.334055123 200 284.096636489 c 0
 200 116.223917815 332.79502031 100.797786805 408.130787093 134.280349819 c 0
 434.699360932 146.088604859 458.666666667 166 480 194 c 1
 616 141 l 1
 566.100043101 63.9805013075 477.496579244 -12 322.097320509 -12 c 0
 320.424855676 -12 318.787828874 -11.9911992789 317.188668469 -11.9735978367 c 1
 288 -47 l 1
 298 -45 307.782961351 -44 316.229065965 -44 c 0
 332.383595617 -44 395 -47.6582697247 395 -104.98248405 c 0
EndSplineSet
EndChar

StartChar: ccedilla
Encoding: 231 231 204
Width: 531
GlyphClass: 2
Flags: W
HStem: -195 54<84.8079 201.597> -12 117<218.192 313.088> 392 118<233.209 360.833>
VStem: 2 154<132.605 299.872> 205 91<-135.13 -87.173>
AnchorPoint: "Anchor-1" 318 496 basechar 0
AnchorPoint: "Anchor-0" 212 0 basechar 0
LayerCount: 2
Fore
SplineSet
296 -104.98248405 m 0
 296 -124.581283386 288.680678294 -195 168.981592777 -195 c 0
 158.70930986 -195 102.709679631 -194.481390599 67 -178 c 1
 93 -128 l 1
 112.333333333 -136.666666667 131.713464706 -141 149.21972947 -141 c 0
 157.968391097 -141 205 -139.917773032 205 -111.380989531 c 0
 205 -105.117414969 202.734185779 -84 164.833952996 -84 c 0
 146.392017338 -84 147.984813887 -89 138.127202678 -89 c 0
 126.561705748 -89 118 -82.1173572277 118 -71.6542305359 c 0
 118 -66.5971911867 120 -61.6666666667 124 -57 c 2
 165.512203483 -7.06503059342 l 1
 140.064718756 -2.36631508776 2 25.4996733506 2 199.717367336 c 0
 2 369.146837154 132.57982864 510 316.965799615 510 c 0
 405.040511899 510 475.544040536 477.86240892 511 382 c 1
 378 336 l 1
 369.962745798 372.741733495 345.628086302 392 301.834275262 392 c 0
 189.480948146 392 156 265.245441336 156 199.878361671 c 0
 156 154.943756028 171.821273989 105 243.631976215 105 c 0
 277.461390165 105 310.928594208 116.083879654 341 154 c 1
 464 107 l 1
 448.534166188 85.4122736371 378.509062322 -12 222.9648039 -12 c 0
 221.376972934 -12 219.78639888 -11.9898488734 218.192044483 -11.9695466201 c 1
 189 -47 l 1
 199 -45 208.782961351 -44 217.229065965 -44 c 0
 233.383595617 -44 296 -47.6582697247 296 -104.98248405 c 0
EndSplineSet
EndChar

StartChar: Eth
Encoding: 208 208 249
Width: 738
GlyphClass: 1
Flags: W
HStem: 0 133<214 386.759> 275 137<36 82 273 359> 537 131<300 477.588>
VStem: 538 168<273.861 483.094>
DStem2: 24 0 185.73 0 0.207912 0.978148<169.597 281.049 454.767 582.649>
LayerCount: 2
Fore
SplineSet
538 390.141885243 m 0
 538 496.43410314 495.843072633 537 358 537 c 2
 300 537 l 1
 273 412 l 1
 389 412 l 1
 359 275 l 1
 244 275 l 1
 214 133 l 1
 277 133 l 2
 362.333333333 133 427.821131839 157.880181329 474.926068172 209.235187105 c 0
 516.487798506 254.546847995 538 314.212580554 538 390.141885243 c 0
706 382.811663684 m 0
 706 158.152293675 540.378779338 0 247 0 c 2
 24 0 l 1
 82 275 l 1
 6 275 l 1
 36 412 l 1
 112 412 l 1
 166 668 l 1
 360 668 l 2
 547.648168831 668 706 602.485376876 706 382.811663684 c 0
EndSplineSet
EndChar

StartChar: one.tf
Encoding: 317 -1 251
Width: 640
GlyphClass: 1
Flags: W
HStem: 0 124<51 207 360 474> 447 123<147 273.702> 647 20G<332.338 475>
DStem2: 180.643 0 333.643 0 0.207912 0.978148<158.581 456.642>
LayerCount: 2
Fore
SplineSet
147 570 m 1
 254.195403439 570 307.676228747 588.081965995 357 667 c 1
 475 667 l 1
 360 124 l 1
 501 124 l 1
 474 0 l 1
 25 0 l 1
 51 124 l 1
 207 124 l 1
 274 447 l 1
 120 447 l 1
 147 570 l 1
EndSplineSet
Substitution2: "'pnum' Proportional Numbers lookup 13 subtable" one
Substitution2: "'aalt' Access All Alternates lookup 0 subtable" one
EndChar

StartChar: Aogonek
Encoding: 328 260 262
Width: 698
GlyphClass: 2
Flags: W
HStem: -173 76<499.981 594.949> 0 21G<-65 132.092> 119 128<255 427> 648 20G<317.204 515.323>
VStem: 388 128<-134.211 -45.3194>
DStem2: -65 0 121 0 0.508034 0.861337<94.4943 230.524 375.321 578.832> 512 668 395 501 0.16392 -0.986474<145.562 401.372> 623 0 442 119 0.16392 -0.986474<-480.395 -275.787 -147.06 -27.0468>
AnchorPoint: "Anchor-2" 577 10 basechar 0
AnchorPoint: "Anchor-1" 427 668 basechar 0
AnchorPoint: "Anchor-0" 296 0 basechar 0
LayerCount: 2
Fore
SplineSet
255 247 m 1
 427 247 l 1
 395 501 l 1
 255 247 l 1
516 -75.2854734415 m 0
 516 -94.2080575 543.626237851 -97 556.814195246 -97 c 0
 576.69659595 -97 600.710436184 -90.6541610904 610 -88 c 1
 594 -164 l 2
 593.170367581 -164.191453635 552.704117557 -173 513.574476051 -173 c 0
 486.386859333 -173 388 -168.747593395 388 -99.6738888349 c 0
 388 -55.8130415014 427.670313708 -13.5078121821 479 0 c 1
 458 0 l 1
 442 119 l 1
 187 119 l 1
 121 0 l 1
 -65 0 l 1
 329 668 l 1
 512 668 l 1
 623 0 l 1
 564.2783572 -27.2124686145 516 -50.2707438994 516 -75.2854734415 c 0
EndSplineSet
EndChar

StartChar: aogonek
Encoding: 329 261 263
Width: 545
GlyphClass: 2
Flags: W
HStem: -173 76<322.981 417.949> -12 103<91.7404 233.705> 407 103<201.698 333.418>
VStem: -18 161<102.828 180.554> 211 128<-134.211 -45.3194> 344 150<316.696 395.595>
AnchorPoint: "Anchor-2" 446 0 basechar 0
AnchorPoint: "Anchor-1" 298 496 basechar 0
AnchorPoint: "Anchor-0" 219 0 basechar 0
LayerCount: 2
Fore
SplineSet
143 140.366793758 m 0
 143 108.421813267 171.185737583 91 210.391653098 91 c 0
 262.310752642 91 302.469416755 121.552338595 325 213 c 2
 328 225 l 1
 224.430253201 216.369187767 143 194.664416752 143 140.366793758 c 0
339 -75.2854734415 m 0
 339 -94.2080575 366.626237851 -97 379.814195246 -97 c 0
 399.696595949 -97 423.710436184 -90.6541610904 433 -88 c 1
 417 -164 l 2
 416.170367581 -164.191453635 375.704117557 -173 336.574476051 -173 c 0
 309.386859333 -173 211 -168.747593395 211 -99.6738888349 c 0
 211 -55.8130415014 250.670313708 -13.5078121821 302 0 c 1
 297 0 l 1
 292 59 l 1
 257.870436372 17.843761507 214.651291014 -12 140.840745464 -12 c 0
 42.6400134147 -12 -18 40.8258119102 -18 121.954832151 c 0
 -18 248.887200628 130.440221532 294.584284085 338 315 c 1
 342.198861331 330.745729993 344 343.072559874 344 354.063289837 c 0
 344 370.812467193 339.817065755 407 275.905856431 407 c 0
 247.232286506 407 194.134145066 399.716025142 170 348 c 1
 53 394 l 1
 85.4078611376 444.317468608 148.852452145 510 288.237493463 510 c 0
 430.431194497 510 494 441.643744844 494 361.979845158 c 0
 494 289.239145929 441 133.572482479 441 0 c 1
 446 0 l 1
 387.2783572 -27.2124686145 339 -50.2707438994 339 -75.2854734415 c 0
EndSplineSet
EndChar

StartChar: Eogonek
Encoding: 334 280 268
Width: 582
GlyphClass: 2
Flags: W
HStem: -173 76<339.981 434.949> 0 139<168 319 419.126 495> 274 139<226 414> 529 139<251 607>
VStem: 228 128<-134.211 -45.3194>
DStem2: -59.7723 -173 101.682 -173 0.207912 0.978148<352.539 490.618 632.61 751.273>
AnchorPoint: "Anchor-2" 463 -12 basechar 0
AnchorPoint: "Anchor-1" 384 668 basechar 0
AnchorPoint: "Anchor-0" 238 0 basechar 0
LayerCount: 2
Fore
SplineSet
356 -75.2854734415 m 0
 356 -94.2080575 383.626237851 -97 396.814195246 -97 c 0
 416.696595949 -97 440.710436184 -90.6541610904 450 -88 c 1
 434 -164 l 2
 433.170367581 -164.191453635 392.704117557 -173 353.574476051 -173 c 0
 326.386859333 -173 228 -168.747593395 228 -99.6738888349 c 0
 228 -55.8130415014 267.670313708 -13.5078121821 319 0 c 1
 -23 0 l 1
 119 668 l 1
 637 668 l 1
 607 529 l 1
 251 529 l 1
 226 413 l 1
 443 413 l 1
 414 274 l 1
 197 274 l 1
 168 139 l 1
 524 139 l 1
 495 0 l 1
 463 0 l 1
 404.2783572 -27.2124686145 356 -50.2707438994 356 -75.2854734415 c 0
EndSplineSet
EndChar

StartChar: eogonek
Encoding: 335 281 269
Width: 567
GlyphClass: 2
Flags: W
HStem: -171 76<204.981 299.936> 209 90<168 396> 399 111<228.379 367.624>
VStem: 3 149<134.896 250.924> 93 128<-131.847 -43.548> 396 134<299 371.071>
AnchorPoint: "Anchor-2" 333 2 basechar 0
AnchorPoint: "Anchor-1" 321 496 basechar 0
AnchorPoint: "Anchor-0" 230 0 basechar 0
LayerCount: 2
Fore
SplineSet
396 310.480556102 m 0xe4
 396 376.009605345 348.346234501 399 302.58070931 399 c 0
 247.31231054 399 186.611821863 365.470792369 168 299 c 1
 395 299 l 1
 395.666666667 301.666666667 396 305 396 310.480556102 c 0xe4
221 -72.9337225224 m 0xec
 221 -93.303084598 251.741045513 -95 261.95432428 -95 c 0
 281.676582936 -95 305.646809219 -88.6723402231 315 -86 c 1
 299 -162 l 2
 298.170367581 -162.191453635 257.704117557 -171 218.574476051 -171 c 0
 191.386859333 -171 93 -166.747593395 93 -96.947228898 c 0xec
 93 -54.4330239342 129.499745841 -20.1986397041 162.274320145 -5.60248128612 c 1
 100.462019159 7.25710825397 3 51.091777772 3 197.968829664 c 0
 3 355.951050262 115.757110697 510 302.529253754 510 c 0
 360.718673831 510 530 495.047197546 530 296.707538425 c 0
 530 267.374213913 526.297351365 238.18940546 519 209 c 1
 154 209 l 1
 152.341048377 199.046290262 152 193.147643803 152 188.245263058 c 0xf4
 152 129.703123777 200.63389902 106 251.375296876 106 c 0
 264.877125634 106 323.678285804 107.678285804 358 142 c 1
 472 98 l 1
 425.707999519 40.9424180117 375.839687724 19.0680044358 334.3650703 2.19886900718 c 0
 266.372328797 -25.4560880686 221 -48.1872303378 221 -72.9337225224 c 0xec
EndSplineSet
EndChar

StartChar: Iogonek
Encoding: 342 302 276
Width: 459
GlyphClass: 2
Flags: W
HStem: -173 76<118.981 213.949> 0 124<13 98 267 331> 544 124<129 195 355 447>
VStem: 7 128<-134.211 -45.3194>
DStem2: 41.8707 -173 203.871 -173 0.207912 0.978148<337.317 733.169>
AnchorPoint: "Anchor-2" 242 0 basechar 0
AnchorPoint: "Anchor-1" 301 668 basechar 0
AnchorPoint: "Anchor-0" 151 0 basechar 0
LayerCount: 2
Fore
SplineSet
135 -75.2854734415 m 0
 135 -94.2080575 162.626237851 -97 175.814195246 -97 c 0
 195.696595949 -97 219.710436184 -90.6541610904 229 -88 c 1
 213 -164 l 2
 212.170367581 -164.191453635 171.704117557 -173 132.574476051 -173 c 0
 105.386859333 -173 7 -168.747593395 7 -99.6738888349 c 0
 7 -55.8130415012 46.6703137081 -13.5078121821 98 0 c 1
 -13 0 l 1
 13 124 l 1
 105 124 l 1
 195 544 l 1
 103 544 l 1
 129 668 l 1
 474 668 l 1
 447 544 l 1
 355 544 l 1
 267 124 l 1
 358 124 l 1
 331 0 l 1
 242 0 l 1
 183.2783572 -27.2124686145 135 -50.2707438994 135 -75.2854734415 c 0
EndSplineSet
EndChar

StartChar: iogonek
Encoding: 343 303 277
Width: 338
GlyphClass: 2
Flags: W
HStem: -173 76<80.9807 175.949> 380 116<51 129> 578 179<208.974 325.487>
VStem: -31 128<-134.211 -45.3194> 177 179<609.067 726.365>
DStem2: 11.2277 -173 167.228 -173 0.207912 0.978148<193.294 565.402>
AnchorPoint: "Anchor-2" 204 0 basechar 0
AnchorPoint: "Anchor-1" 247 719 basechar 0
AnchorPoint: "Anchor-0" 110 0 basechar 0
LayerCount: 2
Fore
SplineSet
356 667.971706706 m 0
 356 618.136768497 316.952634986 578 266.500131225 578 c 0
 215.990324469 578 177 618.227993432 177 667.952919202 c 0
 177 717.470472911 215.6657933 757 266.429567517 757 c 0
 316.994082098 757 356 717.780189062 356 667.971706706 c 0
97 -75.2854734415 m 0
 97 -94.2080575 124.626237851 -97 137.814195246 -97 c 0
 157.696595949 -97 181.710436184 -90.6541610904 191 -88 c 1
 175 -164 l 2
 174.170367581 -164.191453635 133.704117557 -173 94.5744760509 -173 c 0
 67.3868593324 -173 -31 -168.747593395 -31 -99.6738888349 c 0
 -31 -55.8130415013 8.67031370808 -13.5078121821 60 0 c 1
 48 0 l 1
 129 380 l 1
 26 380 l 1
 51 496 l 1
 309 496 l 1
 204 0 l 1
 145.2783572 -27.2124686145 97 -50.2707438994 97 -75.2854734415 c 0
EndSplineSet
EndChar

StartChar: uni0326
Encoding: 348 806 282
Width: 0
GlyphClass: 4
Flags: W
HStem: -246 45<-38 4.58744>
VStem: 30 120<-178.062 -78.6707>
AnchorPoint: "Anchor-3" 38 -251 basemark 0
AnchorPoint: "Anchor-3" 91 0 mark 0
AnchorPoint: "Anchor-0" 91 0 mark 0
LayerCount: 2
Fore
SplineSet
86 -40 m 1
 116.225574271 -52.2791395478 150 -76.9560696352 150 -125.298922674 c 0
 150 -201.425905596 66.2469455451 -250.254977369 -38 -246 c 1
 -81 -201 l 1
 -43.8571330616 -201 30 -193.538706706 30 -135.771567242 c 0
 30 -124.483145677 27.1796879696 -87.6690341763 -15 -80 c 1
 86 -40 l 1
EndSplineSet
EndChar

StartChar: Uogonek
Encoding: 357 370 291
Width: 679
GlyphClass: 2
Flags: W
HStem: -173 76<252.981 347.951> 648 20G<115.691 281 535.733 701>
VStem: 26 162<143.211 333.414> 120 161<507 668> 141 128<-133.81 -45.0061> 540 161<507 668>
DStem2: -59.8388 -173 101.924 -173 0.207912 0.978148<420.413 860.013> 360.924 -173 522.161 -173 0.207912 0.978148<342.608 859.854>
AnchorPoint: "Anchor-2" 376 0 basechar 0
AnchorPoint: "Anchor-1" 414 668 basechar 0
AnchorPoint: "Anchor-0" 287 0 basechar 0
LayerCount: 2
Fore
SplineSet
269 -75.1447978008 m 0xcc
 269 -95.4795402415 300.597383764 -97 310.161091622 -97 c 0
 329.690025697 -97 353.689496651 -90.660143814 363 -88 c 1
 347 -164 l 2
 346.170367581 -164.191453635 305.704117557 -173 266.574476051 -173 c 0
 239.386859333 -173 141 -168.747593395 141 -98.8717629322 c 0xcc
 141 -56.5213789762 177.140806238 -23.1910685996 207.621734727 -8.81831165528 c 1
 147.39756322 -1.69367630495 26 26.2425592228 26 187.107942546 c 0xe4
 26 219.942945518 31.0577678661 254.936250042 39 292 c 2
 120 668 l 1
 281 668 l 1xd4
 198 279 l 2
 192.589940936 250.597189912 188 225.354932936 188 203.078202719 c 0xe4
 188 148.952803814 215.096077548 117 294.627497445 117 c 0
 384.02950933 117 432.178828509 157.376259693 457 279 c 1
 540 668 l 1
 701 668 l 1
 621 292 l 2
 573.239510473 67.5256992228 483.721921454 11.8931866445 364.303897211 -5.47681325682 c 1
 315.114455473 -28.7554962191 269 -50.5789557056 269 -75.1447978008 c 0xcc
EndSplineSet
EndChar

StartChar: uogonek
Encoding: 358 371 292
Width: 578
GlyphClass: 2
Flags: W
HStem: -173 76<332.981 427.949> -164 76<390.749 427> -12 118<135.783 254.425> 476 20G<81.7246 241 401.725 561>
VStem: 17 162<117.96 275.922> 86 155<341 496> 221 128<-134.16 -45.7944> 406 155<341 496>
DStem2: -56.5347 -173 99.2769 -173 0.207912 0.978148<389.604 684.015> 263.489 -173 419.228 -173 0.207912 0.978148<316.742 684.01>
AnchorPoint: "Anchor-2" 456 0 basechar 0
AnchorPoint: "Anchor-1" 322 496 basechar 0
AnchorPoint: "Anchor-0" 236 0 basechar 0
LayerCount: 2
Fore
SplineSet
349 -75.2854734415 m 0xbb
 349 -94.2080575 376.626237851 -97 389.814195246 -97 c 0xbb
 409.696595949 -97 433.710436184 -90.6541610904 443 -88 c 1
 427 -164 l 2x7b
 426.170367581 -164.191453635 385.704117557 -173 346.574476051 -173 c 0
 319.386859333 -173 221 -168.747593395 221 -99.5726887098 c 0
 221 -55.7601355061 260.46726975 -11.5060251865 320.846421678 1.96580252606 c 1
 316 64 l 1
 299.348499508 37.040427775 255.637369881 -12 152.594696415 -12 c 0
 118.970625039 -12 17 -6.77819545878 17 133.160490946 c 0xbb
 17 158.539612161 20.3539196625 185.108078228 27 220 c 2
 86 496 l 1
 241 496 l 1xb5
 186 235 l 2
 183.072811761 220.364058807 179 195.695315646 179 174.234561913 c 0
 179 115.323503795 209.690081577 106 232.459397655 106 c 0
 255.21401422 106 325.564126066 115.311469465 350 234 c 2
 406 496 l 1
 561 496 l 1
 456 0 l 1
 397.2783572 -27.2124686145 349 -50.2707438994 349 -75.2854734415 c 0xbb
EndSplineSet
EndChar

StartChar: Hbar
Encoding: 367 294 301
Width: 740
GlyphClass: 1
Flags: W
HStem: 0 21G<3 168.307 440 605.234> 274 139<252 498> 496 98<71 108 290 546 727 760> 648 20G<140.676 305 577.676 743>
VStem: 3 161<0 161> 440 161<0 161>
DStem2: 3 0 164 0 0.207912 0.978148<33.4738 313.753 455.745 506.992 640.69 682.926> 440 0 601 0 0.207912 0.978148<33.4738 280.071 422.271 507.2 640.69 682.926>
LayerCount: 2
Fore
SplineSet
252 413 m 1
 528 413 l 1
 546 496 l 1
 269 496 l 1
 252 413 l 1
3 0 m 1
 108 496 l 1
 50 496 l 1
 71 594 l 1
 129 594 l 1
 145 668 l 1
 305 668 l 1
 290 594 l 1
 566 594 l 1
 582 668 l 1
 743 668 l 1
 727 594 l 1
 781 594 l 1
 760 496 l 1
 706 496 l 1
 601 0 l 1
 440 0 l 1
 498 274 l 1
 223 274 l 1
 164 0 l 1
 3 0 l 1
EndSplineSet
EndChar

StartChar: hbar
Encoding: 368 295 302
Width: 644
GlyphClass: 1
Flags: W
HStem: 0 21G<43 203.252 366 526.27> 392 118<356.699 495.205> 555 78<82 161 328 434>
VStem: 43 156<0 156> 366 156<0 156> 431 161<228.312 381.243>
DStem2: 43 0 199 0 0.207912 0.978148<32.4342 402.401 473.082 567.405 678.422 713.518> 366 0 522 0 0.207912 0.978148<32.4342 372.916>
LayerCount: 2
Fore
SplineSet
431 328.695374121 m 0xf4
 431 378.129462211 407.849806365 392 373.496159912 392 c 0
 310.934954538 392 271 346 253 254 c 1
 199 0 l 1
 43 0 l 1
 161 555 l 1
 65 555 l 1
 82 633 l 1
 177 633 l 1
 191 698 l 1
 342 698 l 1
 328 633 l 1
 451 633 l 1
 434 555 l 1
 312 555 l 1
 286 432 l 1
 317.104512025 474.953849939 379.75599043 510 456.631520387 510 c 0
 533.778539305 510 592 474.705879135 592 366.50403432 c 0xf4
 592 340.190231875 588.556651452 312.471926967 582 281 c 2
 522 0 l 1
 366 0 l 1xf8
 422 263 l 2
 428 289 431 310.899888641 431 328.695374121 c 0xf4
EndSplineSet
EndChar

StartChar: dcroat
Encoding: 384 273 318
Width: 638
GlyphClass: 1
Flags: W
HStem: -13 118<157.337 272.04> -1 21G<338.438 489.952> 392 118<223.529 347.772> 555 78<304 435 606 656>
VStem: 3 155<137.952 316.48>
LayerCount: 2
Fore
SplineSet
158 220.505151313 m 0xb8
 158 183.586783803 167.306620809 105 246.146987143 105 c 0
 339.416316475 105 379 214.984112865 379 283.813097974 c 0
 379 312.429653899 372.157604046 392 289.104036466 392 c 0
 198.68929874 392 158 297.699690962 158 220.505151313 c 0xb8
335 63 m 1
 293.72639346 9.7437334966 242.889185583 -13 183.593560654 -13 c 0xb8
 131.080138291 -13 88.4588923241 4.83844945443 55.7715539241 40.0895006701 c 0
 20.4588923241 78.1717827878 3 129.824958845 3 195.344622397 c 0
 3 351.757152982 102.498481837 510 258.052345614 510 c 0
 293.550184461 510 374.484191937 501.759258163 406 421 c 1
 435 555 l 1
 287 555 l 1
 304 633 l 1
 451 633 l 1
 465 698 l 1
 620 698 l 1
 614.666666667 674.666666667 610 653 606 633 c 1
 673 633 l 1
 656 555 l 1
 589 555 l 1
 529.029949293 279.13776675 490.904761905 103.761904762 489 -1 c 1
 340 -1 l 1x78
 335 63 l 1
EndSplineSet
EndChar

StartChar: Scedilla
Encoding: 389 350 323
Width: 642
GlyphClass: 2
Flags: W
HStem: -195 54<160.808 277.597> -12 126<294.277 397.133> 551 129<245.687 410.582>
VStem: 61 163<446.852 529.415> 281 91<-135.13 -87.173> 424 164<139.896 222.711>
AnchorPoint: "Anchor-1" 370 668 basechar 0
AnchorPoint: "Anchor-0" 247 -195 basechar 0
LayerCount: 2
Fore
SplineSet
372 -104.98248405 m 0
 372 -124.581283386 364.680678294 -195 244.981592777 -195 c 0
 234.70930986 -195 178.709679631 -194.481390599 143 -178 c 1
 169 -128 l 1
 188.333333333 -136.666666667 207.713464706 -141 225.21972947 -141 c 0
 233.968391097 -141 281 -139.917773032 281 -111.380989531 c 0
 281 -105.117414969 278.734185779 -84 240.833952996 -84 c 0
 222.392017338 -84 223.984813887 -89 214.127202678 -89 c 0
 202.561705748 -89 194 -82.1173572277 194 -71.6542305359 c 0
 194 -66.5971911867 196 -61.6666666667 200 -57 c 2
 241.046030993 -7.62578880577 l 1
 149.989461361 5.23493630712 51.0229154957 52.4577314787 10 157 c 1
 165 209 l 1
 183.175166846 134.02743676 263.382628447 114 315.458612452 114 c 0
 370.566113797 114 424 136.427033875 424 181.215534355 c 0
 424 297.953320896 61 246.660314942 61 476.535251653 c 0
 61 625.057084228 212.531868406 680 338.23398707 680 c 0
 417.684648835 680 542.195956171 658.050655956 606 535 c 1
 451 483 l 1
 445.555343383 497.658690892 419.173812321 551 327.857756314 551 c 0
 305.062368633 551 224 547.675982178 224 489.630807178 c 0
 224 366.63022362 588 434.268476637 588 202.842321319 c 0
 588 59.2349146571 447.838033597 -12 305.458269068 -12 c 0
 301.917506107 -12 298.154186603 -11.9559455205 294.276802866 -11.8678365614 c 1
 265 -47 l 1
 275 -45 284.782961351 -44 293.229065965 -44 c 0
 309.383595617 -44 372 -47.6582697247 372 -104.98248405 c 0
EndSplineSet
Substitution2: "'locl' Localized Forms in Latin lookup 8 subtable" uni0218
Substitution2: "'aalt' Access All Alternates lookup 0 subtable" uni0218
EndChar

StartChar: scedilla
Encoding: 390 351 324
Width: 515
GlyphClass: 2
Flags: W
HStem: -195 54<87.8079 204.597> -13 109<220.426 290.521> 399 111<178.72 322.684>
VStem: 30 144<332.732 389.688> 208 91<-135.13 -87.173> 306 148<110.003 168.164>
AnchorPoint: "Anchor-1" 274 496 basechar 0
AnchorPoint: "Anchor-0" 174 -195 basechar 0
LayerCount: 2
Fore
SplineSet
299 -104.98248405 m 0
 299 -124.581283386 291.680678294 -195 171.981592777 -195 c 0
 161.70930986 -195 105.709679631 -194.481390599 70 -178 c 1
 96 -128 l 1
 115.333333333 -136.666666667 134.713464706 -141 152.21972947 -141 c 0
 160.968391097 -141 208 -139.917773032 208 -111.380989531 c 0
 208 -105.117414969 205.734185779 -84 167.833952996 -84 c 0
 149.392017338 -84 150.984813887 -89 141.127202678 -89 c 0
 129.561705748 -89 121 -82.1173572277 121 -71.6542305359 c 0
 121 -66.5971911867 123 -61.6666666667 127 -57 c 2
 167.723301744 -8.0139993509 l 1
 124.49580798 -1.48130163979 35.8058020155 15.2272355659 -10 116 c 1
 120 160 l 1
 130.683191536 114.596435972 179.017094714 96 223.8872954 96 c 0
 266.781988235 96 306 112.994986334 306 139.681262739 c 0
 306 210.475797935 30 179.745179209 30 349.93780777 c 0
 30 449.939685788 125.289248627 510 251.16449744 510 c 0
 326.337296916 510 420.995409016 488.579561172 471 400 c 1
 339 355 l 1
 329.405453322 379.945821362 303.074801841 399 249.52091854 399 c 0
 232.172552543 399 174 397.0004814 174 361.638707979 c 0
 174 332.871276056 212.499246922 319.398637536 284.822818704 300.187688781 c 0
 377.316806724 275.618973213 454 249.940510987 454 154.658863013 c 0
 454 53.6578058906 367.834480993 -13 229.71122772 -13 c 0
 226.446321163 -13 223.319471029 -12.9627557761 220.426443893 -12.8882673283 c 1
 192 -47 l 1
 202 -45 211.782961351 -44 220.229065965 -44 c 0
 236.383595617 -44 299 -47.6582697247 299 -104.98248405 c 0
EndSplineSet
Substitution2: "'locl' Localized Forms in Latin lookup 8 subtable" uni0219
Substitution2: "'aalt' Access All Alternates lookup 0 subtable" uni0219
EndChar

StartChar: uni0162
Encoding: 395 354 329
Width: 617
GlyphClass: 2
Flags: W
HStem: -195 54<125.808 242.597> 529 139<87 270 430 644>
VStem: 246 91<-135.13 -87.173>
DStem2: 116.551 -195 277.551 -195 0.207912 0.978148<232.83 740.083>
AnchorPoint: "Anchor-1" 398 668 basechar 0
AnchorPoint: "Anchor-0" 200 -251 basechar 0
LayerCount: 2
Fore
SplineSet
337 -104.98248405 m 0
 337 -124.581283386 329.680678294 -195 209.981592777 -195 c 0
 199.70930986 -195 143.709679631 -194.481390599 108 -178 c 1
 134 -128 l 1
 153.333333333 -136.666666667 172.713464706 -141 190.21972947 -141 c 0
 198.968391097 -141 246 -139.917773032 246 -111.380989531 c 0
 246 -105.117414969 243.734185779 -84 205.833952996 -84 c 0
 187.392017338 -84 188.984813887 -89 179.127202678 -89 c 0
 167.561705748 -89 159 -82.1173572277 159 -71.6542305359 c 0
 159 -66.5971911867 161 -61.6666666667 165 -57 c 2
 212.385542169 0 l 1
 158 0 l 1
 270 529 l 1
 57 529 l 1
 87 668 l 1
 673 668 l 1
 644 529 l 1
 430 529 l 1
 319 0 l 1
 269.166666667 0 l 1
 230 -47 l 1
 240 -45 249.782961351 -44 258.229065965 -44 c 0
 274.383595617 -44 337 -47.6582697247 337 -104.98248405 c 0
EndSplineSet
Substitution2: "'locl' Localized Forms in Latin lookup 8 subtable" uni021A
Substitution2: "'aalt' Access All Alternates lookup 0 subtable" uni021A
EndChar

StartChar: acutecomb.case
Encoding: 398 -1 332
Width: 0
GlyphClass: 4
Flags: W
HStem: 731 153<255.861 283.909>
VStem: 123 234
AnchorPoint: "Anchor-4" 263 884 basemark 0
AnchorPoint: "Anchor-4" 196 668 mark 0
AnchorPoint: "Anchor-1" 196 668 mark 0
LayerCount: 2
Fore
SplineSet
357 819.874770337 m 0
 357 796.691537149 348.518675631 786.530949298 246.000000527 731.000000286 c 1
 123 731 l 1
 163.639267552 770.510399009 236.053377779 842.866089923 259.468914894 865.737079664 c 0
 259.469157544 865.737316671 278.166666667 884 304.012964028 884 c 0
 335.626966034 884 357 856.677095227 357 819.874770337 c 0
EndSplineSet
EndChar

StartChar: caron.alt
Encoding: 401 -1 335
Width: 205
GlyphClass: 1
Flags: W
HStem: 496 192<138.849 158>
VStem: 121.81 114.19<584.108 672.633>
LayerCount: 2
Fore
SplineSet
177.730014105 688 m 0
 212.93733912 688 236 664.475851484 236 631.713259569 c 0
 236 617.510641264 231.665991693 607.665738578 221 593 c 2
 158 496 l 1
 75 496 l 1
 92.1343592011 542.507546403 117.611784681 619.574175575 121.809629808 631.747926443 c 0
 139.116705607 681.938446262 159.858224091 688 177.730014105 688 c 0
EndSplineSet
EndChar

StartChar: uni2074
Encoding: 411 8308 345
Width: 433
GlyphClass: 1
Flags: W
HStem: 477 86<206 266 388 426>
DStem2: 91 554 206 563 0.714902 0.699224<88.5068 225.693>
LayerCount: 2
Fore
SplineSet
206 563 m 1
 284 563 l 1
 304 659 l 1
 206 563 l 1
250 402 m 1
 266 477 l 1
 74 477 l 1
 91 554 l 1
 319 777 l 1
 433 777 l 1
 388 563 l 1
 445 563 l 1
 426 477 l 1
 369 477 l 1
 353 402 l 1
 250 402 l 1
EndSplineSet
EndChar

StartChar: gravecomb.case
Encoding: 414 -1 348
Width: 0
GlyphClass: 4
Flags: W
HStem: 731 153<141.779 188.531>
VStem: 88 187
AnchorPoint: "Anchor-4" 203 884 basemark 0
AnchorPoint: "Anchor-4" 198 668 mark 0
AnchorPoint: "Anchor-1" 198 668 mark 0
LayerCount: 2
Fore
SplineSet
88 829.790854464 m 0
 88 860.074781355 112.269043849 884 146.529744971 884 c 0
 175.531016612 884 187.628274516 866.856578421 213.269858853 827.478431048 c 0
 241.727149819 783.776162778 274.563772697 731.581636404 275 731 c 1
 167 731 l 2
 166.315613962 731.547508831 120.711585631 768.4999416 103.402391447 789.930372494 c 0
 92.9350063183 802.889992177 88 816.134659373 88 829.790854464 c 0
EndSplineSet
EndChar

StartChar: uni030B
Encoding: 415 779 349
Width: 0
GlyphClass: 4
Flags: W
HStem: 572 154<202.696 227.889 277 283.368 409.696 434.889>
AnchorPoint: "Anchor-4" 313 726 basemark 0
AnchorPoint: "Anchor-4" 224 496 mark 0
AnchorPoint: "Anchor-1" 224 496 mark 0
LayerCount: 2
Fore
SplineSet
435.885549215 726 m 0
 490.368144978 726 510 696.452386569 510 651.234126644 c 0
 510 639.500000001 508.677988635 638.68346357 508.675600235 638.681988381 c 0
 432.699356833 591.755485103 416.333333435 582.000000058 399.000000304 572.000000175 c 1
 277 572 l 1
 389 684 l 2
 430.762407016 725.762407016 431 726 435.885549215 726 c 0
228.885549215 726 m 0
 283.368144978 726 303 696.452386569 303 651.234126644 c 0
 303 639.500000001 301.677988635 638.68346357 301.675600928 638.68198881 c 0
 225.699356833 591.755485103 209.333333435 582.000000058 192.000000304 572.000000175 c 1
 69 572 l 1
 88.3333333333 590.666666667 112 614 140 642 c 2
 182 684 l 2
 223.762407016 725.762407016 224 726 228.885549215 726 c 0
EndSplineSet
Substitution2: "'case' Case-Sensitive Forms lookup 15 subtable" uni030B.case
Substitution2: "Single Substitution lookup 7 subtable" uni030B.case
Substitution2: "Single Substitution lookup 6 subtable" uni030B.case
Substitution2: "Single Substitution lookup 4 subtable" uni030B.case
Substitution2: "Single Substitution lookup 3 subtable" uni030B.case
Substitution2: "'aalt' Access All Alternates lookup 0 subtable" uni030B.case
EndChar

StartChar: dotlessi
Encoding: 417 305 351
Width: 326
GlyphClass: 2
Flags: W
HStem: 0 21G<48 208.234> 380 116<51 129>
VStem: 48 156<0 156>
DStem2: 48 0 204 0 0.207912 0.978148<32.4342 388.537>
AnchorPoint: "Anchor-2" 211 0 basechar 0
AnchorPoint: "Anchor-1" 202 496 basechar 0
AnchorPoint: "Anchor-0" 110 0 basechar 0
LayerCount: 2
Fore
SplineSet
48 0 m 1
 129 380 l 1
 26 380 l 1
 51 496 l 1
 309 496 l 1
 204 0 l 1
 48 0 l 1
EndSplineSet
EndChar

StartChar: uni00B5
Encoding: 181 181 356
Width: 599
GlyphClass: 2
Flags: W
HStem: -161 21G<-53 107.242> -12 118<162.177 253.893> 0 124<425.057 529.336> 476 20G<81.7686 241 401.725 561>
VStem: 86 155<341 496> 406 155<341 496>
DStem2: -53 -161 103 -161 0.207912 0.978148<32.4342 187.877 372.129 671.543> 266.04 -161 421.132 -161 0.207912 0.978148<333.26 671.742>
AnchorPoint: "Anchor-2" 469 10 basechar 0
LayerCount: 2
Fore
SplineSet
326 72 m 1xbc
 290.596357203 26.2702947203 240.223564188 -12 170.75352132 -12 c 0
 153.599930109 -12 138 -9.66666666667 124 -5 c 1
 124 -38.0746937683 123.291317519 -68.5764664206 117 -95 c 2
 103 -161 l 1
 -53 -161 l 1
 86 496 l 1
 241 496 l 1
 186 235 l 2
 180 208.333333333 177 186.480469078 177 169.766542856 c 0
 177 137.352997148 188.282812606 106 233.341007675 106 c 0xdc
 282.493686025 106 331.328540158 143.310052198 350 234 c 2
 406 496 l 1
 561 496 l 1
 490 163 l 2
 484 137 495.940878106 124 527.444077327 124 c 0
 535.471568139 124 543.688199095 124.844099547 554 130 c 1
 528 6 l 1
 504.915139263 1.14002931855 487.651259558 0 468.065022986 0 c 0
 382.048692284 0 336.528947357 21.9875000556 326 72 c 1xbc
EndSplineSet
EndChar

StartChar: uni0328.case
Encoding: 423 -1 358
Width: 0
GlyphClass: 4
Flags: W
HStem: -174 76<54.9616 153.753> -93.3325 93.3325<81.7107 116.673>
VStem: -52 240
AnchorPoint: "Anchor-2" 188 0 mark 0
LayerCount: 2
Fore
SplineSet
-52 -100.354065051 m 0
 -52 -50.754858738 -3.29309073927 -13.5927272268 47 0 c 1
 188 0 l 1
 118.833407537 -6.91665924626 45.9538088942 -73.0905817309 91.4981573558 -93.3325143803 c 0
 98.5661507159 -96.4738447626 107.341065265 -98 117.131287616 -98 c 0
 137.791625095 -98 155.77929127 -91.2034514551 169 -89 c 1
 153 -164 l 1
 136.997572766 -169.334142411 99.0625356571 -174 70.7270275363 -174 c 0
 39.1962195651 -174 -52 -168.222503801 -52 -100.354065051 c 0
EndSplineSet
EndChar

StartChar: uni0163
Encoding: 427 355 363
Width: 391
GlyphClass: 2
Flags: W
HStem: -195 54<15.8079 132.597> 0 124<219.29 289> 380 116<53 106 286 370>
VStem: 50 167<65.5529 218.477> 136 91<-134.545 -88.0335>
DStem2: -16.332 -195 138.977 -195 0.207912 0.978148<396.507 587.869 738.758 833.228>
AnchorPoint: "Anchor-1" 249 496 basechar 0
AnchorPoint: "Anchor-0" 90 -251 basechar 0
LayerCount: 2
Fore
SplineSet
227 -104.98248405 m 0xe8
 227 -124.581283386 219.680678294 -195 99.9815927777 -195 c 0
 89.70930986 -195 33.709679631 -194.481390599 -2 -178 c 1
 24 -128 l 1
 43.3333333333 -136.666666667 62.7134647058 -141 80.21972947 -141 c 0
 88.968391097 -141 136 -139.917773032 136 -111.380989532 c 0xe8
 136 -105.117414969 133.734185779 -84 95.8339529962 -84 c 0
 77.3920173374 -84 78.9848138873 -89 69.1272026779 -89 c 0
 57.5617057476 -89 49 -82.1173572277 49 -71.654230536 c 0
 49 -66.5971911867 51 -61.6666666667 55 -57 c 2
 111.920286273 11.469329865 l 1
 88.729841454 19.3842100367 50 36.5021321104 50 94.6035756585 c 0
 50 108.86465696 52.3333333333 127.333333333 57 150 c 2
 106 380 l 1
 28 380 l 1
 53 496 l 1
 131 496 l 1
 157 620 l 1
 312 620 l 1
 286 496 l 1
 394 496 l 1
 370 380 l 1
 261 380 l 1
 224 205 l 2
 220.95975053 191.82558563 217 173.035017525 217 160.160768977 c 0xf0
 217 137.251306202 229.538738853 124 272 124 c 2
 315 124 l 1
 289 0 l 1
 193 0 l 2
 181.031651895 0 169.724417742 0.546690383757 159.078297542 1.64007115127 c 1
 160 1 l 1
 120 -47 l 1
 130 -45 139.782961351 -44 148.229065965 -44 c 0
 164.383595617 -44 227 -47.6582697247 227 -104.98248405 c 0xe8
EndSplineSet
Substitution2: "'locl' Localized Forms in Latin lookup 8 subtable" uni021B
Substitution2: "'aalt' Access All Alternates lookup 0 subtable" uni021B
EndChar

StartChar: tildecomb
Encoding: 429 771 365
Width: 0
GlyphClass: 4
Flags: W
HStem: 568 80<307.39 412.184> 607 82<186.397 294.215>
AnchorPoint: "Anchor-4" 307 690 basemark 0
AnchorPoint: "Anchor-4" 266 496 mark 0
AnchorPoint: "Anchor-1" 266 496 mark 0
LayerCount: 2
Fore
SplineSet
492 652.101017619 m 0x80
 492 617.583880418 442.050933568 568 365.007189138 568 c 0x80
 296.67907573 568 278.632769199 607 233.308884886 607 c 0
 209.238049579 607 191.333333333 596 178 574 c 1
 89 574 l 1
 96.4480402704 597.999240871 131.423821951 689 233.833817695 689 c 0x40
 302.574172407 689 322.2715406 648 366.431456432 648 c 0
 411.126663514 648 414.784265971 690 451.028028671 690 c 0
 474.33905045 690 492 672.625778492 492 652.101017619 c 0x80
EndSplineSet
Substitution2: "'case' Case-Sensitive Forms lookup 15 subtable" tildecomb.case
Substitution2: "Single Substitution lookup 7 subtable" tildecomb.case
Substitution2: "Single Substitution lookup 6 subtable" tildecomb.case
Substitution2: "Single Substitution lookup 4 subtable" tildecomb.case
Substitution2: "Single Substitution lookup 3 subtable" tildecomb.case
Substitution2: "'aalt' Access All Alternates lookup 0 subtable" tildecomb.case
EndChar

StartChar: copyleft
Encoding: 431 127279 367
Width: 814
Flags: W
HStem: -12 69<303.061 513.466> 145 85<343.607 450.11> 437 85<347.668 450.776> 610 69<303.064 510.027>
VStem: 62 70<228.093 435.676> 477 112<255.787 408.875> 684 70<228.776 438.675>
LayerCount: 2
Fore
SplineSet
589 331.817665809 m 0
 589 220.547685524 521.751604374 145 408.390566826 145 c 0
 367.574969774 145 288.453687491 154.793678586 244 231 c 1
 334 264 l 1
 346.666666667 241.333333333 366.7175843 230 395.08046818 230 c 0
 432.450563689 230 477 249.674572479 477 329.555817734 c 0
 477 353.766010908 472.907873319 437 399.108596333 437 c 0
 381.989949285 437 350.073619168 432.521471208 335 394 c 1
 243 428 l 1
 258.009256262 459.819623274 300.737756622 522 402.175813265 522 c 0
 508.739592615 522 589 453.376836114 589 331.817665809 c 0
132 334.133105553 m 0
 132 181.457830793 254.842348205 57 407.992893503 57 c 0
 560.987123478 57 684 181.203901071 684 333.122006082 c 0
 684 484.141636895 562.437866498 610 408.819195635 610 c 0
 258.071543503 610 132 488.802074482 132 334.133105553 c 0
754 334.191921359 m 0
 754 144.126683796 599.757580842 -12 408.244188513 -12 c 0
 218.582911604 -12 62 141.121500841 62 332.729013355 c 0
 62 522.391255275 215.419675018 679 407.257013984 679 c 0
 596.844020145 679 754 526.043878581 754 334.191921359 c 0
EndSplineSet
EndChar

StartChar: zero.alt1
Encoding: 432 -1 368
Width: 652
Flags: W
DStem2: 205.554 227.912 243.785 128.646 0.570426 0.821349<0 330.422>
LayerCount: 2
Fore
SplineSet
243.78515625 128.645507812 m 1
 307.666116156 65.1000187952 439.379202854 101.742262127 470.164444292 373.901642936 c 0
 470.16459271 373.902955043 472.771071217 396.945736054 466.334960938 449.091796875 c 1
 243.78515625 128.645507812 l 1
205.553710938 227.912109375 m 1
 425.053710938 543.379882812 l 1
 364.089168628 595.405792405 229.83562019 579.670709532 205.413817607 332.352952006 c 0
 201.370267497 291.404224229 201.582209512 256.710686616 205.553710938 227.912109375 c 1
298.756938987 -12 m 0
 199.492233324 -12 102.513399122 25.2970590337 66.7347041166 141.166624037 c 0
 19.9219148707 292.770183801 45.9493630816 682.283790436 372.45130354 680.003387068 c 0
 623.28198373 678.25149816 649.343407451 448.076248413 613.57697017 277.831647736 c 0
 575.209518478 95.2064832304 467.050728663 -12 298.756938987 -12 c 0
EndSplineSet
Substitution2: "'zero' Slashed Zero lookup 0-1" zero
Substitution2: "'aalt' Access All Alternates lookup 0 subtable" zero
Substitution2: "'tnum' Tabular Numbers lookup 14 subtable" zero
EndChar

StartChar: f_i
Encoding: 433 64257 369
Width: 643
Flags: W
HStem: 0 21G<18 177.211 353 513.234> 380 116<43 99 278 434> 578 179<513.974 630.487> 608 119<309.203 409>
VStem: 18 155<0 155> 353 156<0 156> 482 179<609.067 726.365>
DStem2: 18 0 173 0 0.207912 0.978148<32.2263 388.537 539.218 650.665> 353 0 509 0 0.207912 0.978148<32.4342 388.537>
LayerCount: 2
Fore
SplineSet
661 667.971706706 m 0xea
 661 618.136768497 621.952634986 578 571.500131225 578 c 0
 520.990324469 578 482 618.227993432 482 667.952919202 c 0
 482 717.470472911 520.6657933 757 571.429567517 757 c 0
 621.994082098 757 661 717.780189062 661 667.971706706 c 0xea
353 0 m 1xdc
 434 380 l 1
 253 380 l 1
 173 0 l 1
 18 0 l 1
 99 380 l 1
 19 380 l 1
 43 496 l 1
 124 496 l 1
 135 547 l 2
 166.461668285 688.577507283 198.251716779 727 366 727 c 2
 434 727 l 1
 409 608 l 1
 368 608 l 2
 307.682547771 608 301.49580267 600.052840394 285 527 c 2
 278 496 l 1
 614 496 l 1
 509 0 l 1
 353 0 l 1xdc
EndSplineSet
LCarets2: 1 354
Ligature2: "'liga' Standard Ligatures lookup 0-1" f i
EndChar

StartChar: f_f
Encoding: 434 64256 370
Width: 714
Flags: W
HStem: 0 21G<18 177.211 353 512.211> 380 116<43 99 278 434 613 695> 608 119<304.768 409 639.768 744>
VStem: 18 155<0 155> 353 155<0 155>
DStem2: 18 0 173 0 0.207912 0.978148<32.2263 388.537 539.218 652.403> 353 0 508 0 0.207912 0.978148<32.2263 388.537 539.218 652.403>
LayerCount: 2
Fore
SplineSet
353 0 m 1
 434 380 l 1
 253 380 l 1
 173 0 l 1
 18 0 l 1
 99 380 l 1
 19 380 l 1
 43 496 l 1
 124 496 l 1
 135 547 l 2
 165.780314431 692.506940948 204.295392589 727 366 727 c 2
 434 727 l 1
 409 608 l 1
 368 608 l 2
 309.601035337 608 301.772552862 601.278448387 285 527 c 2
 278 496 l 1
 459 496 l 1
 470 547 l 2
 500.780314431 692.506940948 539.295392589 727 701 727 c 2
 769 727 l 1
 744 608 l 1
 703 608 l 2
 644.601035337 608 636.772552862 601.278448387 620 527 c 2
 613 496 l 1
 720 496 l 1
 695 380 l 1
 588 380 l 1
 508 0 l 1
 353 0 l 1
EndSplineSet
LCarets2: 1 352
Ligature2: "'liga' Standard Ligatures lookup 0-1" f f
EndChar

StartChar: f_f_i
Encoding: 435 64259 371
Width: 978
Flags: W
HStem: 0 21G<18 177.211 353 512.211 688 848.234> 380 116<43 99 278 434 613 769> 578 179<848.974 965.487> 608 119<304.776 409 644.215 744>
VStem: 18 155<0 155> 353 155<0 155> 688 156<0 156> 817 179<609.067 726.365>
DStem2: 18 0 173 0 0.207912 0.978148<32.2263 388.537 539.218 652.27> 353 0 508 0 0.207912 0.978148<32.2263 388.537 539.218 650.537> 688 0 844 0 0.207912 0.978148<32.4342 388.537>
LayerCount: 2
Fore
SplineSet
996 667.971706706 m 0xed
 996 618.136768497 956.952634986 578 906.500131225 578 c 0
 855.990324469 578 817 618.227993432 817 667.952919202 c 0
 817 717.470472911 855.6657933 757 906.429567517 757 c 0
 956.994082098 757 996 717.780189062 996 667.971706706 c 0xed
688 0 m 1xde
 769 380 l 1
 588 380 l 1
 508 0 l 1
 353 0 l 1
 434 380 l 1
 253 380 l 1
 173 0 l 1
 18 0 l 1
 99 380 l 1
 19 380 l 1
 43 496 l 1
 124 496 l 1
 135 547 l 1
 165.157894887 692.306220819 204.422947937 727 366 727 c 2
 434 727 l 1
 409 608 l 1
 368 608 l 2
 308.219889764 608 301.571391723 600.387591919 285 527 c 2
 278 496 l 1
 459 496 l 1
 470 547 l 2
 500.848572978 688.389292815 533.382740553 727 701 727 c 2
 769 727 l 1
 744 608 l 1
 703 608 l 2
 644.601035337 608 636.772552862 601.278448387 620 527 c 2
 613 496 l 1
 949 496 l 1
 844 0 l 1
 688 0 l 1xde
EndSplineSet
LCarets2: 2 352 690
Ligature2: "'liga' Standard Ligatures lookup 0-1" f f i
EndChar

StartChar: f_f_l
Encoding: 437 64260 373
Width: 1031
Flags: W
HStem: 0 124<888.281 958> 380 116<43 99 278 434 613 695> 608 119<304.768 409 639.776 744> 648 20G<830.758 991>
VStem: 18 155<0 155> 353 155<0 155> 835 156<512 668>
DStem2: 18 0 173 0 0.207912 0.978148<32.2263 388.537 539.218 652.403> 353 0 508 0 0.207912 0.978148<32.2263 388.537 539.218 652.27> 693.242 0 849.638 0 0.207912 0.978148<198.669 682.876>
LayerCount: 2
Fore
SplineSet
886 161.79880156 m 0xde
 886 136.192941115 898.468150865 124 941 124 c 2
 984 124 l 1
 958 0 l 1
 861 0 l 2
 781.86198009 0 718 21.0901256862 718 89.4775738263 c 0
 718 108.613091275 723 139.575443688 723 140 c 2
 835 668 l 1
 991 668 l 1
 893 204 l 2
 886.986127018 173.930635089 886 169 886 161.79880156 c 0xde
353 0 m 1
 434 380 l 1
 253 380 l 1
 173 0 l 1
 18 0 l 1
 99 380 l 1
 19 380 l 1
 43 496 l 1
 124 496 l 1
 135 547 l 2
 165.780314431 692.506940948 204.295392589 727 366 727 c 2
 434 727 l 1
 409 608 l 1
 368 608 l 2
 309.601035337 608 301.772552862 601.278448387 285 527 c 2
 278 496 l 1
 459 496 l 1
 470 547 l 1
 500.157894887 692.306220819 539.422947937 727 701 727 c 2
 769 727 l 1
 744 608 l 1
 703 608 l 2xee
 643.219889764 608 636.571391723 600.387591919 620 527 c 2
 613 496 l 1
 720 496 l 1
 695 380 l 1
 588 380 l 1
 508 0 l 1
 353 0 l 1
EndSplineSet
LCarets2: 2 353 692
Ligature2: "'liga' Standard Ligatures lookup 0-1" f f l
EndChar

StartChar: dong
Encoding: 438 8363 374
Width: 638
Flags: W
HStem: -121 78<-9 505> -13 118<157.337 272.04> -1 21G<338.438 489.952> 392 118<223.529 347.772> 555 78<304 435 606 656>
VStem: 3 155<137.952 316.48>
LayerCount: 2
Fore
SplineSet
-25 -121 m 1x9c
 -9 -43 l 1
 521 -43 l 1
 505 -121 l 1
 -25 -121 l 1x9c
158 220.505151313 m 0
 158 183.586783803 167.306620809 105 246.146987143 105 c 0xdc
 339.416316475 105 379 214.984112865 379 283.813097974 c 0
 379 312.429653899 372.157604046 392 289.104036466 392 c 0
 198.68929874 392 158 297.699690962 158 220.505151313 c 0
335 63 m 1
 293.72639346 9.7437334966 242.889185583 -13 183.593560654 -13 c 0xdc
 131.080138291 -13 88.4588923241 4.83844945443 55.7715539241 40.0895006701 c 0
 20.4588923241 78.1717827878 3 129.824958845 3 195.344622397 c 0
 3 351.757152982 102.498481837 510 258.052345614 510 c 0
 293.550184461 510 374.484191937 501.759258163 406 421 c 1
 435 555 l 1
 287 555 l 1
 304 633 l 1
 451 633 l 1
 465 698 l 1
 620 698 l 1
 614.666666667 674.666666667 610 653 606 633 c 1
 673 633 l 1
 656 555 l 1
 589 555 l 1
 529.029949293 279.13776675 490.904761905 103.761904762 489 -1 c 1
 340 -1 l 1xbc
 335 63 l 1
EndSplineSet
EndChar

StartChar: uni0237
Encoding: 474 567 410
Width: 263
HStem: -162 120<-148 -26.0097> 476 20G<88.7549 249>
VStem: 93 156<340 496>
DStem2: -46.7239 -162 108.677 -162 0.207912 0.978148<127.728 672.671>
AnchorPoint: "Anchor-1" 168 496 basechar 0
LayerCount: 2
Fore
SplineSet
-81.9057165948 -162 m 0
 -111.307053587 -162 -143.352069023 -161.332518738 -174 -160 c 1
 -148 -42 l 1
 -87 -42 l 2
 -27.8078739601 -42 -18.0434435313 -27.204805219 -4 39 c 2
 93 496 l 1
 249 496 l 1
 148 23 l 2
 112.06284439 -145.62819171 63.7058472027 -162 -81.9057165948 -162 c 0
EndSplineSet
EndChar

StartChar: uni2010
Encoding: 489 8208 425
Width: 336
Flags: W
HStem: 184 129<38 296>
VStem: 10 314
LayerCount: 2
Fore
SplineSet
10 184 m 1
 38 313 l 1
 324 313 l 1
 296 184 l 1
 10 184 l 1
EndSplineSet
EndChar

StartChar: Ldot
Encoding: 496 319 432
Width: 543
HStem: 0 139<168 458> 251 193<326.928 450.833> 648 20G<114.749 279>
VStem: 119 160<508 668> 291 195<287.464 407.57>
DStem2: -23 0 138.455 0 0.207912 0.978148<175.674 682.926>
LayerCount: 2
Fore
SplineSet
486 347.569140486 m 0
 486 293.090711605 442.878039741 251 389.027632455 251 c 0
 335.501566561 251 291 292.585213194 291 347.400596886 c 0
 291 402.02842932 335.19756262 444 389.100752939 444 c 0
 443.069265239 444 486 401.926642122 486 347.569140486 c 0
-23 0 m 1
 119 668 l 1
 279 668 l 1
 168 139 l 1
 488 139 l 1
 458 0 l 1
 -23 0 l 1
EndSplineSet
EndChar

StartChar: ldot
Encoding: 497 320 433
Width: 485
Flags: W
HStem: 0 124<173.976 244> 250 194<305.92 428.023> 648 20G<116.758 277>
VStem: 4 168<58.9416 216.375> 121 156<512 668> 270 195<287.026 407.467>
DStem2: -20.7579 0 135.638 0 0.207912 0.978148<196.356 682.876>
LayerCount: 2
Fore
SplineSet
465 347.474491808 m 0xe4
 465 293.004925602 421.872863434 250 368.04512053 250 c 0
 314.475738439 250 270 292.593088793 270 347.403087108 c 0
 270 402.041574009 314.197827033 444 368.105971304 444 c 0
 422.215768257 444 465 401.72708149 465 347.474491808 c 0xe4
172 159.161994327 m 0xf0
 172 136.307086368 184.481468217 124 227 124 c 2
 270 124 l 1
 244 0 l 1
 147 0 l 2
 67.8619800901 0 4 21.0901256866 4 96.7931703769 c 0xf4
 4 109.905693509 5.91596786785 123.037823273 9 140 c 2
 121 668 l 1
 277 668 l 1xe8
 179 204 l 2
 175.95975053 190.82558563 172 172.035017525 172 159.161994327 c 0xf0
EndSplineSet
EndChar

